<svg xmlns="http://www.w3.org/2000/svg" viewBox="0 0 396 125"><defs><style>.cls-1{fill:#4ea829;}.cls-2{font-size:47.85px;fill:#fff;font-family:PressStart2P-Regular, PressStart2P Regular;}.cls-3{letter-spacing:-0.08em;}.cls-4{fill:#8ad169;}.cls-5{fill:#38721d;}</style></defs><title>Asset 3</title><g id="Layer_2" data-name="Layer 2"><g id="Layer_23" data-name="Layer 23"><rect class="cls-1" x="15" y="15" width="361" height="90"/><text class="cls-2" transform="translate(146.28 69.54)">PL<tspan class="cls-3" x="48.04" y="0">A</tspan><tspan x="73.55" y="0">Y</tspan></text><rect x="5" y="115" width="381" height="5"/><rect x="10" y="120" width="381" height="5"/><rect class="cls-4" x="-45" y="55" width="110" height="10" transform="translate(70 50) rotate(90)"/><rect class="cls-5" y="105" width="386" height="10"/><rect x="5" width="381" height="5"/><rect y="5" width="5" height="115"/><rect class="cls-5" x="326" y="55" width="110" height="10" transform="translate(321 441) rotate(-90)"/><rect class="cls-4" x="5" y="5" width="386" height="10" transform="translate(396 20) rotate(180)"/><rect x="386" y="5" width="5" height="115"/><rect x="391" y="10" width="5" height="110"/><rect class="cls-5" x="376" y="10" width="5" height="5" transform="translate(366 391) rotate(-90)"/><rect class="cls-5" x="378.5" y="7.5" width="10" height="5" transform="translate(373.5 393.5) rotate(-90)"/><rect class="cls-4" x="10" y="105" width="5" height="5" transform="translate(120 95) rotate(90)"/><rect class="cls-4" x="2.5" y="107.5" width="10" height="5" transform="translate(117.5 102.5) rotate(90)"/></g></g></svg>