<?xml version="1.0" encoding="utf-8"?>
<!-- Generator: Adobe Illustrator 20.1.0, SVG Export Plug-In . SVG Version: 6.00 Build 0)  -->
<svg version="1.1" id="Layer_1" xmlns="http://www.w3.org/2000/svg" xmlns:xlink="http://www.w3.org/1999/xlink" x="0px" y="0px"
	 viewBox="0 0 151 98" style="enable-background:new 0 0 151 98;" xml:space="preserve">
<style type="text/css">
	.st0{fill:#EEEEEC;}
	.st1{display:none;}
	.st2{display:inline;}
	.st3{fill:#729FCF;}
	.st4{fill:#999999;}
	.st5{fill:#FFFFFF;}
	.st6{fill:#AFAFAF;}
</style>
<g>
	<polygon class="st0" points="144,34.5 144,29.6 139.1,29.6 139.1,24.7 134.2,24.7 129.3,24.7 129.3,19.8 124.4,19.8 119.5,19.8 
		114.7,19.8 114.7,15 109.8,15 104.9,15 100.1,15 100.1,9.8 95.2,9.8 95.2,4.9 90.3,4.9 85.4,4.9 85.4,0 80.5,0 75.6,0 70.7,0 
		65.8,0 60.9,0 60.9,4.9 56,4.9 51.1,4.9 51.1,9.8 46.2,9.8 46.2,14.7 41.3,14.7 41.3,19.6 36.4,19.6 36.4,24.5 31.5,24.5 
		26.6,24.5 26.6,29.4 21.7,29.4 21.7,34.3 21.7,39.2 16.8,39.2 16.8,44.1 11.9,44.1 11.9,49 7,49 7,53.9 2.1,53.9 2.1,58.8 
		2.1,63.6 2.1,63.7 2.1,68.5 2.1,73.4 7,73.4 7,78.3 11.9,78.3 11.9,83.2 16.8,83.2 16.8,88.1 21.7,88.1 21.7,93 26.6,93 31.5,93 
		36.4,93 36.4,88.1 41.3,88.1 41.3,93 46.2,93 51.1,93 51.1,97.9 56,97.9 60.9,97.9 65.8,97.9 70.7,97.9 70.7,93 75.6,93 75.6,88.1 
		80.5,88.1 80.5,93 85.4,93 90.3,93 95.2,93 95.2,88.2 100,88.2 100,83.3 104.8,83.3 104.8,88.2 109.7,88.2 114.6,88.2 119.5,88.2 
		124.4,88.2 124.4,83.3 129.3,83.3 134.2,83.3 134.2,78.4 139.1,78.4 139.1,73.6 139.1,73.5 139.1,68.7 139.1,63.9 144,63.9 144,59 
		148.9,59 148.9,54.1 148.9,49.2 148.9,44.3 148.9,39.4 144,39.4 	"/>
</g>
<g id="svg4189" inkscape:export-filename="D:\Cliparts\New\cloud.png" inkscape:export-xdpi="76.224487" inkscape:export-ydpi="76.224487" inkscape:output_extension="org.inkscape.output.svg.inkscape" inkscape:version="0.47pre1" sodipodi:docname="cloud.svg" xmlns:cc="http://creativecommons.org/ns#" xmlns:dc="http://purl.org/dc/elements/1.1/" xmlns:inkscape="http://www.inkscape.org/namespaces/inkscape" xmlns:rdf="http://www.w3.org/1999/02/22-rdf-syntax-ns#" xmlns:sodipodi="http://sodipodi.sourceforge.net/DTD/sodipodi-0.dtd" xmlns:svg="http://www.w3.org/2000/svg" class="st1">
	<title  id="title4428">Cloud</title>
	<defs  class="st2">
		
		
			<inkscape:perspective  id="perspective4636" inkscape:persp3d-origin="75.5 : 32.666667 : 1" inkscape:vp_x="0 : 49 : 1" inkscape:vp_y="0 : 1000 : 0" inkscape:vp_z="151 : 49 : 1" sodipodi:type="inkscape:persp3d">
			</inkscape:perspective>
	</defs>
	
		<sodipodi:namedview  bordercolor="#666666" borderopacity="1.0" id="base" inkscape:current-layer="layer1" inkscape:cx="75.5" inkscape:cy="49" inkscape:document-units="px" inkscape:pageopacity="0.0" inkscape:pageshadow="2" inkscape:showpageshadow="false" inkscape:window-height="977" inkscape:window-maximized="1" inkscape:window-width="1280" inkscape:window-x="-4" inkscape:window-y="-4" inkscape:zoom="7.5714286" pagecolor="#ffffff" showgrid="false" width="151px">
		</sodipodi:namedview>
	<g id="layer1" transform="translate(0,-954.36218)" inkscape:groupmode="layer" inkscape:label="Calque 1" class="st2">
		<g id="g4449">
			<path id="path2844" class="st3" d="M104.8,978.9c0,13.5-13.8,24.5-30.8,24.5s-30.8-11-30.8-24.5S57,954.4,74,954.4
				S104.8,965.3,104.8,978.9z"/>
			<path id="path2844-3" class="st0" d="M103.4,979.7c0,13.4-13.2,24.3-29.6,24.3s-29.6-10.9-29.6-24.3s13.2-24.3,29.6-24.3
				S103.4,966.3,103.4,979.7z"/>
			<path id="path2844-9" class="st0" d="M106.1,1009.9c0,12.3-11.2,22.2-25,22.2s-25-9.9-25-22.2s11.2-22.2,25-22.2
				S106.1,997.7,106.1,1009.9L106.1,1009.9z"/>
			<path id="path2844-5" class="st3" d="M125.8,992.8c0,12.3-11.2,22.2-25,22.2s-25-9.9-25-22.2s11.2-22.2,25-22.2
				S125.8,980.5,125.8,992.8z"/>
			<path id="path2844-11" class="st3" d="M70.2,999.8c0,12.3-11.2,22.2-25,22.2s-25-9.9-25-22.2s11.2-22.2,25-22.2
				S70.2,987.6,70.2,999.8z"/>
			<path id="path2844-11-1" class="st0" d="M72.6,1001c0,12.3-11.5,22.2-25.6,22.2s-25.6-9.9-25.6-22.2s11.5-22.2,25.6-22.2
				S72.6,988.7,72.6,1001z"/>
			<path id="path2844-1" class="st3" d="M40.4,1019.3c0,9.9-8.9,17.9-20,17.9s-20-8-20-17.9s8.9-17.9,20-17.9
				S40.4,1009.4,40.4,1019.3z"/>
			<path id="path2844-1-76" class="st0" d="M41,1019.7c0,9.3-8.8,16.8-19.6,16.8s-19.6-7.5-19.6-16.8s8.8-16.8,19.6-16.8
				S41,1010.4,41,1019.7z"/>
			<path id="path2844-5-4" class="st0" d="M126.2,994.9c0,12.9-11.4,23.3-25.4,23.3s-25.4-10.4-25.4-23.3s11.4-23.3,25.4-23.3
				S126.2,982,126.2,994.9z"/>
			<path id="path2844-2" class="st3" d="M150.5,1000.3c0,12.3-11.2,22.2-25,22.2s-25-9.9-25-22.2s11.2-22.2,25-22.2
				S150.5,988.1,150.5,1000.3z"/>
			<path id="path2844-2-2" class="st0" d="M149.8,1000.2c0,11.6-11.3,21-25.2,21s-25.2-9.4-25.2-21s11.3-21,25.2-21
				C138.5,979.3,149.8,988.7,149.8,1000.2z"/>
			<path id="path2844-1-7" class="st3" d="M41.9,1033.7c0,6.6-5.2,11.9-11.6,11.9s-11.6-5.3-11.6-11.9s5.2-11.9,11.6-11.9
				C36.7,1021.8,41.9,1027.1,41.9,1033.7z"/>
			<path id="path2844-1-7-2" class="st0" d="M42.3,1032.9c0,6.5-5.1,11.7-11.4,11.7s-11.4-5.2-11.4-11.7s5.1-11.7,11.4-11.7
				C37.1,1021.2,42.3,1026.5,42.3,1032.9z"/>
			<path id="path2844-4" class="st3" d="M84.3,1030.1c0,12.3-11.2,22.2-25,22.2s-25-9.9-25-22.2c0-12.3,11.2-22.2,25-22.2
				S84.3,1017.9,84.3,1030.1z"/>
			<path id="path2844-4-2" class="st0" d="M84.5,1029.6c0,12-10.9,21.8-24.4,21.8s-24.4-9.7-24.4-21.8s10.9-21.8,24.4-21.8
				C73.5,1007.8,84.5,1017.5,84.5,1029.6z"/>
			<path id="path2844-8" class="st3" d="M139.4,1020c0,12.3-11.2,22.2-25,22.2s-25-9.9-25-22.2s11.2-22.2,25-22.2
				C128.2,997.8,139.4,1007.8,139.4,1020L139.4,1020z"/>
			<path id="path2844-8-1" class="st0" d="M138.1,1019.8c0,11.8-11.2,21.4-25,21.4s-25-9.6-25-21.4c0-11.8,11.2-21.4,25-21.4
				S138.1,1007.9,138.1,1019.8L138.1,1019.8z"/>
			<path id="path2844-1-7-6" class="st3" d="M91,1048c-8,1.3-15.5-3.8-16.8-11.4s4.1-14.9,12-16.2c8-1.3,15.5,3.8,16.8,11.4
				C104.3,1039.4,98.9,1046.7,91,1048z"/>
			<path id="path2844-1-7-6-5" class="st0" d="M91.3,1046.6c-7.8,1.3-15.2-3.8-16.5-11.4s4-14.9,11.8-16.2s15.2,3.8,16.5,11.4
				C104.4,1038,99.1,1045.3,91.3,1046.6z"/>
		</g>
	</g>
</g>
<rect x="41.2" y="19.6" class="st4" width="4.9" height="4.9"/>
<rect x="36.3" y="19.6" class="st4" width="4.9" height="4.9"/>
<rect x="41.2" y="24.5" class="st5" width="4.9" height="4.9"/>
<rect x="36.3" y="24.5" class="st5" width="4.9" height="4.9"/>
<rect x="31.4" y="24.5" class="st5" width="4.9" height="4.9"/>
<rect x="31.4" y="19.6" class="st4" width="4.9" height="4.9"/>
<rect x="31.4" y="29.4" class="st5" width="4.9" height="4.9"/>
<rect x="26.5" y="34.3" class="st5" width="4.9" height="4.9"/>
<rect x="11.8" y="49" class="st5" width="4.9" height="4.9"/>
<rect x="16.7" y="49" class="st5" width="4.9" height="4.9"/>
<rect x="41.2" y="58.8" class="st5" width="4.9" height="4.9"/>
<rect x="41.2" y="63.7" class="st5" width="4.9" height="4.9"/>
<rect x="36.3" y="68.6" class="st5" width="4.9" height="4.9"/>
<rect x="46.1" y="58.8" class="st5" width="4.9" height="4.9"/>
<rect x="51" y="53.9" class="st5" width="4.9" height="4.9"/>
<rect x="55.9" y="53.9" class="st5" width="4.9" height="4.9"/>
<rect x="75.5" y="73.6" class="st5" width="4.9" height="4.9"/>
<rect x="75.5" y="78.4" class="st5" width="4.9" height="4.9"/>
<rect x="80.4" y="68.7" class="st5" width="4.9" height="4.9"/>
<rect x="114.5" y="44.3" class="st5" width="4.9" height="4.9"/>
<rect x="119.4" y="49.2" class="st5" width="4.9" height="4.9"/>
<rect x="109.6" y="44.3" class="st5" width="4.9" height="4.9"/>
<rect x="104.7" y="49.2" class="st5" width="4.9" height="4.9"/>
<rect x="104.7" y="29.4" class="st5" width="4.9" height="4.9"/>
<rect x="109.6" y="29.4" class="st5" width="4.9" height="4.9"/>
<rect x="114.5" y="29.4" class="st5" width="4.9" height="4.9"/>
<rect x="90.2" y="19.9" class="st5" width="4.9" height="4.9"/>
<rect x="80.5" y="24.8" class="st5" width="4.9" height="4.9"/>
<rect x="75.6" y="29.7" class="st5" width="4.9" height="4.9"/>
<rect x="85.2" y="24.8" class="st5" width="4.9" height="4.9"/>
<rect x="119.4" y="24.5" class="st5" width="4.9" height="4.9"/>
<rect x="99.8" y="49.2" class="st5" width="4.9" height="4.9"/>
<rect x="26.5" y="68.6" class="st5" width="4.9" height="4.9"/>
<rect x="21.6" y="73.5" class="st5" width="4.9" height="4.9"/>
<rect x="6.9" y="53.9" class="st5" width="4.9" height="4.9"/>
<rect x="21.6" y="29.4" class="st4" width="4.9" height="4.9"/>
<rect x="26.5" y="24.5" class="st4" width="4.9" height="4.9"/>
<rect x="26.5" y="29.4" class="st4" width="4.9" height="4.9"/>
<rect x="21.6" y="34.3" class="st4" width="4.9" height="4.9"/>
<rect x="16.7" y="39.2" class="st4" width="4.9" height="4.9"/>
<rect x="16.7" y="44.1" class="st4" width="4.9" height="4.9"/>
<rect x="11.8" y="44.1" class="st4" width="4.9" height="4.9"/>
<rect x="6.9" y="49" class="st4" width="4.9" height="4.9"/>
<rect x="2" y="53.9" class="st4" width="4.9" height="4.9"/>
<rect x="2" y="58.8" class="st4" width="4.9" height="4.9"/>
<rect x="2" y="63.7" class="st4" width="4.9" height="4.9"/>
<rect x="2" y="68.6" class="st4" width="4.9" height="4.9"/>
<rect x="6.9" y="73.5" class="st4" width="4.9" height="4.9"/>
<rect x="11.8" y="78.4" class="st4" width="4.9" height="4.9"/>
<rect x="11.8" y="73.5" class="st6" width="4.9" height="4.9"/>
<rect x="6.9" y="68.6" class="st6" width="4.9" height="4.9"/>
<rect x="16.7" y="78.4" class="st4" width="4.9" height="4.9"/>
<rect x="16.7" y="83.3" class="st4" width="4.9" height="4.9"/>
<rect x="26.5" y="88.2" class="st4" width="4.9" height="4.9"/>
<rect x="21.6" y="88.2" class="st4" width="4.9" height="4.9"/>
<rect x="31.4" y="88.2" class="st4" width="4.9" height="4.9"/>
<rect x="36.3" y="83.3" class="st4" width="4.9" height="4.9"/>
<rect x="41.2" y="88.2" class="st4" width="4.9" height="4.9"/>
<rect x="46.1" y="88.2" class="st4" width="4.9" height="4.9"/>
<rect x="41.2" y="83.3" class="st6" width="4.9" height="4.9"/>
<rect x="31.4" y="83.3" class="st6" width="4.9" height="4.9"/>
<rect x="31.4" y="78.4" class="st6" width="4.9" height="4.9"/>
<rect x="26.6" y="83.3" class="st6" width="4.9" height="4.9"/>
<rect x="46.1" y="83.3" class="st6" width="4.9" height="4.9"/>
<rect x="51" y="93.1" class="st4" width="4.9" height="4.9"/>
<rect x="55.9" y="93.1" class="st4" width="4.9" height="4.9"/>
<rect x="60.8" y="93.1" class="st4" width="4.9" height="4.9"/>
<rect x="65.7" y="93.1" class="st4" width="4.9" height="4.9"/>
<rect x="51" y="88.2" class="st6" width="4.9" height="4.9"/>
<rect x="55.9" y="88.2" class="st6" width="4.9" height="4.9"/>
<rect x="60.8" y="88.2" class="st6" width="4.9" height="4.9"/>
<rect x="65.7" y="88.2" class="st6" width="4.9" height="4.9"/>
<rect x="60.8" y="83.3" class="st6" width="4.9" height="4.9"/>
<rect x="65.7" y="83.4" class="st6" width="4.9" height="4.9"/>
<rect x="65.7" y="78.5" class="st6" width="4.9" height="4.9"/>
<rect x="65.7" y="73.7" class="st6" width="4.9" height="4.9"/>
<rect x="70.6" y="88.2" class="st4" width="4.9" height="4.9"/>
<rect x="70.6" y="83.4" class="st6" width="4.9" height="4.9"/>
<rect x="75.5" y="83.3" class="st4" width="4.9" height="4.9"/>
<rect x="80.4" y="88.2" class="st4" width="4.9" height="4.9"/>
<rect x="85.3" y="88.2" class="st4" width="4.9" height="4.9"/>
<rect x="90.2" y="88.2" class="st4" width="4.9" height="4.9"/>
<rect x="85.3" y="83.4" class="st6" width="4.9" height="4.9"/>
<rect x="80.4" y="83.4" class="st6" width="4.9" height="4.9"/>
<rect x="90.2" y="83.4" class="st6" width="4.9" height="4.9"/>
<rect x="90.2" y="78.5" class="st6" width="4.9" height="4.9"/>
<rect x="95" y="83.4" class="st4" width="4.9" height="4.9"/>
<rect x="95" y="78.5" class="st6" width="4.9" height="4.9"/>
<rect x="95" y="73.6" class="st6" width="4.9" height="4.9"/>
<rect x="99.9" y="78.5" class="st4" width="4.9" height="4.9"/>
<rect x="99.9" y="73.7" class="st4" width="4.9" height="4.9"/>
<rect x="99.9" y="68.8" class="st4" width="4.9" height="4.9"/>
<rect x="104.7" y="83.4" class="st4" width="4.9" height="4.9"/>
<rect x="109.6" y="83.4" class="st4" width="4.9" height="4.9"/>
<rect x="114.5" y="83.4" class="st4" width="4.9" height="4.9"/>
<rect x="119.4" y="83.4" class="st4" width="4.9" height="4.9"/>
<rect x="124.3" y="78.5" class="st4" width="4.9" height="4.9"/>
<rect x="129.2" y="78.5" class="st4" width="4.9" height="4.9"/>
<rect x="134.1" y="73.6" class="st4" width="4.9" height="4.9"/>
<rect x="134.1" y="68.8" class="st4" width="4.9" height="4.9"/>
<rect x="134.1" y="63.9" class="st4" width="4.9" height="4.9"/>
<rect x="129.2" y="73.6" class="st6" width="4.9" height="4.9"/>
<rect x="124.4" y="68.7" class="st6" width="4.9" height="4.9"/>
<rect x="124.3" y="73.6" class="st6" width="4.9" height="4.9"/>
<rect x="119.4" y="78.5" class="st6" width="4.9" height="4.9"/>
<rect x="114.5" y="78.5" class="st6" width="4.9" height="4.9"/>
<rect x="109.6" y="78.5" class="st6" width="4.9" height="4.9"/>
<rect x="104.7" y="78.5" class="st6" width="4.9" height="4.9"/>
<rect x="104.7" y="73.6" class="st6" width="4.9" height="4.9"/>
<rect x="119.4" y="73.6" class="st6" width="4.9" height="4.9"/>
<rect x="129.2" y="68.8" class="st6" width="4.9" height="4.9"/>
<rect x="129.2" y="63.9" class="st6" width="4.9" height="4.9"/>
<rect x="129.2" y="59" class="st6" width="4.9" height="4.9"/>
<rect x="134.1" y="59" class="st4" width="4.9" height="4.9"/>
<rect x="139" y="59" class="st4" width="4.9" height="4.9"/>
<rect x="134.1" y="54.1" class="st6" width="4.9" height="4.9"/>
<rect x="134.1" y="49.2" class="st6" width="4.9" height="4.9"/>
<rect x="139" y="54.1" class="st6" width="4.9" height="4.9"/>
<rect x="143.9" y="54.1" class="st4" width="4.9" height="4.9"/>
<rect x="143.9" y="49.2" class="st4" width="4.9" height="4.9"/>
<rect x="143.9" y="44.3" class="st4" width="4.9" height="4.9"/>
<rect x="143.9" y="39.4" class="st4" width="4.9" height="4.9"/>
<rect x="139" y="49.2" class="st6" width="4.9" height="4.9"/>
<rect x="139" y="44.3" class="st6" width="4.9" height="4.9"/>
<rect x="139" y="39.4" class="st6" width="4.9" height="4.9"/>
<rect x="139" y="34.5" class="st4" width="4.9" height="4.9"/>
<rect x="139" y="29.6" class="st4" width="4.9" height="4.9"/>
<rect x="134.1" y="34.5" class="st6" width="4.9" height="4.9"/>
<rect x="134.1" y="29.6" class="st6" width="4.9" height="4.9"/>
<rect x="134.1" y="24.7" class="st4" width="4.9" height="4.9"/>
<rect x="129.2" y="24.7" class="st4" width="4.9" height="4.9"/>
<rect x="124.3" y="19.8" class="st4" width="4.9" height="4.9"/>
<rect x="119.4" y="19.8" class="st4" width="4.9" height="4.9"/>
<rect x="114.5" y="24.7" class="st4" width="4.9" height="4.9"/>
<rect x="114.5" y="19.8" class="st4" width="4.9" height="4.9"/>
<rect x="109.7" y="15" class="st4" width="4.9" height="4.9"/>
<rect x="104.8" y="15" class="st4" width="4.9" height="4.9"/>
<rect x="99.9" y="15" class="st4" width="4.9" height="4.9"/>
<rect x="95" y="15" class="st4" width="4.9" height="4.9"/>
<rect x="90.2" y="15" class="st4" width="4.9" height="4.9"/>
<rect x="90.2" y="9.8" class="st6" width="4.9" height="5.2"/>
<rect x="85.3" y="15" class="st6" width="4.9" height="4.9"/>
<rect x="85.3" y="19.9" class="st4" width="4.9" height="4.9"/>
<rect x="80.5" y="19.9" class="st4" width="4.9" height="4.9"/>
<rect x="75.6" y="24.8" class="st4" width="4.9" height="4.9"/>
<rect x="109.6" y="24.7" class="st4" width="4.9" height="4.9"/>
<rect x="109.6" y="19.9" class="st6" width="4.9" height="4.9"/>
<rect x="129.2" y="54.1" class="st4" width="4.9" height="4.9"/>
<rect x="129.2" y="49.2" class="st4" width="4.9" height="4.9"/>
<rect x="124.3" y="44.3" class="st4" width="4.9" height="4.9"/>
<rect x="119.4" y="44.3" class="st4" width="4.9" height="4.9"/>
<rect x="114.5" y="39.4" class="st4" width="4.9" height="4.9"/>
<rect x="109.6" y="39.4" class="st4" width="4.9" height="4.9"/>
<rect x="104.7" y="44.3" class="st4" width="4.9" height="4.9"/>
<rect x="70.6" y="78.5" class="st4" width="4.9" height="4.9"/>
<rect x="70.6" y="73.6" class="st4" width="4.9" height="4.9"/>
<rect x="75.5" y="68.7" class="st4" width="4.9" height="4.9"/>
<rect x="16.7" y="73.5" class="st4" width="4.9" height="4.9"/>
<rect x="21.6" y="68.6" class="st4" width="4.9" height="4.9"/>
<rect x="21.6" y="44.1" class="st4" width="4.9" height="4.9"/>
<rect x="26.5" y="49" class="st4" width="4.9" height="4.9"/>
<rect x="31.4" y="49" class="st4" width="4.9" height="4.9"/>
<rect x="51" y="49" class="st4" width="4.9" height="4.9"/>
<rect x="46.1" y="53.9" class="st4" width="4.9" height="4.9"/>
<rect x="41.2" y="53.9" class="st4" width="4.9" height="4.9"/>
<rect x="36.3" y="58.8" class="st4" width="4.9" height="4.9"/>
<rect x="36.3" y="63.7" class="st4" width="4.9" height="4.9"/>
<rect x="31.4" y="68.6" class="st4" width="4.9" height="4.9"/>
<rect x="31.4" y="73.5" class="st4" width="4.9" height="4.9"/>
<rect x="36.3" y="78.4" class="st4" width="4.9" height="4.9"/>
<rect x="46.1" y="19.6" class="st4" width="4.9" height="4.9"/>
<rect x="51" y="24.5" class="st4" width="4.9" height="4.9"/>
<rect x="55.9" y="24.5" class="st4" width="4.9" height="4.9"/>
<rect x="65.7" class="st4" width="4.9" height="4.9"/>
<rect x="70.6" class="st4" width="4.9" height="4.9"/>
<rect x="75.5" class="st4" width="4.9" height="4.9"/>
<rect x="60.8" class="st4" width="4.9" height="4.9"/>
<rect x="80.4" class="st4" width="4.9" height="4.9"/>
<rect x="55.9" y="4.9" class="st4" width="4.9" height="4.9"/>
<rect x="60.8" y="4.9" class="st5" width="4.9" height="4.9"/>
<rect x="55.9" y="9.8" class="st5" width="4.9" height="4.9"/>
<rect x="51" y="9.8" class="st5" width="4.9" height="4.9"/>
<rect x="46.1" y="14.7" class="st5" width="4.9" height="4.9"/>
<rect x="85.3" y="4.9" class="st4" width="4.9" height="4.9"/>
<rect x="51" y="4.9" class="st4" width="4.9" height="4.9"/>
<rect x="90.2" y="4.9" class="st4" width="4.9" height="4.9"/>
<rect x="46.1" y="9.8" class="st4" width="4.9" height="4.9"/>
<rect x="41.2" y="14.7" class="st4" width="4.9" height="4.9"/>
<rect x="95.1" y="9.8" class="st4" width="4.9" height="5.2"/>
</svg>
