<?xml version="1.0" encoding="utf-8"?>
<!-- Generator: Adobe Illustrator 20.1.0, SVG Export Plug-In . SVG Version: 6.00 Build 0)  -->
<svg version="1.1"
	 id="svg4189" inkscape:export-filename="D:\Cliparts\New\cloud.png" inkscape:export-xdpi="76.224487" inkscape:export-ydpi="76.224487" inkscape:output_extension="org.inkscape.output.svg.inkscape" inkscape:version="0.91 r13725" sodipodi:docname="cloud_bottom.svg" xmlns:cc="http://creativecommons.org/ns#" xmlns:dc="http://purl.org/dc/elements/1.1/" xmlns:inkscape="http://www.inkscape.org/namespaces/inkscape" xmlns:rdf="http://www.w3.org/1999/02/22-rdf-syntax-ns#" xmlns:sodipodi="http://sodipodi.sourceforge.net/DTD/sodipodi-0.dtd" xmlns:svg="http://www.w3.org/2000/svg"
	 xmlns="http://www.w3.org/2000/svg" xmlns:xlink="http://www.w3.org/1999/xlink" x="0px" y="0px" viewBox="0 0 151 98"
	 style="enable-background:new 0 0 151 98;" xml:space="preserve">
<style type="text/css">
	.st0{opacity:0.75;}
	.st1{fill:#EEEEEC;}
	.st2{fill:#FFFFFF;}
	.st3{fill:#999999;}
	.st4{fill:#AFAFAF;}
</style>
<title  id="title4428">Cloud</title>
<defs>
	
	
		<inkscape:perspective  id="perspective4636" inkscape:persp3d-origin="75.5 : 32.666667 : 1" inkscape:vp_x="0 : 49 : 1" inkscape:vp_y="0 : 1000 : 0" inkscape:vp_z="151 : 49 : 1" sodipodi:type="inkscape:persp3d">
		</inkscape:perspective>
</defs>
<sodipodi:namedview  bordercolor="#666666" borderopacity="1.0" id="base" inkscape:current-layer="g4449" inkscape:cx="116.21555" inkscape:cy="36.794819" inkscape:document-units="px" inkscape:pageopacity="0.0" inkscape:pageshadow="2" inkscape:showpageshadow="false" inkscape:window-height="814" inkscape:window-maximized="1" inkscape:window-width="1536" inkscape:window-x="1144" inkscape:window-y="1072" inkscape:zoom="2.6769043" pagecolor="#ffffff" showgrid="false" width="151px">
	</sodipodi:namedview>
<g class="st0">
	<polygon class="st1" points="134,58.8 134,49 104.4,49 99.9,49 95,49 90,49 90,44 85.2,44 80.3,44 75,44 75,49 70,49 70,54 66,54 
		66,49 60.9,49 56,49 51,49 51,54 46.2,54 42,54 42,59 37,59 37,63.7 37,68.6 22.2,73.4 17.2,88 36.8,88 42,88 42,93.1 99.5,83 
		134,83 	"/>
	<rect x="40.9" y="58.8" class="st2" width="4.9" height="4.9"/>
	<rect x="40.9" y="63.7" class="st2" width="4.9" height="4.9"/>
	<rect x="36" y="68.6" class="st2" width="4.9" height="4.9"/>
	<rect x="45.8" y="58.8" class="st2" width="4.9" height="4.9"/>
	<rect x="50.7" y="53.9" class="st2" width="4.9" height="4.9"/>
	<rect x="55.6" y="53.9" class="st2" width="4.9" height="4.9"/>
	<rect x="75.2" y="73.6" class="st2" width="4.9" height="4.9"/>
	<rect x="75.2" y="78.4" class="st2" width="4.9" height="4.9"/>
	<rect x="80.1" y="68.7" class="st2" width="4.9" height="4.9"/>
	<rect x="114.2" y="44.3" class="st2" width="4.9" height="4.9"/>
	<rect x="119.1" y="49.2" class="st2" width="4.9" height="4.9"/>
	<rect x="109.3" y="44.3" class="st2" width="4.9" height="4.9"/>
	<rect x="104.4" y="49.2" class="st2" width="4.9" height="4.9"/>
	<rect x="99.5" y="49.2" class="st2" width="4.9" height="4.9"/>
	<rect x="94.6" y="49.2" class="st1" width="4.9" height="4.9"/>
	<rect x="89.7" y="49.2" class="st1" width="4.9" height="4.9"/>
	<rect x="84.8" y="44.3" class="st1" width="4.9" height="4.9"/>
	<rect x="79.9" y="44.3" class="st1" width="4.9" height="4.9"/>
	<rect x="75" y="44.3" class="st1" width="4.9" height="4.9"/>
	<rect x="70.1" y="49.2" class="st1" width="4.9" height="4.9"/>
	<rect x="65.3" y="53.9" class="st1" width="4.9" height="4.9"/>
	<rect x="55.6" y="49" class="st1" width="4.9" height="4.9"/>
	<rect x="60.5" y="49" class="st1" width="4.9" height="4.9"/>
	<rect x="26.2" y="68.6" class="st2" width="4.9" height="4.9"/>
	<rect x="21.3" y="73.5" class="st2" width="4.9" height="4.9"/>
	<rect x="16.4" y="78.4" class="st3" width="4.9" height="4.9"/>
	<rect x="16.4" y="83.3" class="st3" width="4.9" height="4.9"/>
	<rect x="26.2" y="88.2" class="st3" width="4.9" height="4.9"/>
	<rect x="21.3" y="88.2" class="st3" width="4.9" height="4.9"/>
	<rect x="31.1" y="88.2" class="st3" width="4.9" height="4.9"/>
	<rect x="36" y="83.3" class="st3" width="4.9" height="4.9"/>
	<rect x="40.9" y="88.2" class="st3" width="4.9" height="4.9"/>
	<rect x="45.8" y="88.2" class="st3" width="4.9" height="4.9"/>
	<rect x="40.9" y="83.3" class="st4" width="4.9" height="4.9"/>
	<rect x="31.1" y="83.3" class="st4" width="4.9" height="4.9"/>
	<rect x="31.1" y="78.4" class="st4" width="4.9" height="4.9"/>
	<rect x="26.3" y="83.3" class="st4" width="4.9" height="4.9"/>
	<rect x="45.8" y="83.3" class="st4" width="4.9" height="4.9"/>
	<rect x="50.7" y="93.1" class="st3" width="4.9" height="4.9"/>
	<rect x="55.6" y="93.1" class="st3" width="4.9" height="4.9"/>
	<rect x="60.5" y="93.1" class="st3" width="4.9" height="4.9"/>
	<rect x="65.4" y="93.1" class="st3" width="4.9" height="4.9"/>
	<rect x="50.7" y="88.2" class="st4" width="4.9" height="4.9"/>
	<rect x="55.6" y="88.2" class="st4" width="4.9" height="4.9"/>
	<rect x="60.5" y="88.2" class="st4" width="4.9" height="4.9"/>
	<rect x="65.4" y="88.2" class="st4" width="4.9" height="4.9"/>
	<rect x="60.5" y="83.3" class="st4" width="4.9" height="4.9"/>
	<rect x="65.4" y="83.4" class="st4" width="4.9" height="4.9"/>
	<rect x="65.4" y="78.5" class="st4" width="4.9" height="4.9"/>
	<rect x="65.4" y="73.7" class="st4" width="4.9" height="4.9"/>
	<rect x="70.3" y="88.2" class="st3" width="4.9" height="4.9"/>
	<rect x="70.3" y="83.4" class="st4" width="4.9" height="4.9"/>
	<rect x="75.2" y="83.3" class="st3" width="4.9" height="4.9"/>
	<rect x="80.1" y="88.2" class="st3" width="4.9" height="4.9"/>
	<rect x="85" y="88.2" class="st3" width="4.9" height="4.9"/>
	<rect x="89.9" y="88.2" class="st3" width="4.9" height="4.9"/>
	<rect x="85" y="83.4" class="st4" width="4.9" height="4.9"/>
	<rect x="80.1" y="83.4" class="st4" width="4.9" height="4.9"/>
	<rect x="89.9" y="83.4" class="st4" width="4.9" height="4.9"/>
	<rect x="89.9" y="78.5" class="st4" width="4.9" height="4.9"/>
	<rect x="94.7" y="83.4" class="st3" width="4.9" height="4.9"/>
	<rect x="94.7" y="78.5" class="st4" width="4.9" height="4.9"/>
	<rect x="94.7" y="73.6" class="st4" width="4.9" height="4.9"/>
	<rect x="99.6" y="78.5" class="st3" width="4.9" height="4.9"/>
	<rect x="99.6" y="73.7" class="st3" width="4.9" height="4.9"/>
	<rect x="99.6" y="68.8" class="st3" width="4.9" height="4.9"/>
	<rect x="104.4" y="83.4" class="st3" width="4.9" height="4.9"/>
	<rect x="109.3" y="83.4" class="st3" width="4.9" height="4.9"/>
	<rect x="114.2" y="83.4" class="st3" width="4.9" height="4.9"/>
	<rect x="119.1" y="83.4" class="st3" width="4.9" height="4.9"/>
	<rect x="124" y="78.5" class="st3" width="4.9" height="4.9"/>
	<rect x="128.9" y="78.5" class="st3" width="4.9" height="4.9"/>
	<rect x="133.8" y="73.6" class="st3" width="4.9" height="4.9"/>
	<rect x="133.8" y="68.8" class="st3" width="4.9" height="4.9"/>
	<rect x="133.8" y="63.9" class="st3" width="4.9" height="4.9"/>
	<rect x="128.9" y="73.6" class="st4" width="4.9" height="4.9"/>
	<rect x="124.1" y="68.7" class="st4" width="4.9" height="4.9"/>
	<rect x="124" y="73.6" class="st4" width="4.9" height="4.9"/>
	<rect x="119.1" y="78.5" class="st4" width="4.9" height="4.9"/>
	<rect x="114.2" y="78.5" class="st4" width="4.9" height="4.9"/>
	<rect x="109.3" y="78.5" class="st4" width="4.9" height="4.9"/>
	<rect x="104.4" y="78.5" class="st4" width="4.9" height="4.9"/>
	<rect x="104.4" y="73.6" class="st4" width="4.9" height="4.9"/>
	<rect x="119.1" y="73.6" class="st4" width="4.9" height="4.9"/>
	<rect x="128.9" y="68.8" class="st4" width="4.9" height="4.9"/>
	<rect x="128.9" y="63.9" class="st4" width="4.9" height="4.9"/>
	<rect x="128.9" y="59" class="st4" width="4.9" height="4.9"/>
	<rect x="133.8" y="59" class="st3" width="4.9" height="4.9"/>
	<rect x="138.7" y="59" class="st3" width="4.9" height="4.9"/>
	<rect x="128.9" y="54.1" class="st3" width="4.9" height="4.9"/>
	<rect x="128.9" y="49.2" class="st3" width="4.9" height="4.9"/>
	<rect x="124" y="44.3" class="st3" width="4.9" height="4.9"/>
	<rect x="119.1" y="44.3" class="st3" width="4.9" height="4.9"/>
	<rect x="114.2" y="39.4" class="st3" width="4.9" height="4.9"/>
	<rect x="109.3" y="39.4" class="st3" width="4.9" height="4.9"/>
	<rect x="104.4" y="44.3" class="st3" width="4.9" height="4.9"/>
	<rect x="70.3" y="78.5" class="st3" width="4.9" height="4.9"/>
	<rect x="70.3" y="73.6" class="st3" width="4.9" height="4.9"/>
	<rect x="75.2" y="68.7" class="st3" width="4.9" height="4.9"/>
	<rect x="16.4" y="73.5" class="st3" width="4.9" height="4.9"/>
	<rect x="21.3" y="68.6" class="st3" width="4.9" height="4.9"/>
	<rect x="50.7" y="49" class="st3" width="4.9" height="4.9"/>
	<rect x="45.8" y="53.9" class="st3" width="4.9" height="4.9"/>
	<rect x="40.9" y="53.9" class="st3" width="4.9" height="4.9"/>
	<rect x="36" y="58.8" class="st3" width="4.9" height="4.9"/>
	<rect x="36" y="63.7" class="st3" width="4.9" height="4.9"/>
	<rect x="31.1" y="68.6" class="st3" width="4.9" height="4.9"/>
	<rect x="31.1" y="73.5" class="st3" width="4.9" height="4.9"/>
	<rect x="36" y="78.4" class="st3" width="4.9" height="4.9"/>
</g>
</svg>
