<svg xmlns="http://www.w3.org/2000/svg" viewBox="0 0 1105.77 633.09"><defs><style>.cls-1{fill:#ddd;}.cls-2{fill:#444;}.cls-3{fill:#7c7c7c;}.cls-4{fill:#2de836;}.cls-5{fill:#4ea829;}.cls-6{fill:#8ad169;}.cls-7{fill:#38721d;}</style></defs><title>congrats</title><g id="Layer_2" data-name="Layer 2"><g id="Layer_24" data-name="Layer 24"><rect class="cls-1" x="25" y="24.94" width="1050.77" height="566.76"/><rect class="cls-1" x="5" y="5" width="1090.77" height="5"/><rect class="cls-2" x="20" y="15" width="1065.77" height="5"/><rect class="cls-3" x="10" y="10" width="1080.77" height="5"/><rect x="20" y="20" width="1055.77" height="5"/><rect class="cls-3" x="20" y="24.94" width="1055.77" height="5"/><rect x="5" width="1090.77" height="5"/><rect class="cls-1" x="15" y="596.7" width="1065.77" height="5"/><rect class="cls-2" x="5" y="606.7" width="1085.77" height="5"/><rect class="cls-3" x="15" y="601.7" width="1070.77" height="5"/><rect x="5" y="611.7" width="1095.77" height="5"/><rect x="5" y="616.7" width="1095.77" height="5"/><rect x="25" y="591.7" width="1050.77" height="5"/><rect class="cls-1" x="5" y="10" width="5" height="596.7"/><rect class="cls-2" x="15" y="15" width="5" height="581.7"/><rect class="cls-3" x="10" y="15" width="5" height="591.7"/><rect class="cls-3" x="25" y="24.94" width="5" height="566.76"/><rect x="20" y="24.94" width="5" height="571.76"/><rect y="5" width="5" height="606.7"/><rect class="cls-1" x="1080.77" y="20" width="5" height="581.7"/><rect class="cls-2" x="1090.77" y="10" width="5" height="601.7"/><rect class="cls-3" x="1085.77" y="15" width="5" height="591.7"/><rect x="1095.77" y="5" width="5" height="606.7"/><rect x="1100.77" y="10" width="5" height="606.7"/><rect x="1075.77" y="20" width="5" height="576.7"/><polygon class="cls-4" points="116.86 167.95 116.86 160.29 109.2 160.29 109.2 152.64 101.54 152.64 101.54 124.66 109.2 124.66 109.2 117 116.86 117 116.86 109.34 152.49 109.34 152.49 117 160.15 117 160.15 129.66 139.83 129.66 139.83 122 129.51 122 129.51 129.66 121.86 129.66 121.86 147.64 129.51 147.64 129.51 155.29 139.83 155.29 139.83 147.64 160.15 147.64 160.15 160.29 152.49 160.29 152.49 167.95 116.86 167.95"/><path d="M150,111.84v7.66h7.66v7.66H142.33V119.5H127v7.66h-7.66v23H127v7.66h15.32v-7.66h15.32v7.66H150v7.66H119.36V157.8H111.7v-7.66H104v-23h7.66V119.5h7.66v-7.66H150m5-5H114.36v7.66H106.7v7.66H99v33h7.66v7.66h7.66v7.66H155V162.8h7.66V145.14H137.33v7.66H132v-7.66h-7.66v-13H132V124.5h5.32v7.66h25.32V114.5H155v-7.66Z"/><path class="cls-4" d="M170.47,168V160.3h-7.66V117h7.66v-7.66h43.29V117h7.66V160.3h-7.66V168ZM201.1,155.3V122h-18V155.3Z"/><path d="M211.26,111.84v7.66h7.66V157.8h-7.66v7.66H173V157.8h-7.66V119.5H173v-7.66h38.29m-30.64,46h23V119.5h-23V157.8m35.64-51H168v7.66h-7.66V162.8H168v7.66h48.29V162.8h7.66V114.5h-7.66v-7.66ZM185.63,124.5h13V152.8h-13V124.5Z"/><polygon class="cls-4" points="262.37 167.95 262.37 160.29 254.72 160.29 254.72 152.64 247.06 152.64 247.06 144.98 244.4 144.98 244.4 167.95 224.08 167.95 224.08 109.34 244.4 109.34 244.4 117 252.06 117 252.06 124.66 259.71 124.66 259.71 132.32 262.37 132.32 262.37 109.34 282.69 109.34 282.69 167.95 262.37 167.95"/><path d="M280.19,111.84v53.61H264.87V157.8h-7.66v-7.66h-7.66v-7.66H241.9v23H226.58V111.84H241.9v7.66h7.66v7.66h7.66v7.66h7.66v-23h15.32m5-5H259.87v15.32h-5.32V114.5H246.9v-7.66H221.58v63.61H246.9V155.14h5.32v7.66h7.66v7.66h25.32V106.84Z"/><polygon class="cls-4" points="300.67 167.95 300.67 160.29 293.01 160.29 293.01 152.64 285.35 152.64 285.35 124.66 293.01 124.66 293.01 117 300.67 117 300.67 109.34 343.96 109.34 343.96 122 313.33 122 313.33 129.66 305.67 129.66 305.67 147.64 313.33 147.64 313.33 155.29 323.64 155.29 323.64 144.98 315.99 144.98 315.99 132.32 343.96 132.32 343.96 167.95 300.67 167.95"/><path d="M341.46,111.84v7.66H310.83v7.66h-7.66v23h7.66v7.66h15.32V142.48h-7.66v-7.66h23v30.64H303.17V157.8h-7.66v-7.66h-7.66v-23h7.66V119.5h7.66v-7.66h38.29m5-5H298.17v7.66h-7.66v7.66h-7.66v33h7.66v7.66h7.66v7.66h48.29V129.82H315.83V124.5h30.64V106.84Zm-38.29,25.32h5.32v13h-5.32v-13Zm7.66,15.32h5.32v5.32h-5.32v-5.32Z"/><path class="cls-4" d="M377.26,168V160.3H369.6v-7.66h-2.66V168H346.62V109.34h51V117h7.66v28H389.92v2.66h7.66v7.66h7.66V168Zm0-28v-7.66h7.66V122h-18v18Z"/><path d="M395.07,111.84v7.66h7.66v23H387.42v7.66h7.66v7.66h7.66v7.66h-23V157.8H372.1v-7.66h-7.66v15.32H349.12V111.84h46m-30.64,30.64h15.32v-7.66h7.66V119.5h-23v23m35.64-35.64h-56v63.61h25.32V162.8h5.32v7.66h33V152.8h-7.66v-5.32h7.66v-33h-7.66v-7.66ZM369.44,124.5h13v5.32h-7.66v7.66h-5.32v-13Z"/><path class="cls-4" d="M446.19,168V152.64h-18V168H407.89V124.66h7.66V117h7.66v-7.66h28V117h7.66v7.66h7.66V168Zm0-28V129.66h-7.66V122h-2.66v7.66h-7.66V140Z"/><path d="M448.69,111.84v7.66h7.66v7.66H464v38.29H448.69V150.14h-23v15.32H410.39V127.16h7.66V119.5h7.66v-7.66h23m-23,30.64h23V127.16H441V119.5h-7.66v7.66h-7.66v15.32m28-35.64h-33v7.66h-7.66v7.66h-7.66v48.29h25.32V155.14h13v15.32H469V122.16h-7.66V114.5h-7.66v-7.66Zm-15.32,25.32h5.32v5.32h-13v-5.32h7.66Z"/><polygon class="cls-4" points="487.03 167.95 487.03 122 471.72 122 471.72 109.34 522.67 109.34 522.67 122 507.35 122 507.35 167.95 487.03 167.95"/><path d="M520.17,111.84v7.66H504.85v46H489.53v-46H474.22v-7.66h46m5-5h-56V124.5h15.32v46h25.32v-46h15.32V106.84Z"/><polygon class="cls-4" points="532.99 167.95 532.99 160.29 525.33 160.29 525.33 109.34 545.65 109.34 545.65 155.29 563.62 155.29 563.62 109.34 583.94 109.34 583.94 160.29 576.28 160.29 576.28 167.95 532.99 167.95"/><path d="M581.44,111.84v46h-7.66v7.66H535.49V157.8h-7.66v-46h15.32v46h23v-46h15.32m5-5H561.12v46h-13v-46H522.83v56h7.66v7.66h48.29V162.8h7.66v-56Z"/><polygon class="cls-4" points="589.15 167.95 589.15 109.34 609.47 109.34 609.47 155.29 640.11 155.29 640.11 167.95 589.15 167.95"/><path d="M607,111.84v46h30.64v7.66h-46V111.84H607m5-5H586.65v63.61h56V152.8H612v-46Z"/><path class="cls-4" d="M681.06,168V152.64h-18V168H642.76V124.66h7.66V117h7.66v-7.66h28V117h7.66v7.66h7.66V168Zm0-28V129.66H673.4V122h-2.66v7.66h-7.66V140Z"/><path d="M683.56,111.84v7.66h7.66v7.66h7.66v38.29H683.56V150.14h-23v15.32H645.26V127.16h7.66V119.5h7.66v-7.66h23m-23,30.64h23V127.16H675.9V119.5h-7.66v7.66h-7.66v15.32m28-35.64h-33v7.66h-7.66v7.66h-7.66v48.29h25.32V155.14h13v15.32h25.32V122.16h-7.66V114.5h-7.66v-7.66Zm-15.32,25.32h5.32v5.32h-13v-5.32h7.66Z"/><polygon class="cls-4" points="721.91 167.95 721.91 122 706.59 122 706.59 109.34 757.54 109.34 757.54 122 742.22 122 742.22 167.95 721.91 167.95"/><path d="M755,111.84v7.66H739.72v46H724.41v-46H709.09v-7.66h46m5-5h-56V124.5h15.32v46h25.32v-46H760V106.84Z"/><polygon class="cls-4" points="762.75 167.95 762.75 155.29 778.07 155.29 778.07 122 762.75 122 762.75 109.34 813.71 109.34 813.71 122 798.39 122 798.39 155.29 813.71 155.29 813.71 167.95 762.75 167.95"/><path d="M811.21,111.84v7.66H795.89V157.8h15.32v7.66h-46V157.8h15.32V119.5H765.25v-7.66h46m5-5h-56V124.5h15.32V152.8H760.25v17.66h56V152.8H800.89V124.5h15.32V106.84Z"/><path class="cls-4" d="M824,168V160.3h-7.66V117H824v-7.66h43.29V117H875V160.3h-7.66V168Zm30.64-12.66V122h-18V155.3Z"/><path d="M864.82,111.84v7.66h7.66V157.8h-7.66v7.66H826.52V157.8h-7.66V119.5h7.66v-7.66h38.29m-30.64,46h23V119.5h-23V157.8m35.64-51H821.52v7.66h-7.66V162.8h7.66v7.66h48.29V162.8h7.66V114.5h-7.66v-7.66ZM839.18,124.5h13V152.8h-13V124.5Z"/><polygon class="cls-4" points="915.93 167.95 915.93 160.29 908.27 160.29 908.27 152.64 900.61 152.64 900.61 144.98 897.96 144.98 897.96 167.95 877.64 167.95 877.64 109.34 897.96 109.34 897.96 117 905.61 117 905.61 124.66 913.27 124.66 913.27 132.32 915.93 132.32 915.93 109.34 936.25 109.34 936.25 167.95 915.93 167.95"/><path d="M933.75,111.84v53.61H918.43V157.8h-7.66v-7.66h-7.66v-7.66h-7.66v23H880.14V111.84h15.32v7.66h7.66v7.66h7.66v7.66h7.66v-23h15.32m5-5H913.43v15.32h-5.32V114.5h-7.66v-7.66H875.14v63.61h25.32V155.14h5.32v7.66h7.66v7.66h25.32V106.84Z"/><polygon class="cls-4" points="946.57 167.95 946.57 160.29 938.91 160.29 938.91 147.64 959.23 147.64 959.23 155.29 977.2 155.29 977.2 144.98 946.57 144.98 946.57 137.32 938.91 137.32 938.91 117 946.57 117 946.57 109.34 982.2 109.34 982.2 117 989.86 117 989.86 129.66 969.54 129.66 969.54 122 959.23 122 959.23 132.32 989.86 132.32 989.86 139.98 997.52 139.98 997.52 160.29 989.86 160.29 989.86 167.95 946.57 167.95"/><path d="M979.7,111.84v7.66h7.66v7.66H972V119.5H956.73v15.32h30.64v7.66H995V157.8h-7.66v7.66H949.07V157.8h-7.66v-7.66h15.32v7.66h23V142.48H949.07v-7.66h-7.66V119.5h7.66v-7.66H979.7m5-5H944.07v7.66h-7.66v25.32h7.66v5.32h-7.66V162.8h7.66v7.66h48.29V162.8H1000V137.48h-7.66v-23H984.7v-7.66Zm-23,17.66H967v5.32h-5.32V124.5Zm0,23h13v5.32h-13v-5.32Z"/><polygon class="cls-4" points="111.75 162.85 111.75 155.19 104.09 155.19 104.09 147.53 96.43 147.53 96.43 119.55 104.09 119.55 104.09 111.89 111.75 111.89 111.75 104.24 147.38 104.24 147.38 111.89 155.04 111.89 155.04 124.55 134.73 124.55 134.73 116.89 124.41 116.89 124.41 124.55 116.75 124.55 116.75 142.53 124.41 142.53 124.41 150.19 134.73 150.19 134.73 142.53 155.04 142.53 155.04 155.19 147.38 155.19 147.38 162.85 111.75 162.85"/><path d="M144.88,106.74v7.66h7.66v7.66H137.23v-7.66H121.91v7.66h-7.66v23h7.66v7.66h15.32V145h15.32v7.66h-7.66v7.66H114.25v-7.66h-7.66V145H98.93v-23h7.66v-7.66h7.66v-7.66h30.64m5-5H109.25v7.66h-7.66v7.66H93.93v33h7.66v7.66h7.66v7.66h40.64v-7.66h7.66V140H132.23v7.66h-5.32V140h-7.66v-13h7.66v-7.66h5.32v7.66h25.32V109.39h-7.66v-7.66Z"/><path class="cls-4" d="M165.36,162.85v-7.66H157.7V111.89h7.66v-7.66h43.29v7.66h7.66v43.29h-7.66v7.66ZM196,150.19V116.89H178v33.29Z"/><path d="M206.16,106.74v7.66h7.66v38.29h-7.66v7.66H167.86v-7.66H160.2V114.39h7.66v-7.66h38.29m-30.64,46h23V114.39h-23v38.29m35.64-51H162.86v7.66H155.2v48.29h7.66v7.66h48.29v-7.66h7.66V109.39h-7.66v-7.66Zm-30.64,17.66h13v28.29h-13V119.39Z"/><polygon class="cls-4" points="257.27 162.85 257.27 155.19 249.61 155.19 249.61 147.53 241.95 147.53 241.95 139.87 239.29 139.87 239.29 162.85 218.97 162.85 218.97 104.24 239.29 104.24 239.29 111.89 246.95 111.89 246.95 119.55 254.61 119.55 254.61 127.21 257.27 127.21 257.27 104.24 277.59 104.24 277.59 162.85 257.27 162.85"/><path d="M275.09,106.74v53.61H259.77v-7.66h-7.66V145h-7.66v-7.66h-7.66v23H221.47V106.74h15.32v7.66h7.66v7.66h7.66v7.66h7.66v-23h15.32m5-5H254.77v15.32h-5.32v-7.66h-7.66v-7.66H216.47v63.61h25.32V150h5.32v7.66h7.66v7.66h25.32V101.74Z"/><polygon class="cls-4" points="295.56 162.85 295.56 155.19 287.9 155.19 287.9 147.53 280.24 147.53 280.24 119.55 287.9 119.55 287.9 111.89 295.56 111.89 295.56 104.24 338.86 104.24 338.86 116.89 308.22 116.89 308.22 124.55 300.56 124.55 300.56 142.53 308.22 142.53 308.22 150.19 318.54 150.19 318.54 139.87 310.88 139.87 310.88 127.21 338.86 127.21 338.86 162.85 295.56 162.85"/><path d="M336.36,106.74v7.66H305.72v7.66h-7.66v23h7.66v7.66H321V137.37h-7.66v-7.66h23v30.64H298.06v-7.66H290.4V145h-7.66v-23h7.66v-7.66h7.66v-7.66h38.29m5-5H293.06v7.66H285.4v7.66h-7.66v33h7.66v7.66h7.66v7.66h48.29V124.71H310.72v-5.32h30.64V101.74Zm-38.29,25.32h5.32v13h-5.32v-13Zm7.66,15.32H316v5.32h-5.32v-5.32Z"/><path class="cls-4" d="M372.15,162.85v-7.66h-7.66v-7.66h-2.66v15.32H341.52V104.24h51v7.66h7.66v28H384.81v2.66h7.66v7.66h7.66v12.66Zm0-28v-7.66h7.66V116.89h-18v18Z"/><path d="M390,106.74v7.66h7.66v23H382.31V145H390v7.66h7.66v7.66h-23v-7.66H367V145h-7.66v15.32H344V106.74h46m-30.64,30.64h15.32v-7.66h7.66V114.39h-23v23M395,101.74H339v63.61h25.32v-7.66h5.32v7.66h33V147.69H395v-5.32h7.66v-33H395v-7.66Zm-30.64,17.66h13v5.32h-7.66v7.66h-5.32v-13Z"/><path class="cls-4" d="M441.08,162.85V147.53h-18v15.32H402.79V119.55h7.66v-7.66h7.66v-7.66h28v7.66h7.66v7.66h7.66v43.29Zm0-28V124.55h-7.66v-7.66h-2.66v7.66H423.1v10.32Z"/><path d="M443.58,106.74v7.66h7.66v7.66h7.66v38.29H443.58V145h-23v15.32H405.29V122.05h7.66v-7.66h7.66v-7.66h23m-23,30.64h23V122.05h-7.66v-7.66h-7.66v7.66H420.6v15.32m28-35.64h-33v7.66h-7.66v7.66h-7.66v48.29H425.6V150h13v15.32H463.9V117.05h-7.66v-7.66h-7.66v-7.66Zm-15.32,25.32h5.32v5.32h-13v-5.32h7.66Z"/><polygon class="cls-4" points="481.93 162.85 481.93 116.89 466.61 116.89 466.61 104.24 517.56 104.24 517.56 116.89 502.25 116.89 502.25 162.85 481.93 162.85"/><path d="M515.06,106.74v7.66H499.75v46H484.43v-46H469.11v-7.66h46m5-5h-56v17.66h15.32v46h25.32v-46h15.32V101.74Z"/><polygon class="cls-4" points="527.88 162.85 527.88 155.19 520.22 155.19 520.22 104.24 540.54 104.24 540.54 150.19 558.52 150.19 558.52 104.24 578.84 104.24 578.84 155.19 571.18 155.19 571.18 162.85 527.88 162.85"/><path d="M576.33,106.74v46h-7.66v7.66H530.38v-7.66h-7.66v-46H538v46h23v-46h15.32m5-5H556v46H543v-46H517.72v56h7.66v7.66h48.29v-7.66h7.66v-56Z"/><polygon class="cls-4" points="584.05 162.85 584.05 104.24 604.36 104.24 604.36 150.19 635 150.19 635 162.85 584.05 162.85"/><path d="M601.86,106.74v46H632.5v7.66h-46V106.74h15.32m5-5H581.55v63.61h56V147.69H606.86v-46Z"/><path class="cls-4" d="M676,162.85V147.53H658v15.32H637.66V119.55h7.66v-7.66H653v-7.66h28v7.66h7.66v7.66h7.66v43.29Zm0-28V124.55h-7.66v-7.66h-2.66v7.66H658v10.32Z"/><path d="M678.45,106.74v7.66h7.66v7.66h7.66v38.29H678.45V145h-23v15.32H640.16V122.05h7.66v-7.66h7.66v-7.66h23m-23,30.64h23V122.05h-7.66v-7.66h-7.66v7.66h-7.66v15.32m28-35.64h-33v7.66h-7.66v7.66h-7.66v48.29h25.32V150h13v15.32h25.32V117.05h-7.66v-7.66h-7.66v-7.66Zm-15.32,25.32h5.32v5.32h-13v-5.32h7.66Z"/><polygon class="cls-4" points="716.8 162.85 716.8 116.89 701.48 116.89 701.48 104.24 752.43 104.24 752.43 116.89 737.12 116.89 737.12 162.85 716.8 162.85"/><path d="M749.94,106.74v7.66H734.62v46H719.3v-46H704v-7.66h46m5-5H699v17.66H714.3v46h25.32v-46h15.32V101.74Z"/><polygon class="cls-4" points="757.65 162.85 757.65 150.19 772.97 150.19 772.97 116.89 757.65 116.89 757.65 104.24 808.6 104.24 808.6 116.89 793.28 116.89 793.28 150.19 808.6 150.19 808.6 162.85 757.65 162.85"/><path d="M806.1,106.74v7.66H790.78v38.29H806.1v7.66h-46v-7.66h15.32V114.39H760.15v-7.66h46m5-5h-56v17.66h15.32v28.29H755.15v17.66h56V147.69H795.78V119.39H811.1V101.74Z"/><path class="cls-4" d="M818.92,162.85v-7.66h-7.66V111.89h7.66v-7.66h43.29v7.66h7.66v43.29h-7.66v7.66Zm30.64-12.66V116.89h-18v33.29Z"/><path d="M859.71,106.74v7.66h7.66v38.29h-7.66v7.66H821.42v-7.66h-7.66V114.39h7.66v-7.66h38.29m-30.64,46h23V114.39h-23v38.29m35.64-51H816.42v7.66h-7.66v48.29h7.66v7.66h48.29v-7.66h7.66V109.39h-7.66v-7.66Zm-30.64,17.66h13v28.29h-13V119.39Z"/><polygon class="cls-4" points="910.83 162.85 910.83 155.19 903.17 155.19 903.17 147.53 895.51 147.53 895.51 139.87 892.85 139.87 892.85 162.85 872.53 162.85 872.53 104.24 892.85 104.24 892.85 111.89 900.51 111.89 900.51 119.55 908.17 119.55 908.17 127.21 910.83 127.21 910.83 104.24 931.14 104.24 931.14 162.85 910.83 162.85"/><path d="M928.64,106.74v53.61H913.33v-7.66h-7.66V145H898v-7.66h-7.66v23H875V106.74h15.32v7.66H898v7.66h7.66v7.66h7.66v-23h15.32m5-5H908.33v15.32H903v-7.66h-7.66v-7.66H870v63.61h25.32V150h5.32v7.66h7.66v7.66h25.32V101.74Z"/><polygon class="cls-4" points="941.46 162.85 941.46 155.19 933.8 155.19 933.8 142.53 954.12 142.53 954.12 150.19 972.1 150.19 972.1 139.87 941.46 139.87 941.46 132.21 933.8 132.21 933.8 111.89 941.46 111.89 941.46 104.24 977.1 104.24 977.1 111.89 984.75 111.89 984.75 124.55 964.44 124.55 964.44 116.89 954.12 116.89 954.12 127.21 984.75 127.21 984.75 134.87 992.41 134.87 992.41 155.19 984.75 155.19 984.75 162.85 941.46 162.85"/><path d="M974.6,106.74v7.66h7.66v7.66H966.94v-7.66H951.62v15.32h30.64v7.66h7.66v15.32h-7.66v7.66H944v-7.66H936.3V145h15.32v7.66h23V137.37H944v-7.66H936.3V114.39H944v-7.66H974.6m5-5H939v7.66H931.3v25.32H939V140H931.3v17.66H939v7.66h48.29v-7.66h7.66V132.37h-7.66v-23H979.6v-7.66Zm-23,17.66h5.32v5.32h-5.32v-5.32Zm0,23h13v5.32h-13v-5.32Z"/></g><g id="continue"><polygon points="1062.38 573.1 1062.38 568.1 1057.38 568.1 1057.38 563.1 1052.38 563.1 1052.38 558.1 1047.38 558.1 1047.38 553.1 1042.38 553.1 1042.38 548.1 1037.38 548.1 1037.38 543.1 1032.38 543.1 1032.38 538.1 1027.38 538.1 1027.38 533.1 1022.38 533.1 1022.38 528.1 1017.38 528.1 1017.38 523.1 1012.38 523.1 1012.38 518.1 1007.38 518.1 1007.38 523.1 1002.38 523.1 1002.38 545.1 932.38 545.1 932.38 550.1 927.38 550.1 927.38 601.1 932.38 601.1 932.38 606.1 1002.38 606.1 1002.38 628.1 1007.38 628.1 1007.38 633.1 1012.38 633.1 1012.38 628.1 1017.38 628.1 1017.38 623.1 1022.38 623.1 1022.38 618.1 1027.38 618.1 1027.38 613.1 1032.38 613.1 1032.38 608.1 1037.38 608.1 1037.38 603.1 1042.38 603.1 1042.38 598.1 1047.38 598.1 1047.38 593.1 1052.38 593.1 1052.38 588.1 1057.38 588.1 1057.38 583.1 1062.38 583.1 1062.38 578.1 1067.38 578.1 1067.38 573.1 1062.38 573.1"/><rect class="cls-5" x="927.38" y="544.78" width="75" height="51.23"/><polygon class="cls-5" points="1002.38 512.89 1059.88 570.39 1002.38 627.89 1002.38 512.89"/><rect x="997.38" y="517.89" width="5" height="26.89"/><rect class="cls-6" x="1002.38" y="517.89" width="5" height="26.89"/><rect x="959.88" y="507.28" width="5" height="70" transform="translate(1504.66 -420.11) rotate(90)"/><rect class="cls-6" x="964.88" y="507.28" width="5" height="80" transform="translate(1514.66 -420.11) rotate(90)"/><rect class="cls-7" x="964.88" y="553.5" width="5" height="80" transform="translate(1560.89 -373.88) rotate(90)"/><rect x="959.88" y="563.5" width="5" height="70" transform="translate(1560.89 -363.88) rotate(90)"/><rect x="997.38" y="596" width="5" height="26.89"/><rect class="cls-7" x="1002.38" y="596" width="5" height="26.89"/><rect x="922.38" y="544.78" width="5" height="51.23"/><rect class="cls-6" x="927.38" y="544.78" width="5" height="51.23"/><rect x="1002.38" y="512.89" width="5" height="5"/><rect x="1007.38" y="517.89" width="5" height="5"/><rect x="1012.38" y="522.89" width="5" height="5"/><rect x="1017.38" y="527.89" width="5" height="5"/><rect x="1022.38" y="532.89" width="5" height="5"/><rect x="1027.38" y="537.89" width="5" height="5"/><rect x="1032.38" y="542.89" width="5" height="5"/><rect x="1037.38" y="547.89" width="5" height="5"/><rect x="1042.38" y="552.89" width="5" height="5"/><rect x="1047.38" y="557.89" width="5" height="5"/><rect class="cls-7" x="1007.38" y="522.89" width="5" height="5"/><rect class="cls-7" x="1012.38" y="527.89" width="5" height="5"/><rect class="cls-7" x="1017.38" y="532.89" width="5" height="5"/><rect class="cls-7" x="1022.38" y="537.89" width="5" height="5"/><rect class="cls-7" x="1027.38" y="542.89" width="5" height="5"/><rect class="cls-7" x="1032.38" y="547.89" width="5" height="5"/><rect class="cls-7" x="1037.38" y="552.89" width="5" height="5"/><rect class="cls-7" x="1042.38" y="557.89" width="5" height="5"/><rect class="cls-7" x="1047.38" y="562.89" width="5" height="5"/><rect x="1052.38" y="562.89" width="5" height="5"/><rect x="1057.38" y="567.89" width="5" height="5"/><rect x="1002.38" y="622.89" width="5" height="5"/><rect x="1007.38" y="617.89" width="5" height="5"/><rect x="1012.38" y="612.89" width="5" height="5"/><rect x="1017.38" y="607.89" width="5" height="5"/><rect x="1022.38" y="602.89" width="5" height="5"/><rect x="1027.38" y="597.89" width="5" height="5"/><rect x="1032.38" y="592.89" width="5" height="5"/><rect x="1037.38" y="587.89" width="5" height="5"/><rect x="1042.38" y="582.89" width="5" height="5"/><rect x="1047.38" y="577.89" width="5" height="5"/><rect x="1052.38" y="572.89" width="5" height="5"/><rect class="cls-7" x="1002.38" y="617.89" width="5" height="5"/><rect class="cls-7" x="1007.38" y="612.89" width="5" height="5"/><rect class="cls-7" x="1012.38" y="607.89" width="5" height="5"/><rect class="cls-7" x="1017.38" y="602.89" width="5" height="5"/><rect class="cls-7" x="1022.38" y="597.89" width="5" height="5"/><rect class="cls-7" x="1027.38" y="592.89" width="5" height="5"/><rect class="cls-7" x="1032.38" y="587.89" width="5" height="5"/><rect class="cls-7" x="1037.38" y="582.89" width="5" height="5"/><rect class="cls-7" x="1042.38" y="577.89" width="5" height="5"/><rect class="cls-7" x="1047.38" y="572.89" width="5" height="5"/><rect class="cls-7" x="1052.38" y="567.89" width="5" height="5"/></g></g></svg>