<?xml version="1.0" encoding="utf-8"?>
<!-- Generator: Adobe Illustrator 20.1.0, SVG Export Plug-In . SVG Version: 6.00 Build 0)  -->
<svg version="1.1"
	 id="Layer_1" xmlns:cc="http://creativecommons.org/ns#" xmlns:dc="http://purl.org/dc/elements/1.1/" xmlns:rdf="http://www.w3.org/1999/02/22-rdf-syntax-ns#"
	 xmlns="http://www.w3.org/2000/svg" xmlns:xlink="http://www.w3.org/1999/xlink" x="0px" y="0px" viewBox="0 0 100 100"
	 style="enable-background:new 0 0 100 100;" xml:space="preserve">
<style type="text/css">
	.st0{fill:#2DE836;}
	.st1{fill:#34474C;}
	.st2{fill:#465F66;}
	.st3{fill:#2B3B3F;}
	.st4{fill:#7198A3;}
</style>
<g>
	<rect x="15" y="5" class="st0" width="70" height="90"/>
	<rect y="5" width="5" height="90"/>
	<rect x="95" y="5" width="5" height="90"/>
	<rect x="85" y="5" class="st1" width="10" height="90"/>
	<rect x="5" y="5" class="st2" width="10" height="90"/>
	<rect x="85" y="5" width="5" height="20"/>
	<rect x="10" y="5" width="5" height="20"/>
	<rect x="85" y="40" width="5" height="20"/>
	<rect x="10" y="40" width="5" height="20"/>
	<rect x="85" y="75" width="5" height="20"/>
	<rect x="10" y="25" class="st3" width="85" height="10"/>
	<rect x="10" y="60" class="st3" width="85" height="10"/>
	<rect x="10" y="75" width="5" height="20"/>
	<rect x="5" width="90" height="5"/>
	<rect x="15" y="25" width="70" height="5"/>
	<rect x="15" y="35" width="70" height="5"/>
	<rect x="90" y="10" class="st3" width="5" height="15"/>
	<rect x="90" y="45" class="st3" width="5" height="15"/>
	<rect x="90" y="80" class="st3" width="5" height="15"/>
	<rect x="15" y="60" width="70" height="5"/>
	<rect x="15" y="70" width="70" height="5"/>
	<rect x="5" y="95" width="90" height="5"/>
	<path class="st4" d="M15,5v20h70V5H15z M30,20H20V10h10V20z M40,20h-5V10h5V20z M50,20h-5V10h5V20z M60,20h-5V10h5V20z M70,20h-5
		V10h5V20z M80,20h-5V10h5V20z"/>
	<path class="st4" d="M15,40v20h70V40H15z M30,55H20V45h10V55z M40,55h-5V45h5V55z M50,55h-5V45h5V55z M60,55h-5V45h5V55z M70,55h-5
		V45h5V55z M80,55h-5V45h5V55z"/>
	<path class="st4" d="M15,75v20h70V75H15z M30,90H20V80h10V90z M40,90h-5V80h5V90z M50,90h-5V80h5V90z M60,90h-5V80h5V90z M70,90h-5
		V80h5V90z M80,90h-5V80h5V90z"/>
</g>
</svg>
