<?xml version="1.0" encoding="utf-8"?>
<!-- Generator: Adobe Illustrator 20.1.0, SVG Export Plug-In . SVG Version: 6.00 Build 0)  -->
<svg version="1.1"
	 id="svg4227" xmlns:cc="http://creativecommons.org/ns#" xmlns:dc="http://purl.org/dc/elements/1.1/" xmlns:rdf="http://www.w3.org/1999/02/22-rdf-syntax-ns#" xmlns:sketch="http://www.bohemiancoding.com/sketch/ns" xmlns:svg="http://www.w3.org/2000/svg"
	 xmlns="http://www.w3.org/2000/svg" xmlns:xlink="http://www.w3.org/1999/xlink" x="0px" y="0px" viewBox="0 0 240 130"
	 style="enable-background:new 0 0 240 130;" xml:space="preserve">
<style type="text/css">
	.st0{fill:#039CC7;}
	.st1{fill:#72172F;}
	.st2{fill:#046272;}
	.st3{fill:#0489A8;}
	.st4{fill:#EEEEEC;}
	.st5{fill:#27B9EC;}
	.st6{fill:#7C7C7C;}
	.st7{fill:#AAAAAA;}
	.st8{fill:#A8203D;}
	.st9{fill:#EA2A4A;}
	.st10{fill:#FFFFFF;}
</style>
<title  id="title4229">docker_wave_whale</title>
<description>Created with Sketch (http://www.bohemiancoding.com/sketch)</description>
<g>
	<g>
		<rect x="32.9" y="70.9" class="st0" width="195.6" height="40.1"/>
		<g>
			<rect x="44.4" y="69.5" width="194.2" height="1.4"/>
		</g>
		<g>
			<rect x="31.5" y="111" width="197.1" height="1.4"/>
		</g>
		<g>
			<rect x="234.3" y="82.4" width="4.3" height="1.4"/>
		</g>
		<g>
			<rect x="234.3" y="83.8" width="1.4" height="1.4"/>
		</g>
		<g>
			<rect x="231.4" y="86.7" width="1.4" height="1.4"/>
		</g>
		<g>
			<rect x="230" y="88.1" width="1.4" height="17.2"/>
		</g>
		<g>
			<rect x="228.6" y="103.9" width="1.4" height="7.2"/>
		</g>
		<g>
			<rect x="231.4" y="85.3" width="2.9" height="1.4"/>
		</g>
		<rect x="219.9" y="70.9" class="st0" width="18.7" height="11.4"/>
		<g>
			<rect x="238.6" y="70.9" width="1.4" height="11.4"/>
		</g>
		<rect x="219.9" y="82.4" class="st0" width="14.4" height="2.9"/>
		<rect x="219.9" y="85.3" class="st0" width="11.5" height="2.9"/>
		<rect x="30.1" y="105.3" class="st1" width="1.4" height="2.9"/>
		<rect x="28.6" y="102.4" class="st1" width="1.4" height="2.9"/>
		<rect x="25.8" y="96.7" class="st1" width="1.4" height="2.9"/>
		<rect x="24.3" y="93.8" class="st1" width="1.4" height="2.9"/>
		<rect x="234.3" y="81" class="st2" width="4.3" height="1.4"/>
		<rect x="234.3" y="82.4" class="st2" width="1.4" height="1.4"/>
		<rect x="231.4" y="85.3" class="st2" width="1.4" height="1.4"/>
		<rect x="230" y="85.3" class="st2" width="1.4" height="2.9"/>
		<rect x="231.4" y="83.8" class="st2" width="2.9" height="1.4"/>
		<rect x="235.7" y="70.9" class="st3" width="2.9" height="10"/>
		<rect x="232.8" y="81" class="st3" width="1.4" height="1.4"/>
		<rect x="230" y="83.8" class="st3" width="1.4" height="1.4"/>
		<rect x="228.6" y="83.8" class="st3" width="1.4" height="2.9"/>
		<rect x="230" y="82.4" class="st3" width="4.3" height="1.4"/>
		<rect x="22.9" y="91" class="st2" width="1.4" height="2.9"/>
		<rect x="21.5" y="88.1" class="st2" width="1.4" height="2.9"/>
		<rect x="20" y="85.3" class="st2" width="1.4" height="2.9"/>
		<rect x="17.2" y="81" class="st2" width="1.4" height="2.9"/>
		<rect x="15.7" y="79.5" class="st2" width="1.4" height="1.4"/>
		<rect x="18.6" y="83.8" class="st2" width="1.4" height="1.4"/>
		<rect x="14.3" y="76.7" class="st2" width="1.4" height="2.9"/>
		<rect x="12.9" y="75.2" class="st2" width="1.4" height="1.4"/>
		<rect x="11.4" y="72.4" class="st2" width="1.4" height="2.9"/>
		<rect x="10" y="70.9" class="st2" width="1.4" height="1.4"/>
		<rect x="8.6" y="69.5" class="st2" width="1.4" height="1.4"/>
		<rect x="7.2" y="68.1" class="st2" width="1.4" height="1.4"/>
		<rect x="5.7" y="66.6" class="st2" width="1.4" height="1.4"/>
		<rect x="4.3" y="65.2" class="st2" width="1.4" height="1.4"/>
		<rect x="2.9" y="63.8" class="st2" width="1.4" height="1.4"/>
		<rect x="25.8" y="99.6" width="1.4" height="2.9"/>
		<rect x="219.9" y="88.1" class="st0" width="10.1" height="15.7"/>
		<rect x="31.5" y="108.1" class="st1" width="1.4" height="2.9"/>
		<rect x="27.2" y="99.6" class="st0" width="1.4" height="2.9"/>
		<rect x="40.1" y="66.6" class="st0" width="1.4" height="1.4"/>
		<rect x="41.5" y="68.1" class="st0" width="1.4" height="1.4"/>
		<rect x="42.9" y="69.5" class="st0" width="1.4" height="1.4"/>
		<rect x="228.6" y="86.7" class="st2" width="1.4" height="7.2"/>
		<rect x="227.1" y="86.7" class="st3" width="1.4" height="7.2"/>
		<rect x="1.4" y="62.4" class="st0" width="11.4" height="1.4"/>
		<rect x="1.4" y="60.9" width="11.4" height="1.4"/>
		<rect x="12.9" y="63.8" class="st0" width="4.3" height="1.4"/>
		<rect x="17.2" y="65.2" class="st0" width="22.9" height="1.4"/>
		<g>
			<g>
				<rect x="218.4" y="53.8" width="1.4" height="15.7"/>
			</g>
			<g>
				<rect x="193.6" y="38" width="1.4" height="14.3"/>
			</g>
			<g>
				<rect x="167.7" y="38" width="1.4" height="15.7"/>
			</g>
			<g>
				<rect x="170.8" y="53.8" width="1.4" height="15.7"/>
			</g>
			<g>
				<rect x="206.3" y="18" width="1.4" height="34.3"/>
			</g>
			<g>
				<rect x="200.6" y="18" width="1.4" height="34.3"/>
			</g>
			<g>
				<rect x="169.2" y="36.6" width="24.4" height="1.4"/>
			</g>
			<g>
				<rect x="169.2" y="53.8" width="3" height="1.4"/>
			</g>
			<g>
				<rect x="202.1" y="16.6" width="4.3" height="1.4"/>
			</g>
			<rect x="172.2" y="53.8" class="st4" width="46.2" height="15.7"/>
			<rect x="169.2" y="38.1" class="st4" width="24.4" height="15.7"/>
			<rect x="169.2" y="40.9" class="st5" width="10.4" height="5.7"/>
			<rect x="174.9" y="63.8" class="st5" width="2.9" height="2.9"/>
			<rect x="180.6" y="63.8" class="st5" width="2.9" height="2.9"/>
			<rect x="186.3" y="63.8" class="st5" width="2.9" height="2.9"/>
			<rect x="192.1" y="63.8" class="st5" width="2.9" height="2.9"/>
			<rect x="197.8" y="63.8" class="st5" width="2.9" height="2.9"/>
			<rect x="203.5" y="63.8" class="st5" width="2.9" height="2.9"/>
			<rect x="209.2" y="63.8" class="st5" width="2.9" height="2.9"/>
			<rect x="202.1" y="18" class="st4" width="4.2" height="35.8"/>
			<g>
				<rect x="192.2" y="38" class="st6" width="1.4" height="14.3"/>
			</g>
			<g>
				<rect x="172.2" y="53.8" class="st6" width="24.3" height="1.4"/>
			</g>
			<g>
				<rect x="189.3" y="38" class="st7" width="2.9" height="14.3"/>
			</g>
			<g>
				<rect x="217" y="53.8" class="st6" width="1.4" height="15.8"/>
			</g>
			<g>
				<rect x="214.1" y="53.8" class="st7" width="2.9" height="15.8"/>
			</g>
			<g>
				<rect x="204.9" y="18" class="st6" width="1.4" height="34.3"/>
			</g>
			<g>
				<rect x="169.2" y="52.3" width="49.3" height="1.4"/>
			</g>
		</g>
		<g>
			<rect x="40.1" y="65.2" width="1.4" height="1.4"/>
		</g>
		<g>
			<rect x="41.5" y="66.6" width="1.4" height="1.4"/>
		</g>
		<g>
			<rect x="42.9" y="68.1" width="1.4" height="1.4"/>
		</g>
		<g>
			<rect x="12.9" y="62.4" width="4.3" height="1.4"/>
		</g>
		<g>
			<rect x="17.2" y="63.8" width="22.9" height="1.4"/>
		</g>
		<rect x="30.1" y="108.1" width="1.4" height="2.9"/>
		<rect x="28.6" y="105.3" width="1.4" height="2.9"/>
		<rect x="27.2" y="102.4" width="1.4" height="2.9"/>
		<rect x="31.5" y="105.3" class="st8" width="1.4" height="2.9"/>
		<rect x="30.1" y="102.4" class="st8" width="1.4" height="2.9"/>
		<rect x="27.2" y="96.7" class="st8" width="1.4" height="2.9"/>
		<rect x="25.8" y="93.8" class="st8" width="1.4" height="2.9"/>
		<rect x="24.3" y="91" class="st3" width="1.4" height="2.9"/>
		<rect x="22.9" y="88.1" class="st3" width="1.4" height="2.9"/>
		<rect x="21.5" y="85.3" class="st3" width="1.4" height="2.9"/>
		<rect x="18.6" y="81" class="st3" width="1.4" height="2.9"/>
		<rect x="17.2" y="79.5" class="st3" width="1.4" height="1.4"/>
		<rect x="20" y="83.8" class="st3" width="1.4" height="1.4"/>
		<rect x="15.7" y="76.7" class="st3" width="1.4" height="2.9"/>
		<rect x="14.3" y="75.2" class="st3" width="1.4" height="1.4"/>
		<rect x="12.9" y="72.4" class="st3" width="1.4" height="2.9"/>
		<rect x="11.4" y="70.9" class="st3" width="1.4" height="1.4"/>
		<rect x="10" y="69.5" class="st3" width="1.4" height="1.4"/>
		<rect x="8.6" y="68.1" class="st3" width="1.4" height="1.4"/>
		<rect x="7.2" y="66.6" class="st3" width="1.4" height="1.4"/>
		<rect x="5.7" y="65.2" class="st3" width="1.4" height="1.4"/>
		<rect x="4.3" y="63.8" class="st3" width="1.4" height="1.4"/>
		<rect x="27.2" y="99.6" class="st1" width="1.4" height="2.9"/>
		<rect x="32.9" y="105.3" class="st3" width="1.4" height="2.9"/>
		<rect x="31.5" y="102.4" class="st8" width="1.4" height="2.9"/>
		<rect x="28.6" y="96.7" class="st8" width="1.4" height="2.9"/>
		<rect x="27.2" y="93.8" class="st8" width="1.4" height="2.9"/>
		<rect x="25.8" y="91" class="st3" width="1.4" height="2.9"/>
		<rect x="24.3" y="88.1" class="st3" width="1.4" height="2.9"/>
		<rect x="22.9" y="85.3" class="st3" width="1.4" height="2.9"/>
		<rect x="20" y="81" class="st3" width="1.4" height="2.9"/>
		<rect x="18.6" y="79.5" class="st3" width="1.4" height="1.4"/>
		<rect x="21.5" y="83.8" class="st3" width="1.4" height="1.4"/>
		<rect x="17.2" y="76.7" class="st3" width="1.4" height="2.9"/>
		<rect x="15.7" y="75.2" class="st3" width="1.4" height="1.4"/>
		<rect x="14.3" y="72.4" class="st3" width="1.4" height="2.9"/>
		<rect x="12.9" y="70.9" class="st3" width="1.4" height="1.4"/>
		<rect x="11.4" y="69.5" class="st3" width="1.4" height="1.4"/>
		<rect x="10" y="68.1" class="st3" width="1.4" height="1.4"/>
		<rect x="8.6" y="66.6" class="st3" width="1.4" height="1.4"/>
		<rect x="7.2" y="65.2" class="st3" width="1.4" height="1.4"/>
		<rect x="5.7" y="63.8" class="st3" width="1.4" height="1.4"/>
		<rect x="28.6" y="99.6" class="st8" width="1.4" height="2.9"/>
		<rect x="32.9" y="93.8" class="st9" width="197.1" height="10"/>
		<rect x="34.3" y="105.3" class="st3" width="1.4" height="2.9"/>
		<rect x="32.9" y="102.4" class="st3" width="1.4" height="2.9"/>
		<rect x="30.1" y="96.7" class="st8" width="1.4" height="2.9"/>
		<rect x="28.6" y="93.8" class="st8" width="1.4" height="2.9"/>
		<rect x="228.6" y="99.6" class="st8" width="1.4" height="4.3"/>
		<rect x="227.1" y="93.8" class="st8" width="2.9" height="5.7"/>
		<rect x="231.4" y="81" class="st3" width="1.4" height="1.4"/>
		<rect x="228.6" y="83.8" class="st3" width="1.4" height="1.4"/>
		<rect x="227.1" y="83.8" class="st3" width="1.4" height="2.9"/>
		<rect x="228.6" y="82.4" class="st3" width="4.3" height="1.4"/>
		<rect x="225.7" y="86.7" class="st3" width="1.4" height="7.2"/>
		<rect x="222.8" y="93.8" class="st8" width="5.8" height="8.6"/>
		<rect x="230" y="79.5" class="st3" width="5.7" height="1.4"/>
		<rect x="230" y="81" class="st3" width="1.4" height="1.4"/>
		<rect x="227.2" y="83.8" class="st3" width="1.4" height="1.4"/>
		<rect x="225.7" y="83.8" class="st3" width="1.4" height="2.9"/>
		<rect x="227.2" y="82.4" class="st3" width="4.3" height="1.4"/>
		<rect x="224.3" y="86.7" class="st3" width="1.4" height="7.2"/>
		<rect x="228.5" y="93.8" class="st1" width="1.5" height="10"/>
		<rect x="221.3" y="99.3" class="st8" width="1.5" height="3.1"/>
		<rect x="218.4" y="101" class="st8" width="3" height="1.5"/>
		<rect x="27.2" y="91" class="st3" width="1.4" height="2.9"/>
		<rect x="25.8" y="88.1" class="st3" width="1.4" height="2.9"/>
		<rect x="24.3" y="85.3" class="st3" width="1.4" height="2.9"/>
		<rect x="21.5" y="81" class="st3" width="1.4" height="2.9"/>
		<rect x="20" y="79.5" class="st3" width="1.4" height="1.4"/>
		<rect x="22.9" y="83.8" class="st3" width="1.4" height="1.4"/>
		<rect x="18.6" y="76.7" class="st3" width="1.4" height="2.9"/>
		<rect x="17.2" y="75.2" class="st3" width="1.4" height="1.4"/>
		<rect x="15.7" y="72.4" class="st3" width="1.4" height="2.9"/>
		<rect x="14.3" y="70.9" class="st3" width="1.4" height="1.4"/>
		<rect x="12.9" y="69.5" class="st3" width="1.4" height="1.4"/>
		<rect x="11.4" y="68.1" class="st3" width="1.4" height="1.4"/>
		<rect x="10" y="66.6" class="st3" width="1.4" height="1.4"/>
		<rect x="8.6" y="65.2" class="st3" width="1.4" height="1.4"/>
		<rect x="7.2" y="63.8" class="st3" width="1.4" height="1.4"/>
		<rect x="30.1" y="99.6" class="st8" width="1.4" height="2.9"/>
		<rect x="35.8" y="105.3" class="st0" width="1.4" height="2.9"/>
		<rect x="34.3" y="102.4" class="st0" width="1.4" height="2.9"/>
		<rect x="31.5" y="96.7" class="st9" width="1.4" height="2.9"/>
		<rect x="32.9" y="102.4" class="st8" width="195.6" height="8.6"/>
		<rect x="32.9" y="108.1" class="st1" width="195.6" height="2.9"/>
		<rect x="30.1" y="93.8" class="st9" width="2.9" height="2.9"/>
		<rect x="28.6" y="91" class="st0" width="4.3" height="2.9"/>
		<rect x="27.2" y="88.1" class="st0" width="5.7" height="2.9"/>
		<rect x="25.8" y="85.3" class="st0" width="7.2" height="2.9"/>
		<rect x="22.9" y="81" class="st0" width="10" height="2.9"/>
		<rect x="21.5" y="79.5" class="st0" width="11.4" height="1.4"/>
		<rect x="24.3" y="83.8" class="st0" width="8.6" height="1.4"/>
		<rect x="20" y="76.7" class="st0" width="12.9" height="2.9"/>
		<rect x="18.6" y="75.2" class="st0" width="14.3" height="1.4"/>
		<rect x="17.2" y="72.4" class="st0" width="15.7" height="2.9"/>
		<rect x="15.7" y="70.9" class="st0" width="17.2" height="1.4"/>
		<rect x="227.1" y="102.4" class="st1" width="1.5" height="5.7"/>
		<rect x="14.3" y="69.5" class="st0" width="28.6" height="1.4"/>
		<rect x="12.9" y="68.1" class="st0" width="28.6" height="1.4"/>
		<rect x="11.4" y="66.6" class="st0" width="28.6" height="1.4"/>
		<g>
			<rect x="19.3" y="68.1" class="st2" width="2.9" height="2.9"/>
			<g>
				<rect x="19.3" y="66.6" width="2.9" height="1.4"/>
			</g>
			<g>
				<rect x="19.3" y="70.9" width="2.9" height="1.4"/>
			</g>
			<g>
				<rect x="17.9" y="68.1" width="1.4" height="2.9"/>
			</g>
			<g>
				<rect x="22.2" y="68.1" width="1.4" height="2.9"/>
			</g>
		</g>
		<g>
			<rect x="58.5" y="76.8" class="st2" width="2.9" height="2.9"/>
			<g>
				<rect x="58.5" y="75.4" width="2.9" height="1.4"/>
			</g>
			<g>
				<rect x="58.5" y="79.7" width="2.9" height="1.4"/>
			</g>
			<g>
				<rect x="57.1" y="76.8" width="1.4" height="2.9"/>
			</g>
			<g>
				<rect x="61.4" y="76.8" width="1.4" height="2.9"/>
			</g>
		</g>
		<g>
			<rect x="79.6" y="76.8" class="st2" width="2.9" height="2.9"/>
			<g>
				<rect x="79.6" y="75.4" width="2.9" height="1.4"/>
			</g>
			<g>
				<rect x="79.6" y="79.7" width="2.9" height="1.4"/>
			</g>
			<g>
				<rect x="78.1" y="76.8" width="1.4" height="2.9"/>
			</g>
			<g>
				<rect x="82.4" y="76.8" width="1.4" height="2.9"/>
			</g>
		</g>
		<g>
			<rect x="100.6" y="76.8" class="st2" width="2.9" height="2.9"/>
			<g>
				<rect x="100.6" y="75.4" width="2.9" height="1.4"/>
			</g>
			<g>
				<rect x="100.6" y="79.7" width="2.9" height="1.4"/>
			</g>
			<g>
				<rect x="99.2" y="76.8" width="1.4" height="2.9"/>
			</g>
			<g>
				<rect x="103.5" y="76.8" width="1.4" height="2.9"/>
			</g>
		</g>
		<g>
			<rect x="121.7" y="76.8" class="st2" width="2.9" height="2.9"/>
			<g>
				<rect x="121.7" y="75.4" width="2.9" height="1.4"/>
			</g>
			<g>
				<rect x="121.7" y="79.7" width="2.9" height="1.4"/>
			</g>
			<g>
				<rect x="120.2" y="76.8" width="1.4" height="2.9"/>
			</g>
			<g>
				<rect x="124.5" y="76.8" width="1.4" height="2.9"/>
			</g>
		</g>
		<g>
			<rect x="142.7" y="76.8" class="st2" width="2.9" height="2.9"/>
			<g>
				<rect x="142.7" y="75.4" width="2.9" height="1.4"/>
			</g>
			<g>
				<rect x="142.7" y="79.7" width="2.9" height="1.4"/>
			</g>
			<g>
				<rect x="141.3" y="76.8" width="1.4" height="2.9"/>
			</g>
			<g>
				<rect x="145.6" y="76.8" width="1.4" height="2.9"/>
			</g>
		</g>
		<g>
			<rect x="163.8" y="76.8" class="st2" width="2.9" height="2.9"/>
			<g>
				<rect x="163.8" y="75.4" width="2.9" height="1.4"/>
			</g>
			<g>
				<rect x="163.8" y="79.7" width="2.9" height="1.4"/>
			</g>
			<g>
				<rect x="162.3" y="76.8" width="1.4" height="2.9"/>
			</g>
			<g>
				<rect x="166.6" y="76.8" width="1.4" height="2.9"/>
			</g>
		</g>
		<g>
			<rect x="184.8" y="76.8" class="st2" width="2.9" height="2.9"/>
			<g>
				<rect x="184.8" y="75.4" width="2.9" height="1.4"/>
			</g>
			<g>
				<rect x="184.8" y="79.7" width="2.9" height="1.4"/>
			</g>
			<g>
				<rect x="183.4" y="76.8" width="1.4" height="2.9"/>
			</g>
			<g>
				<rect x="187.7" y="76.8" width="1.4" height="2.9"/>
			</g>
		</g>
		<g>
			<rect x="205.9" y="76.8" class="st2" width="2.9" height="2.9"/>
			<g>
				<rect x="205.9" y="75.4" width="2.9" height="1.4"/>
			</g>
			<g>
				<rect x="205.9" y="79.7" width="2.9" height="1.4"/>
			</g>
			<g>
				<rect x="204.4" y="76.8" width="1.4" height="2.9"/>
			</g>
			<g>
				<rect x="208.7" y="76.8" width="1.4" height="2.9"/>
			</g>
		</g>
		<rect x="10" y="65.2" class="st0" width="7.2" height="1.4"/>
		<rect x="8.6" y="63.8" class="st0" width="4.3" height="1.4"/>
		<rect x="32.9" y="99.6" class="st8" width="1.4" height="2.9"/>
		<rect x="31.5" y="99.6" class="st8" width="1.4" height="2.9"/>
		<rect x="24.3" y="96.7" width="1.4" height="2.9"/>
		<rect x="22.9" y="93.8" width="1.4" height="2.9"/>
		<rect x="21.5" y="91" width="1.4" height="2.9"/>
		<rect x="20" y="88.1" width="1.4" height="2.9"/>
		<rect x="18.6" y="85.3" width="1.4" height="2.9"/>
		<rect x="15.7" y="81" width="1.4" height="2.9"/>
		<rect x="14.3" y="79.5" width="1.4" height="1.4"/>
		<rect x="17.2" y="83.8" width="1.4" height="1.4"/>
		<rect x="12.9" y="76.7" width="1.4" height="2.9"/>
		<rect x="11.4" y="75.2" width="1.4" height="1.4"/>
		<rect x="10" y="72.4" width="1.4" height="2.9"/>
		<rect x="8.6" y="70.9" width="1.4" height="1.4"/>
		<rect x="7.2" y="69.5" width="1.4" height="1.4"/>
		<rect x="5.7" y="68.1" width="1.4" height="1.4"/>
		<rect x="4.3" y="66.6" width="1.4" height="1.4"/>
		<rect x="2.9" y="65.2" width="1.4" height="1.4"/>
		<rect x="1.4" y="63.8" width="1.4" height="1.4"/>
		<rect y="62.4" width="1.4" height="1.4"/>
	</g>
	<g>
		<path class="st10" d="M35.6,86.8v-0.3h0.8h0.8v0.3v0.3h0.3h0.3v0.3v0.3h0.3h0.3v1.3v1.3h-0.5h-0.5v-0.5v-0.5h-0.8h-0.8v0.5v0.5
			h-0.5h-0.5v-1.3v-1.3h0.3h0.3v-0.3v-0.3h0.3h0.3V86.8z M36.6,87.3v-0.3h-0.3h-0.3v0.3v0.3h-0.3h-0.3v0.5v0.5h0.8h0.8v-0.5v-0.5
			h-0.3h-0.3V87.3z"/>
		<path class="st10" d="M38.6,86.8v-0.3h1.8h1.8v0.5v0.5h-0.3h-0.3v0.3v0.3h-0.3h-0.3v0.3v0.3h-0.3h-0.3v0.3v0.3h-0.3h-0.3v0.3v0.3
			h1h1v0.3v0.3h-1.8h-1.8v-0.5v-0.5h0.3h0.3v-0.3v-0.3h0.3h0.3v-0.3v-0.3h0.3h0.3v-0.3v-0.3h0.3h0.3v-0.3v-0.3h-1h-1V86.8z"/>
		<path class="st10" d="M42.6,88.1v-1.5h0.5h0.5v1.5v1.5h0.8h0.8v-1.5v-1.5h0.5h0.5v1.5v1.5h-0.3h-0.3v0.3v0.3h-1.3h-1.3v-0.3v-0.3
			h-0.3h-0.3V88.1z"/>
		<path class="st10" d="M46.6,88.3v-1.8h1.5h1.5v0.3v0.3h0.3h0.3v0.8v0.8h-0.5h-0.5v0.3v0.3h0.3h0.3v0.3v0.3h0.3h0.3v0.3v0.3h-0.8
			h-0.8v-0.3v-0.3h-0.3h-0.3v-0.3v-0.3h-0.3h-0.3v0.5v0.5h-0.5h-0.5V88.3z M49.1,87.6v-0.5h-0.8h-0.8v0.8v0.8h0.5h0.5v-0.3v-0.3h0.3
			h0.3V87.6z"/>
		<path class="st10" d="M50.6,88.3v-1.8h1.8h1.8v0.3v0.3h-1.3h-1.3v0.5v0.5h1h1v0.3v0.3h-1h-1v0.5v0.5h1.3h1.3v0.3v0.3h-1.8h-1.8
			V88.3z"/>
		<path class="st10" d="M59.6,86.8v-0.3h1h1v0.3v0.3h0.3h0.3v0.3v0.3h-0.5h-0.5v-0.3v-0.3h-0.5h-0.5v0.3v0.3h-0.3h-0.3v0.8v0.8h0.3
			h0.3v0.3v0.3h0.5h0.5v-0.3v-0.3h0.5h0.5v0.3v0.3h-0.3h-0.3v0.3v0.3h-1h-1v-0.3v-0.3h-0.3h-0.3v-0.3v-0.3h-0.3h-0.3v-0.8v-0.8h0.3
			h0.3v-0.3v-0.3h0.3h0.3V86.8z"/>
		<path class="st10" d="M63.1,86.8v-0.3h1.3h1.3v0.3v0.3h0.3h0.3v1.3v1.3h-0.3h-0.3v0.3v0.3h-1.3h-1.3v-0.3v-0.3h-0.3h-0.3v-1.3
			v-1.3h0.3h0.3V86.8z M65.1,88.3v-1.3h-0.8h-0.8v1.3v1.3h0.8h0.8V88.3z"/>
		<path class="st10" d="M66.6,88.3v-1.8h0.5h0.5v0.3v0.3h0.3h0.3v0.3v0.3h0.3h0.3v0.3v0.3h0.3h0.3v-0.8v-0.8h0.5h0.5v1.8v1.8h-0.5
			h-0.5v-0.3v-0.3h-0.3h-0.3v-0.3v-0.3h-0.3h-0.3v-0.3v-0.3h-0.3h-0.3v0.8v0.8h-0.5h-0.5V88.3z"/>
		<path class="st10" d="M71.1,86.8v-0.3h1.5h1.5v0.3v0.3h-0.5h-0.5v1.5v1.5h-0.5h-0.5v-1.5v-1.5h-0.5h-0.5V86.8z"/>
		<path class="st10" d="M75.6,86.8v-0.3h0.8h0.8v0.3v0.3h0.3h0.3v0.3v0.3h0.3h0.3v1.3v1.3h-0.5h-0.5v-0.5v-0.5h-0.8h-0.8v0.5v0.5
			h-0.5h-0.5v-1.3v-1.3h0.3h0.3v-0.3v-0.3h0.3h0.3V86.8z M76.6,87.3v-0.3h-0.3h-0.3v0.3v0.3h-0.3h-0.3v0.5v0.5h0.8h0.8v-0.5v-0.5
			h-0.3h-0.3V87.3z"/>
		<path class="st10" d="M79.1,86.8v-0.3h1.5h1.5v0.3v0.3h-0.5h-0.5v1.3v1.3h0.5h0.5v0.3v0.3h-1.5h-1.5v-0.3v-0.3h0.5h0.5v-1.3v-1.3
			h-0.5h-0.5V86.8z"/>
		<path class="st10" d="M82.6,88.3v-1.8h0.5h0.5v0.3v0.3h0.3h0.3v0.3v0.3h0.3h0.3v0.3v0.3h0.3h0.3v-0.8v-0.8h0.5h0.5v1.8v1.8h-0.5
			h-0.5v-0.3v-0.3h-0.3h-0.3v-0.3v-0.3h-0.3h-0.3v-0.3v-0.3h-0.3h-0.3v0.8v0.8h-0.5h-0.5V88.3z"/>
		<path class="st10" d="M86.6,88.3v-1.8h1.8h1.8v0.3v0.3h-1.3h-1.3v0.5v0.5h1h1v0.3v0.3h-1h-1v0.5v0.5h1.3h1.3v0.3v0.3h-1.8h-1.8
			V88.3z"/>
		<path class="st10" d="M90.7,88.3v-1.8h1.5h1.5v0.3v0.3h0.3h0.3v0.8v0.8h-0.5h-0.5v0.3v0.3h0.3h0.3v0.3v0.3h0.3h0.3v0.3v0.3h-0.8
			h-0.8v-0.3v-0.3h-0.3h-0.3v-0.3v-0.3h-0.3h-0.3v0.5v0.5h-0.5h-0.5V88.3z M93.2,87.6v-0.5h-0.8h-0.8v0.8v0.8h0.5h0.5v-0.3v-0.3h0.3
			h0.3V87.6z"/>
		<path class="st10" d="M99.2,86.8v-0.3h1h1v0.3v0.3h0.3h0.3v0.3v0.3h-0.5h-0.5v-0.3v-0.3h-0.5h-0.5v0.5v0.5h1h1v0.3v0.3h0.3h0.3
			v0.5v0.5h-0.3h-0.3v0.3v0.3h-1.3h-1.3v-0.3v-0.3h-0.3h-0.3v-0.3v-0.3h0.5h0.5v0.3v0.3h0.8h0.8v-0.5v-0.5h-1h-1v-0.3v-0.3h-0.3
			h-0.3v-0.5v-0.5h0.3h0.3V86.8z"/>
		<path class="st10" d="M102.7,88.3v-1.8h1.8h1.8v0.3v0.3h-1.3h-1.3v0.5v0.5h1h1v0.3v0.3h-1h-1v0.5v0.5h1.3h1.3v0.3v0.3h-1.8h-1.8
			V88.3z"/>
		<path class="st10" d="M106.7,88.3v-1.8h1.5h1.5v0.3v0.3h0.3h0.3v0.8v0.8h-0.5h-0.5v0.3v0.3h0.3h0.3v0.3v0.3h0.3h0.3v0.3v0.3h-0.8
			h-0.8v-0.3v-0.3h-0.3h-0.3v-0.3v-0.3h-0.3h-0.3v0.5v0.5h-0.5h-0.5V88.3z M109.2,87.6v-0.5h-0.8h-0.8v0.8v0.8h0.5h0.5v-0.3v-0.3
			h0.3h0.3V87.6z"/>
		<path class="st10" d="M110.7,87.6v-1h0.5h0.5v0.8v0.8h0.3h0.3v0.3v0.3h0.3h0.3v-0.3v-0.3h0.3h0.3v-0.8v-0.8h0.5h0.5v1v1h-0.3h-0.3
			v0.3v0.3h-0.3h-0.3v0.3v0.3h-0.3h-0.3v0.3v0.3h-0.3h-0.3v-0.3v-0.3h-0.3h-0.3v-0.3v-0.3h-0.3h-0.3v-0.3v-0.3h-0.3h-0.3V87.6z"/>
		<path class="st10" d="M115.2,86.8v-0.3h1.5h1.5v0.3v0.3h-0.5h-0.5v1.3v1.3h0.5h0.5v0.3v0.3h-1.5h-1.5v-0.3v-0.3h0.5h0.5v-1.3v-1.3
			h-0.5h-0.5V86.8z"/>
		<path class="st10" d="M119.7,86.8v-0.3h1h1v0.3v0.3h0.3h0.3v0.3v0.3h-0.5h-0.5v-0.3v-0.3h-0.5h-0.5v0.3v0.3H120h-0.3v0.8v0.8h0.3
			h0.3v0.3v0.3h0.5h0.5v-0.3v-0.3h0.5h0.5v0.3v0.3H122h-0.3v0.3v0.3h-1h-1v-0.3v-0.3h-0.3h-0.3v-0.3v-0.3H119h-0.3v-0.8v-0.8h0.3
			h0.3v-0.3v-0.3h0.3h0.3V86.8z"/>
		<path class="st10" d="M122.7,88.3v-1.8h1.8h1.8v0.3v0.3H125h-1.3v0.5v0.5h1h1v0.3v0.3h-1h-1v0.5v0.5h1.3h1.3v0.3v0.3h-1.8h-1.8
			V88.3z"/>
		<path class="st10" d="M127.2,86.8v-0.3h1h1v0.3v0.3h0.3h0.3v0.3v0.3h-0.5h-0.5v-0.3v-0.3h-0.5h-0.5v0.5v0.5h1h1v0.3v0.3h0.3h0.3
			v0.5v0.5H130h-0.3v0.3v0.3h-1.3h-1.3v-0.3v-0.3H127h-0.3v-0.3v-0.3h0.5h0.5v0.3v0.3h0.8h0.8v-0.5v-0.5h-1h-1v-0.3v-0.3H127h-0.3
			v-0.5v-0.5h0.3h0.3V86.8z"/>
	</g>
</g>
</svg>
