<svg xmlns="http://www.w3.org/2000/svg" viewBox="0 0 1491.91 125.1"><defs><style>.cls-1{fill:#ddd;}.cls-2{fill:#444;}.cls-3{fill:#7c7c7c;}.cls-4{fill:#4ea829;}.cls-5{fill:#fff;}.cls-6{fill:#8ad169;}.cls-7{fill:#38721d;}</style></defs><defs>
<style type="text/css">@import url('http://fonts.googleapis.com/css?family=Press+Start+2P');</style>
</defs><title>input</title><g id="Layer_2" data-name="Layer 2"><g id="_2nd_screen" data-name="2nd screen"><rect class="cls-1" x="25" y="24.94" width="1050.77" height="70.11"/><rect class="cls-1" x="5" y="5" width="1090.77" height="5"/><rect class="cls-2" x="20" y="15" width="1065.77" height="5"/><rect class="cls-3" x="10" y="10" width="1080.77" height="5"/><rect x="20" y="20" width="1055.77" height="5"/><rect class="cls-3" x="20" y="24.94" width="1055.77" height="5"/><rect x="5" width="1090.77" height="5"/><rect class="cls-1" x="15" y="100.05" width="1065.77" height="5"/><rect class="cls-2" x="5" y="110.05" width="1085.77" height="5"/><rect class="cls-3" x="15" y="105.05" width="1070.77" height="5"/><rect x="5" y="115.05" width="1095.77" height="5"/><rect x="5" y="120.05" width="1095.77" height="5"/><rect x="25" y="95.05" width="1050.77" height="5"/><rect class="cls-1" x="5" y="10" width="5" height="100.05"/><rect class="cls-2" x="15" y="15" width="5" height="85.05"/><rect class="cls-3" x="10" y="15" width="5" height="95.05"/><rect class="cls-3" x="25" y="24.94" width="5" height="70.11"/><rect x="20" y="24.94" width="5" height="75.11"/><rect y="5" width="5" height="110.05"/><rect class="cls-1" x="1080.77" y="20" width="5" height="85.05"/><rect class="cls-2" x="1090.77" y="10" width="5" height="105.05"/><rect class="cls-3" x="1085.77" y="15" width="5" height="95.05"/><rect x="1095.77" y="5" width="5" height="110.05"/><rect x="1100.77" y="10" width="5" height="110.05"/><rect x="1075.77" y="20" width="5" height="80.05"/></g><g id="play"><rect class="cls-4" x="1109.25" y="15.1" width="362.66" height="90.63"/><rect x="1099.27" y="115.5" width="382.63" height="4.91"/><rect x="1104.29" y="120.18" width="382.63" height="4.91"/><rect class="cls-6" x="1048.94" y="55.41" width="110.63" height="10" transform="translate(1164.67 -1043.84) rotate(90)"/><rect class="cls-7" x="1094.27" y="105.73" width="387.64" height="10"/><rect x="1099.27" y="0.1" width="382.63" height="5"/><rect x="1094.27" y="5.1" width="5" height="115.36"/><rect class="cls-7" x="1421.6" y="55.41" width="110.63" height="10" transform="translate(1416.5 1537.33) rotate(-90)"/><rect class="cls-6" x="1099.25" y="5.1" width="387.64" height="10" transform="translate(2586.15 20.19) rotate(180)"/><rect x="1481.9" y="5.1" width="5" height="115.09"/><rect x="1486.91" y="10.1" width="5" height="110.09"/><rect class="cls-7" x="1471.91" y="10.1" width="5" height="5" transform="translate(1461.82 1487.01) rotate(-90)"/><rect class="cls-7" x="1474.41" y="7.6" width="10" height="5" transform="translate(1469.32 1489.51) rotate(-90)"/><rect class="cls-6" x="1104.25" y="105.73" width="5" height="5" transform="translate(1214.98 -998.52) rotate(90)"/><rect class="cls-6" x="1096.75" y="108.23" width="10" height="5" transform="translate(1212.48 -991.02) rotate(90)"/></g></g><text x="1190" y="85" font-size="50" fill="#fff" font-family="'Press Start 2P'">Play</text></svg>