<svg xmlns="http://www.w3.org/2000/svg" viewBox="0 0 1105 375"><defs><style>.cls-1{fill:#ddd;}.cls-2{fill:#444;}.cls-3{fill:#7c7c7c;}.cls-4{font-size:18px;font-family:PressStart2P-Regular, PressStart2P Regular;}.cls-5{letter-spacing:-0.01em;}.cls-6{letter-spacing:-0.01em;}.cls-7{letter-spacing:-0.01em;}.cls-8{letter-spacing:-0.01em;}.cls-9{letter-spacing:0.01em;}.cls-10{fill:#2de836;}.cls-11{fill:#4ea829;}.cls-12{fill:#8ad169;}.cls-13{fill:#38721d;}</style></defs><title>nodowntime</title><g id="Layer_2" data-name="Layer 2"><g id="Layer_24_copy" data-name="Layer 24 copy"><rect class="cls-1" x="25" y="25" width="1050" height="290"/><rect class="cls-1" x="5" y="5" width="1090" height="5"/><rect class="cls-2" x="20" y="15" width="1065" height="5"/><rect class="cls-3" x="10" y="10" width="1080" height="5"/><rect x="20" y="20" width="1055" height="5"/><rect class="cls-3" x="20" y="25" width="1055" height="5"/><rect x="5" width="1090" height="5"/><rect class="cls-1" x="15" y="320" width="1065" height="5"/><rect class="cls-2" x="5" y="330" width="1085" height="5"/><rect class="cls-3" x="15" y="325" width="1070" height="5"/><rect x="5" y="335" width="1095" height="5"/><rect x="5" y="340" width="1095" height="5"/><rect x="25" y="315" width="1050" height="5"/><rect class="cls-1" x="5" y="10" width="5" height="320"/><rect class="cls-2" x="15" y="15" width="5" height="305"/><rect class="cls-3" x="10" y="15" width="5" height="315"/><rect class="cls-3" x="25" y="25" width="5" height="290"/><rect x="20" y="25" width="5" height="295"/><rect y="5" width="5" height="330"/><rect class="cls-1" x="1080" y="20" width="5" height="305"/><rect class="cls-2" x="1090" y="10" width="5" height="325"/><rect class="cls-3" x="1085" y="15" width="5" height="315"/><rect x="1095" y="5" width="5" height="330"/><rect x="1100" y="10" width="5" height="330"/><rect x="1075" y="20" width="5" height="300"/><text class="cls-4" transform="translate(395.74 219.58)"><tspan class="cls-5">T</tspan><tspan x="8.82" y="0">hank </tspan><tspan class="cls-6" x="49.73" y="0">y</tspan><tspan x="58.03" y="0">ou </tspan><tspan class="cls-7" x="81.65" y="0">f</tspan><tspan x="86.67" y="0">or pl</tspan><tspan class="cls-8" x="120.74" y="0">a</tspan><tspan x="129.27" y="0">ying </tspan><tspan class="cls-9" x="165.83" y="0">M</tspan><tspan x="180.41" y="0">aximum Uptime!</tspan></text><path class="cls-10" d="M104,164.59V123.71H139.8v5.13h5.13v15.25H139.8v.13h5.13v15.25H139.8v5.13Zm25.63-10.12v-5.25H119.3v5.25Zm0-15.37v-5.25H119.3v5.25Z"/><path d="M137.3,126.21v5.13h5.13v10.25H137.3v5.13h5.13V157H137.3v5.13H106.55V126.21H137.3m-20.5,15.38h15.38V131.34H116.8v10.25m0,15.38h15.38V146.71H116.8V157m25.5-35.75H101.55v45.88H142.3V162h5.13V126.34H142.3v-5.12Zm-20.5,15.13h5.38v.25H121.8v-.25Zm0,15.38h5.38V152H121.8v-.25Z"/><polygon class="cls-10" points="145.05 164.59 145.05 123.71 185.92 123.71 185.92 133.84 160.3 133.84 160.3 139.09 180.8 139.09 180.8 149.21 160.3 149.21 160.3 154.46 185.92 154.46 185.92 164.59 145.05 164.59"/><path d="M183.42,126.21v5.13H157.8v10.25h20.5v5.13H157.8V157h25.63v5.13H147.55V126.21h35.88m5-5H142.55v45.88h45.88V152H162.8v-.25h20.5V136.59H162.8v-.25h25.63V121.21Z"/><polygon class="cls-10" points="197.42 164.59 197.42 133.84 187.17 133.84 187.17 123.71 222.92 123.71 222.92 133.84 212.67 133.84 212.67 164.59 197.42 164.59"/><path d="M220.42,126.21v5.13H210.17v30.75H199.92V131.34H189.67v-5.12h30.75m5-5H184.67v15.13h10.25v30.75h20.25V136.34h10.25V121.21Z"/><polygon class="cls-10" points="235.42 164.59 235.42 133.84 225.17 133.84 225.17 123.71 260.92 123.71 260.92 133.84 250.67 133.84 250.67 164.59 235.42 164.59"/><path d="M258.42,126.21v5.13H248.17v30.75H237.92V131.34H227.67v-5.12h30.75m5-5H222.67v15.13h10.25v30.75h20.25V136.34h10.25V121.21Z"/><polygon class="cls-10" points="261.05 164.59 261.05 123.71 301.92 123.71 301.92 133.84 276.3 133.84 276.3 139.09 296.8 139.09 296.8 149.21 276.3 149.21 276.3 154.46 301.92 154.46 301.92 164.59 261.05 164.59"/><path d="M299.42,126.21v5.13H273.8v10.25h20.5v5.13H273.8V157h25.63v5.13H263.55V126.21h35.88m5-5H258.55v45.88h45.88V152H278.8v-.25h20.5V136.59H278.8v-.25h25.63V121.21Z"/><path class="cls-10" d="M322.55,164.59v-5.12h-5.12v-5.12h-.12v10.25H302V123.71H337.8v5.13h5.13v20.38H332.67v.13h5.13v5.13h5.13v10.13Zm0-20.37v-5.12h5.13v-5.25H317.3v10.38Z"/><path d="M335.3,126.21v5.13h5.13v15.38H330.17v5.13h5.13V157h5.13v5.13H325V157h-5.12v-5.12H314.8v10.25H304.55V126.21H335.3m-20.5,20.5H325v-5.12h5.13V131.34H314.8v15.38m25.5-25.5H299.55v45.88H319.8V162H320v5.13h25.38V152H340.3v-.25h5.13V126.34H340.3v-5.12Zm-20.5,15.13h5.38v.25H320v5.13h-.25v-5.38Z"/><polygon class="cls-10" points="389.17 164.59 389.17 123.71 404.42 123.71 404.42 154.46 424.92 154.46 424.92 164.59 389.17 164.59"/><path d="M401.92,126.21V157h20.5v5.13H391.67V126.21h10.25m5-5H386.67v45.88h40.75V152h-20.5V121.21Z"/><polygon class="cls-10" points="430.17 164.59 430.17 159.46 425.05 159.46 425.05 123.71 440.3 123.71 440.3 154.46 450.67 154.46 450.67 123.71 465.92 123.71 465.92 159.46 460.8 159.46 460.8 164.59 430.17 164.59"/><path d="M463.42,126.21V157H458.3v5.13H432.67V157h-5.12V126.21H437.8V157h15.38V126.21h10.25m5-5H448.17V152H442.8V121.21H422.55V162h5.13v5.13H463.3V162h5.13V121.21Z"/><polygon class="cls-10" points="476.3 164.59 476.3 159.46 471.17 159.46 471.17 154.34 466.05 154.34 466.05 133.96 471.17 133.96 471.17 128.84 476.3 128.84 476.3 123.71 501.8 123.71 501.8 128.84 506.92 128.84 506.92 138.96 491.67 138.96 491.67 133.84 486.42 133.84 486.42 138.96 481.3 138.96 481.3 149.34 486.42 149.34 486.42 154.46 491.67 154.46 491.67 149.34 506.92 149.34 506.92 159.46 501.8 159.46 501.8 164.59 476.3 164.59"/><path d="M499.3,126.21v5.13h5.13v5.13H494.17v-5.13H483.92v5.13H478.8v15.38h5.13V157h10.25v-5.12h10.25V157H499.3v5.13H478.8V157h-5.12v-5.12h-5.12V136.46h5.13v-5.13h5.13v-5.12h20.5m5-5H473.8v5.13h-5.12v5.13h-5.12v25.38h5.13V162h5.13v5.13h30.5V162h5.13V146.84H489.17V152h-.25v-5.12H483.8v-5.37h5.13v-5.13h.25v5.13h20.25V126.34H504.3v-5.12Z"/><polygon class="cls-10" points="527.55 164.59 527.55 159.46 522.42 159.46 522.42 154.34 522.3 154.34 522.3 164.59 507.05 164.59 507.05 123.71 522.3 123.71 522.3 139.09 522.42 139.09 522.42 133.96 527.55 133.96 527.55 128.84 532.67 128.84 532.67 123.71 547.92 123.71 547.92 133.84 542.8 133.84 542.8 138.96 537.67 138.96 537.67 144.09 532.55 144.09 532.55 144.21 537.67 144.21 537.67 149.34 542.8 149.34 542.8 154.46 547.92 154.46 547.92 164.59 527.55 164.59"/><path d="M545.42,126.21v5.13H540.3v5.13h-5.12v5.13H530v5.13h5.13v5.13h5.13V157h5.13v5.13H530V157h-5.12v-5.12H519.8v10.25H509.55V126.21H519.8v15.38h5.13v-5.12H530v-5.13h5.13v-5.12h10.25m5-5H530.17v5.13H525v5.13h-.25V121.21H504.55v45.88H524.8V162H525v5.13h25.38V152H545.3v-5.12h-5.12v-5.37h5.13v-5.13h5.13V121.21Z"/><polygon class="cls-10" points="614.67 164.59 614.67 159.46 609.55 159.46 609.55 154.34 604.42 154.34 604.42 149.21 604.3 149.21 604.3 164.59 589.05 164.59 589.05 123.71 604.3 123.71 604.3 128.84 609.42 128.84 609.42 133.96 614.55 133.96 614.55 139.09 614.67 139.09 614.67 123.71 629.92 123.71 629.92 164.59 614.67 164.59"/><path d="M627.42,126.21v35.88H617.17V157H612v-5.12h-5.12v-5.12H601.8v15.38H591.55V126.21H601.8v5.13h5.13v5.13H612v5.13h5.13V126.21h10.25m5-5H612.17v10.25h-.25v-5.13H606.8v-5.12H586.55v45.88H606.8V156.84H607V162h5.13v5.13h20.25V121.21Z"/><polygon class="cls-10" points="630.05 164.59 630.05 123.71 670.92 123.71 670.92 133.84 645.3 133.84 645.3 139.09 665.8 139.09 665.8 149.21 645.3 149.21 645.3 154.46 670.92 154.46 670.92 164.59 630.05 164.59"/><path d="M668.42,126.21v5.13H642.8v10.25h20.5v5.13H642.8V157h25.63v5.13H632.55V126.21h35.88m5-5H627.55v45.88h45.88V152H647.8v-.25h20.5V136.59H647.8v-.25h25.63V121.21Z"/><polygon class="cls-10" points="696.67 164.59 696.67 159.46 691.55 159.46 691.55 154.34 691.42 154.34 691.42 159.46 686.3 159.46 686.3 164.59 671.05 164.59 671.05 149.34 676.17 149.34 676.17 144.21 681.3 144.21 681.3 144.09 676.17 144.09 676.17 138.96 671.05 138.96 671.05 123.71 686.3 123.71 686.3 128.84 691.42 128.84 691.42 133.96 691.55 133.96 691.55 128.84 696.67 128.84 696.67 123.71 711.92 123.71 711.92 138.96 706.8 138.96 706.8 144.09 701.67 144.09 701.67 144.21 706.8 144.21 706.8 149.34 711.92 149.34 711.92 164.59 696.67 164.59"/><path d="M709.42,126.21v10.25H704.3v5.13h-5.12v5.13h5.13v5.13h5.13v10.25H699.17V157H694v-5.12h-5.12V157H683.8v5.13H673.55V151.84h5.13v-5.12h5.13v-5.12h-5.12v-5.12h-5.12V126.21H683.8v5.13h5.13v5.13H694v-5.13h5.13v-5.12h10.25m5-5H694.17v5.13H688.8v-5.12H668.55v20.25h5.13v5.38h-5.12v20.25H688.8V162h5.38v5.13h20.25V146.84H709.3v-5.37h5.13V121.21Z"/><polygon class="cls-10" points="724.42 164.59 724.42 133.84 714.17 133.84 714.17 123.71 749.92 123.71 749.92 133.84 739.67 133.84 739.67 164.59 724.42 164.59"/><path d="M747.42,126.21v5.13H737.17v30.75H726.92V131.34H716.67v-5.12h30.75m5-5H711.67v15.13h10.25v30.75h20.25V136.34h10.25V121.21Z"/><polygon class="cls-10" points="806.42 164.59 806.42 133.84 796.17 133.84 796.17 123.71 831.92 123.71 831.92 133.84 821.67 133.84 821.67 164.59 806.42 164.59"/><path d="M829.42,126.21v5.13H819.17v30.75H808.92V131.34H798.67v-5.12h30.75m5-5H793.67v15.13h10.25v30.75h20.25V136.34h10.25V121.21Z"/><polygon class="cls-10" points="834.17 164.59 834.17 154.46 844.42 154.46 844.42 133.84 834.17 133.84 834.17 123.71 869.92 123.71 869.92 133.84 859.67 133.84 859.67 154.46 869.92 154.46 869.92 164.59 834.17 164.59"/><path d="M867.42,126.21v5.13H857.17V157h10.25v5.13H836.67V157h10.25V131.34H836.67v-5.12h30.75m5-5H831.67v15.13h10.25V152H831.67v15.13h40.75V152H862.17V136.34h10.25V121.21Z"/><polygon class="cls-10" points="895.67 164.59 895.67 149.21 895.55 149.21 895.55 154.34 885.42 154.34 885.42 149.21 885.3 149.21 885.3 164.59 870.05 164.59 870.05 123.71 885.3 123.71 885.3 128.84 890.42 128.84 890.42 133.96 890.55 133.96 890.55 128.84 895.67 128.84 895.67 123.71 910.92 123.71 910.92 164.59 895.67 164.59"/><path d="M908.42,126.21v35.88H898.17V146.71H893v5.13h-5.12v-5.12H882.8v15.38H872.55V126.21H882.8v5.13h5.13v5.13H893v-5.13h5.13v-5.12h10.25m5-5H893.17v5.13H887.8v-5.12H867.55v45.88H887.8V156.84h5.38v10.25h20.25V121.21Z"/><polygon class="cls-10" points="911.05 164.59 911.05 123.71 951.92 123.71 951.92 133.84 926.3 133.84 926.3 139.09 946.8 139.09 946.8 149.21 926.3 149.21 926.3 154.46 951.92 154.46 951.92 164.59 911.05 164.59"/><path d="M949.42,126.21v5.13H923.8v10.25h20.5v5.13H923.8V157h25.63v5.13H913.55V126.21h35.88m5-5H908.55v45.88h45.88V152H928.8v-.25h20.5V136.59H928.8v-.25h25.63V121.21Z"/><path class="cls-10" d="M962.3,164.59V154.46h15.25v10.13Zm0-10.25V123.71h20.38v20.38h-5.12v10.25Z"/><path d="M980.17,126.21v15.38H975v10.25H964.8V126.21h15.38M975,157v5.13H964.8V157H975m10.13-35.75H959.8v45.88H980v-20.5h5.13V121.21Z"/><path class="cls-10" d="M99,159.59V118.71H134.8v5.13h5.13v15.25H134.8v.13h5.13v15.25H134.8v5.13Zm25.63-10.12v-5.25H114.3v5.25Zm0-15.37v-5.25H114.3v5.25Z"/><path d="M132.3,121.21v5.13h5.13v10.25H132.3v5.13h5.13V152H132.3v5.13H101.55V121.21H132.3m-20.5,15.38h15.38V126.34H111.8v10.25m0,15.38h15.38V141.71H111.8V152m25.5-35.75H96.55v45.88H137.3V157h5.13V121.34H137.3v-5.12Zm-20.5,15.13h5.38v.25H116.8v-.25Zm0,15.38h5.38V147H116.8v-.25Z"/><polygon class="cls-10" points="140.05 159.59 140.05 118.71 180.92 118.71 180.92 128.84 155.3 128.84 155.3 134.09 175.8 134.09 175.8 144.21 155.3 144.21 155.3 149.46 180.92 149.46 180.92 159.59 140.05 159.59"/><path d="M178.42,121.21v5.13H152.8v10.25h20.5v5.13H152.8V152h25.63v5.13H142.55V121.21h35.88m5-5H137.55v45.88h45.88V147H157.8v-.25h20.5V131.59H157.8v-.25h25.63V116.21Z"/><polygon class="cls-10" points="192.42 159.59 192.42 128.84 182.17 128.84 182.17 118.71 217.92 118.71 217.92 128.84 207.67 128.84 207.67 159.59 192.42 159.59"/><path d="M215.42,121.21v5.13H205.17v30.75H194.92V126.34H184.67v-5.12h30.75m5-5H179.67v15.13h10.25v30.75h20.25V131.34h10.25V116.21Z"/><polygon class="cls-10" points="230.42 159.59 230.42 128.84 220.17 128.84 220.17 118.71 255.92 118.71 255.92 128.84 245.67 128.84 245.67 159.59 230.42 159.59"/><path d="M253.42,121.21v5.13H243.17v30.75H232.92V126.34H222.67v-5.12h30.75m5-5H217.67v15.13h10.25v30.75h20.25V131.34h10.25V116.21Z"/><polygon class="cls-10" points="256.05 159.59 256.05 118.71 296.92 118.71 296.92 128.84 271.3 128.84 271.3 134.09 291.8 134.09 291.8 144.21 271.3 144.21 271.3 149.46 296.92 149.46 296.92 159.59 256.05 159.59"/><path d="M294.42,121.21v5.13H268.8v10.25h20.5v5.13H268.8V152h25.63v5.13H258.55V121.21h35.88m5-5H253.55v45.88h45.88V147H273.8v-.25h20.5V131.59H273.8v-.25h25.63V116.21Z"/><path class="cls-10" d="M317.55,159.59v-5.12h-5.12v-5.12h-.12v10.25H297V118.71H332.8v5.13h5.13v20.38H327.67v.13h5.13v5.13h5.13v10.13Zm0-20.37v-5.12h5.13v-5.25H312.3v10.38Z"/><path d="M330.3,121.21v5.13h5.13v15.38H325.17v5.13h5.13V152h5.13v5.13H320V152h-5.12v-5.12H309.8v10.25H299.55V121.21H330.3m-20.5,20.5H320v-5.12h5.13V126.34H309.8v15.38m25.5-25.5H294.55v45.88H314.8V157H315v5.13h25.38V147H335.3v-.25h5.13V121.34H335.3v-5.12Zm-20.5,15.13h5.38v.25H315v5.13h-.25v-5.38Z"/><polygon class="cls-10" points="384.17 159.59 384.17 118.71 399.42 118.71 399.42 149.46 419.92 149.46 419.92 159.59 384.17 159.59"/><path d="M396.92,121.21V152h20.5v5.13H386.67V121.21h10.25m5-5H381.67v45.88h40.75V147h-20.5V116.21Z"/><polygon class="cls-10" points="425.17 159.59 425.17 154.46 420.05 154.46 420.05 118.71 435.3 118.71 435.3 149.46 445.67 149.46 445.67 118.71 460.92 118.71 460.92 154.46 455.8 154.46 455.8 159.59 425.17 159.59"/><path d="M458.42,121.21V152H453.3v5.13H427.67V152h-5.12V121.21H432.8V152h15.38V121.21h10.25m5-5H443.17V147H437.8V116.21H417.55V157h5.13v5.13H458.3V157h5.13V116.21Z"/><polygon class="cls-10" points="471.3 159.59 471.3 154.46 466.17 154.46 466.17 149.34 461.05 149.34 461.05 128.96 466.17 128.96 466.17 123.84 471.3 123.84 471.3 118.71 496.8 118.71 496.8 123.84 501.92 123.84 501.92 133.96 486.67 133.96 486.67 128.84 481.42 128.84 481.42 133.96 476.3 133.96 476.3 144.34 481.42 144.34 481.42 149.46 486.67 149.46 486.67 144.34 501.92 144.34 501.92 154.46 496.8 154.46 496.8 159.59 471.3 159.59"/><path d="M494.3,121.21v5.13h5.13v5.13H489.17v-5.13H478.92v5.13H473.8v15.38h5.13V152h10.25v-5.12h10.25V152H494.3v5.13H473.8V152h-5.12v-5.12h-5.12V131.46h5.13v-5.13h5.13v-5.12h20.5m5-5H468.8v5.13h-5.12v5.13h-5.12v25.38h5.13V157h5.13v5.13h30.5V157h5.13V141.84H484.17V147h-.25v-5.12H478.8v-5.37h5.13v-5.13h.25v5.13h20.25V121.34H499.3v-5.12Z"/><polygon class="cls-10" points="522.55 159.59 522.55 154.46 517.42 154.46 517.42 149.34 517.3 149.34 517.3 159.59 502.05 159.59 502.05 118.71 517.3 118.71 517.3 134.09 517.42 134.09 517.42 128.96 522.55 128.96 522.55 123.84 527.67 123.84 527.67 118.71 542.92 118.71 542.92 128.84 537.8 128.84 537.8 133.96 532.67 133.96 532.67 139.09 527.55 139.09 527.55 139.21 532.67 139.21 532.67 144.34 537.8 144.34 537.8 149.46 542.92 149.46 542.92 159.59 522.55 159.59"/><path d="M540.42,121.21v5.13H535.3v5.13h-5.12v5.13H525v5.13h5.13v5.13h5.13V152h5.13v5.13H525V152h-5.12v-5.12H514.8v10.25H504.55V121.21H514.8v15.38h5.13v-5.12H525v-5.13h5.13v-5.12h10.25m5-5H525.17v5.13H520v5.13h-.25V116.21H499.55v45.88H519.8V157H520v5.13h25.38V147H540.3v-5.12h-5.12v-5.37h5.13v-5.13h5.13V116.21Z"/><polygon class="cls-10" points="609.67 159.59 609.67 154.46 604.55 154.46 604.55 149.34 599.42 149.34 599.42 144.21 599.3 144.21 599.3 159.59 584.05 159.59 584.05 118.71 599.3 118.71 599.3 123.84 604.42 123.84 604.42 128.96 609.55 128.96 609.55 134.09 609.67 134.09 609.67 118.71 624.92 118.71 624.92 159.59 609.67 159.59"/><path d="M622.42,121.21v35.88H612.17V152H607v-5.12h-5.12v-5.12H596.8v15.38H586.55V121.21H596.8v5.13h5.13v5.13H607v5.13h5.13V121.21h10.25m5-5H607.17v10.25h-.25v-5.13H601.8v-5.12H581.55v45.88H601.8V151.84H602V157h5.13v5.13h20.25V116.21Z"/><polygon class="cls-10" points="625.05 159.59 625.05 118.71 665.92 118.71 665.92 128.84 640.3 128.84 640.3 134.09 660.8 134.09 660.8 144.21 640.3 144.21 640.3 149.46 665.92 149.46 665.92 159.59 625.05 159.59"/><path d="M663.42,121.21v5.13H637.8v10.25h20.5v5.13H637.8V152h25.63v5.13H627.55V121.21h35.88m5-5H622.55v45.88h45.88V147H642.8v-.25h20.5V131.59H642.8v-.25h25.63V116.21Z"/><polygon class="cls-10" points="691.67 159.59 691.67 154.46 686.55 154.46 686.55 149.34 686.42 149.34 686.42 154.46 681.3 154.46 681.3 159.59 666.05 159.59 666.05 144.34 671.17 144.34 671.17 139.21 676.3 139.21 676.3 139.09 671.17 139.09 671.17 133.96 666.05 133.96 666.05 118.71 681.3 118.71 681.3 123.84 686.42 123.84 686.42 128.96 686.55 128.96 686.55 123.84 691.67 123.84 691.67 118.71 706.92 118.71 706.92 133.96 701.8 133.96 701.8 139.09 696.67 139.09 696.67 139.21 701.8 139.21 701.8 144.34 706.92 144.34 706.92 159.59 691.67 159.59"/><path d="M704.42,121.21v10.25H699.3v5.13h-5.12v5.13h5.13v5.13h5.13v10.25H694.17V152H689v-5.12h-5.12V152H678.8v5.13H668.55V146.84h5.13v-5.12h5.13v-5.12h-5.12v-5.12h-5.12V121.21H678.8v5.13h5.13v5.13H689v-5.13h5.13v-5.12h10.25m5-5H689.17v5.13H683.8v-5.12H663.55v20.25h5.13v5.38h-5.12v20.25H683.8V157h5.38v5.13h20.25V141.84H704.3v-5.37h5.13V116.21Z"/><polygon class="cls-10" points="719.42 159.59 719.42 128.84 709.17 128.84 709.17 118.71 744.92 118.71 744.92 128.84 734.67 128.84 734.67 159.59 719.42 159.59"/><path d="M742.42,121.21v5.13H732.17v30.75H721.92V126.34H711.67v-5.12h30.75m5-5H706.67v15.13h10.25v30.75h20.25V131.34h10.25V116.21Z"/><polygon class="cls-10" points="801.42 159.59 801.42 128.84 791.17 128.84 791.17 118.71 826.92 118.71 826.92 128.84 816.67 128.84 816.67 159.59 801.42 159.59"/><path d="M824.42,121.21v5.13H814.17v30.75H803.92V126.34H793.67v-5.12h30.75m5-5H788.67v15.13h10.25v30.75h20.25V131.34h10.25V116.21Z"/><polygon class="cls-10" points="829.17 159.59 829.17 149.46 839.42 149.46 839.42 128.84 829.17 128.84 829.17 118.71 864.92 118.71 864.92 128.84 854.67 128.84 854.67 149.46 864.92 149.46 864.92 159.59 829.17 159.59"/><path d="M862.42,121.21v5.13H852.17V152h10.25v5.13H831.67V152h10.25V126.34H831.67v-5.12h30.75m5-5H826.67v15.13h10.25V147H826.67v15.13h40.75V147H857.17V131.34h10.25V116.21Z"/><polygon class="cls-10" points="890.67 159.59 890.67 144.21 890.55 144.21 890.55 149.34 880.42 149.34 880.42 144.21 880.3 144.21 880.3 159.59 865.05 159.59 865.05 118.71 880.3 118.71 880.3 123.84 885.42 123.84 885.42 128.96 885.55 128.96 885.55 123.84 890.67 123.84 890.67 118.71 905.92 118.71 905.92 159.59 890.67 159.59"/><path d="M903.42,121.21v35.88H893.17V141.71H888v5.13h-5.12v-5.12H877.8v15.38H867.55V121.21H877.8v5.13h5.13v5.13H888v-5.13h5.13v-5.12h10.25m5-5H888.17v5.13H882.8v-5.12H862.55v45.88H882.8V151.84h5.38v10.25h20.25V116.21Z"/><polygon class="cls-10" points="906.05 159.59 906.05 118.71 946.92 118.71 946.92 128.84 921.3 128.84 921.3 134.09 941.8 134.09 941.8 144.21 921.3 144.21 921.3 149.46 946.92 149.46 946.92 159.59 906.05 159.59"/><path d="M944.42,121.21v5.13H918.8v10.25h20.5v5.13H918.8V152h25.63v5.13H908.55V121.21h35.88m5-5H903.55v45.88h45.88V147H923.8v-.25h20.5V131.59H923.8v-.25h25.63V116.21Z"/><path class="cls-10" d="M957.3,159.59V149.46h15.25v10.13Zm0-10.25V118.71h20.38v20.38h-5.12v10.25Z"/><path d="M975.17,121.21v15.38H970v10.25H959.8V121.21h15.38M970,152v5.13H959.8V152H970m10.13-35.75H954.8v45.88H975v-20.5h5.13V116.21Z"/></g><g id="continue_copy" data-name="continue copy"><polygon points="1062 315 1062 310 1057 310 1057 305 1052 305 1052 300 1047 300 1047 295 1042 295 1042 290 1037 290 1037 285 1032 285 1032 280 1027 280 1027 275 1022 275 1022 270 1017 270 1017 265 1012 265 1012 260 1007 260 1007 265 1002 265 1002 287 932 287 932 292 927 292 927 343 932 343 932 348 1002 348 1002 370 1007 370 1007 375 1012 375 1012 370 1017 370 1017 365 1022 365 1022 360 1027 360 1027 355 1032 355 1032 350 1037 350 1037 345 1042 345 1042 340 1047 340 1047 335 1052 335 1052 330 1057 330 1057 325 1062 325 1062 320 1067 320 1067 315 1062 315"/><rect class="cls-11" x="927" y="287" width="75" height="51"/><polygon class="cls-11" points="1002 254.8 1059.5 312.3 1002 369.8 1002 254.8"/><rect x="997" y="260" width="5" height="27"/><rect class="cls-12" x="1002" y="260" width="5" height="27"/><rect x="959.5" y="249.5" width="5" height="70" transform="translate(1246.5 -677.5) rotate(90)"/><rect class="cls-12" x="964.5" y="249.5" width="5" height="80" transform="translate(1256.5 -677.5) rotate(90)"/><rect class="cls-13" x="964.5" y="295.5" width="5" height="80" transform="translate(1302.5 -631.5) rotate(90)"/><rect x="959.5" y="305.5" width="5" height="70" transform="translate(1302.5 -621.5) rotate(90)"/><rect x="997" y="338" width="5" height="27"/><rect class="cls-13" x="1002" y="338" width="5" height="27"/><rect x="922" y="287" width="5" height="51"/><rect class="cls-12" x="927" y="287" width="5" height="51"/><rect x="1002" y="255" width="5" height="5"/><rect x="1007" y="260" width="5" height="5"/><rect x="1012" y="265" width="5" height="5"/><rect x="1017" y="270" width="5" height="5"/><rect x="1022" y="275" width="5" height="5"/><rect x="1027" y="280" width="5" height="5"/><rect x="1032" y="285" width="5" height="5"/><rect x="1037" y="290" width="5" height="5"/><rect x="1042" y="295" width="5" height="5"/><rect x="1047" y="300" width="5" height="5"/><rect class="cls-13" x="1007" y="265" width="5" height="5"/><rect class="cls-13" x="1012" y="270" width="5" height="5"/><rect class="cls-13" x="1017" y="275" width="5" height="5"/><rect class="cls-13" x="1022" y="280" width="5" height="5"/><rect class="cls-13" x="1027" y="285" width="5" height="5"/><rect class="cls-13" x="1032" y="290" width="5" height="5"/><rect class="cls-13" x="1037" y="295" width="5" height="5"/><rect class="cls-13" x="1042" y="300" width="5" height="5"/><rect class="cls-13" x="1047" y="305" width="5" height="5"/><rect x="1052" y="305" width="5" height="5"/><rect x="1057" y="310" width="5" height="5"/><rect x="1002" y="365" width="5" height="5"/><rect x="1007" y="360" width="5" height="5"/><rect x="1012" y="355" width="5" height="5"/><rect x="1017" y="350" width="5" height="5"/><rect x="1022" y="345" width="5" height="5"/><rect x="1027" y="340" width="5" height="5"/><rect x="1032" y="335" width="5" height="5"/><rect x="1037" y="330" width="5" height="5"/><rect x="1042" y="325" width="5" height="5"/><rect x="1047" y="320" width="5" height="5"/><rect x="1052" y="315" width="5" height="5"/><rect class="cls-13" x="1002" y="360" width="5" height="5"/><rect class="cls-13" x="1007" y="355" width="5" height="5"/><rect class="cls-13" x="1012" y="350" width="5" height="5"/><rect class="cls-13" x="1017" y="345" width="5" height="5"/><rect class="cls-13" x="1022" y="340" width="5" height="5"/><rect class="cls-13" x="1027" y="335" width="5" height="5"/><rect class="cls-13" x="1032" y="330" width="5" height="5"/><rect class="cls-13" x="1037" y="325" width="5" height="5"/><rect class="cls-13" x="1042" y="320" width="5" height="5"/><rect class="cls-13" x="1047" y="315" width="5" height="5"/><rect class="cls-13" x="1052" y="310" width="5" height="5"/></g></g></svg>