<?xml version="1.0" encoding="utf-8"?>
<!-- Generator: Adobe Illustrator 19.2.1, SVG Export Plug-In . SVG Version: 6.00 Build 0)  -->
<svg version="1.1" xmlns="http://www.w3.org/2000/svg" xmlns:xlink="http://www.w3.org/1999/xlink" x="0px" y="0px"
	 viewBox="0 0 80.2 80.2" style="enable-background:new 0 0 80.2 80.2;" xml:space="preserve" preserveAspectRatio="none slice">
<style type="text/css">
	.server0{display:none;}
	.server1{display:inline;}
	.server2{fill:none;stroke:#229ABA;stroke-width:25;stroke-linejoin:round;stroke-miterlimit:10;}
	.server3{fill:#4C4C4C;stroke:#4C4C4C;stroke-width:10;stroke-linecap:round;stroke-linejoin:round;stroke-miterlimit:10;}
	.server4{fill:#DDDDDD;}
	.server5{fill:#7C7C7C;}
	.server6{fill:#EA2A4A;}
	.server7{fill:#A8203D;}
	.server8{fill:#F7869E;}
	.server9{fill:#FFFFFF;}
	.server10{fill:#229ABA;}
	.server11{fill:#444444;}
	.server12{clip-path:url(#SVGID_2_);}
	.server13{clip-path:url(#SVGID_4_);}
	.server14{clip-path:url(#SVGID_6_);}
	.server15{clip-path:url(#SVGID_8_);}
	.server16{clip-path:url(#SVGID_10_);}
	.server17{clip-path:url(#SVGID_12_);}
	.server18{display:inline;fill:#1AB0D8;}
	.server19{display:inline;opacity:0.29;}
	.server20{display:inline;fill:#85BF1F;}
	.server21{fill:none;stroke:#444444;stroke-width:5;stroke-miterlimit:10;}
	.server22{fill:url(#SVGID_13_);}
	.server23{opacity:0.47;}
	.server24{opacity:0.54;fill:#342F35;}
	.server25{fill:#645966;}
	.server26{fill:#4F4751;}
	.server27{fill:#796D7C;}
	.server28{fill:#342F35;}
	.server29{fill:#938696;}
	.server30{fill:#33312C;}
	.server31{fill:#D1A3CF;}
	.server32{fill:#888689;}
	.server33{fill:#ACA8AD;}
	.server34{fill:#478E49;}
	.server35{fill:#8C3580;}
	.server36{fill:#A5639F;}
	.server37{fill:#368255;}
	.server38{fill:#358284;}
	.server39{fill:#365787;}
	.server40{fill:#5A3689;}
	.server41{opacity:0.5;}
	.server42{fill:#FBEBFF;}
	.server43{fill:#DECCE2;}
	.server44{opacity:0.39;}
	.server45{fill:#07151E;}
	.server46{fill:#665E49;}
	.server47{fill:#4C4537;}
	.server48{fill:#e5e52e;}
	.server49{fill:#465F66;}
	.server50{fill:#2B3B3F;}
	.server51{fill:#a08f70;}
	.server52{fill:#161616;}
	.server53{fill:#EEEEEC;}
	.server54{fill:#999999;}
	.server55{fill:#AFAFAF;}
	.server56{fill:#34474C;}
	.server57{opacity:0.75;}
	.server58{fill:#EA8928;}
	.server59{fill:#8E511A;}
	.server60{fill:#37B73A;}
	.server61{fill:#AFF9AF;}
	.server62{fill:#6B2A65;}
	.server63{fill:#CE1750;}
	.server64{fill:#72172F;}
	.server65{opacity:5.000000e-002;}
	.server66{fill:#6B2A65;stroke:#6B2A65;stroke-width:28;stroke-linecap:round;stroke-linejoin:round;stroke-miterlimit:10;}
	.server67{fill:#8C3580;stroke:#8C3580;stroke-width:12;stroke-linejoin:round;stroke-miterlimit:10;}
	.server68{display:inline;fill:#E5E5E5;}
	.server69{clip-path:url(#SVGID_15_);}
	.server70{clip-path:url(#SVGID_17_);}
	.server71{clip-path:url(#SVGID_19_);}
	.server72{clip-path:url(#SVGID_21_);}
	.server73{clip-path:url(#SVGID_23_);}
	.server74{clip-path:url(#SVGID_25_);}
	.server75{clip-path:url(#SVGID_27_);}
	.server76{clip-path:url(#SVGID_29_);}
	.server77{fill:#D6A51D;}
	.server78{clip-path:url(#SVGID_31_);}
	.server79{clip-path:url(#SVGID_33_);}
	.server80{clip-path:url(#SVGID_35_);}
	.server81{clip-path:url(#SVGID_37_);}
	.server82{clip-path:url(#SVGID_39_);}
	.server83{clip-path:url(#SVGID_41_);}
	.server84{clip-path:url(#SVGID_43_);}
	.server85{clip-path:url(#SVGID_45_);}
	.server86{display:inline;fill:#D6B31D;}
	.server87{fill:#85BF1F;}
</style>
<g>
	<g id="junk" class="server0">
	</g>
	<g id="sky">
	</g>
	<g id="Layer_16">
	</g>
	<g id="Layer_17">
	</g>
	<g id="Layer_15">
	</g>
	<g id="Layer_18">
		<g>
			<rect x="12" y="4" class="server48" width="56.1" height="72.1"/>
			<rect x="4" y="4" class="server49" width="8" height="72.1"/>
			<rect x="68.1" y="4" class="server50" width="8" height="72.1"/>
			<rect y="4" width="4" height="72.1"/>
			<rect x="76.1" y="4" width="4" height="72.1"/>
			<rect width="80.2" height="4"/>
			<rect y="76.1" width="80.2" height="4"/>
			<rect x="68.1" y="8" width="4" height="16"/>
			<rect x="8" y="8" width="4" height="16"/>
			<rect x="12" y="4" width="56.1" height="4"/>
			<rect x="12" y="24" width="56.1" height="4"/>
			<path class="server51" d="M12,8v16h56.1V8H12z M24,20h-8v-8h8V20z M32.1,20h-4v-8h4V20z M40.1,20h-4v-8h4V20z M48.1,20h-4v-8h4V20z
				 M56.1,20h-4v-8h4V20z M64.1,20h-4v-8h4V20z"/>
			<rect x="68.1" y="32.1" width="4" height="16"/>
			<rect x="8" y="32.1" width="4" height="16"/>
			<rect x="12" y="28.1" width="56.1" height="4"/>
			<rect x="12" y="48.1" width="56.1" height="4"/>
			<path class="server51" d="M12,32.1v16h56.1v-16H12z M24,44.1h-8v-8h8V44.1z M32.1,44.1h-4v-8h4V44.1z M40.1,44.1h-4v-8h4V44.1z
				 M48.1,44.1h-4v-8h4V44.1z M56.1,44.1h-4v-8h4V44.1z M64.1,44.1h-4v-8h4V44.1z"/>
			<rect x="68.1" y="56.1" width="4" height="16"/>
			<rect x="8" y="56.1" width="4" height="16"/>
			<rect x="12" y="52.1" width="56.1" height="4"/>
			<rect x="12" y="72.1" width="56.1" height="4"/>
			<path class="server51" d="M12,56.1v16h56.1v-16H12z M24,68.1h-8v-8h8V68.1z M32.1,68.1h-4v-8h4V68.1z M40.1,68.1h-4v-8h4V68.1z
				 M48.1,68.1h-4v-8h4V68.1z M56.1,68.1h-4v-8h4V68.1z M64.1,68.1h-4v-8h4V68.1z"/>
		</g>
	</g>
	<g id="name">
	</g>
	<g id="time">
	</g>
	<g id="tip_pop_up" class="server0">
	</g>
	<g id="down_time" class="server0">
	</g>
	<g id="sidebar">
	</g>
	<g id="action_placeholder_text" class="server0">
	</g>
	<g id="leaderboard_place_holder_text" class="server0">
	</g>
	<g id="leader_board_header">
	</g>
	<g id="buttons_game">
	</g>
	<g id="buttons_arch">
	</g>
	<g id="scan_lines">
	</g>
	<g id="marquee">
	</g>
	<g id="arch_BG" class="server0">
	</g>
	<g id="arch" class="server0">
	</g>
</g>
</svg>
