<?xml version="1.0" encoding="utf-8"?>
<svg version="1.1" xmlns="http://www.w3.org/2000/svg" xmlns:xlink="http://www.w3.org/1999/xlink" x="0px" y="0px"
	 viewBox="0 0 800 25" style="enable-background:new 0 0 800 25;" xml:space="preserve">
<style type="text/css">
	.st0{display:none;}
	.st1{display:inline;}
	.st2{fill:#28B8EB;}
	.st3{fill:#CCE4EA;}
	.st4{fill:#229ABA;}
	.st5{display:inline;fill:none;stroke:#EA186D;stroke-miterlimit:10;}
</style>

<g id="svg3336" inkscape:version="0.91 r13725" sodipodi:docname="waves1.svg" xmlns:cc="http://creativecommons.org/ns#" xmlns:dc="http://purl.org/dc/elements/1.1/" xmlns:inkscape="http://www.inkscape.org/namespaces/inkscape" xmlns:rdf="http://www.w3.org/1999/02/22-rdf-syntax-ns#" xmlns:sketch="http://www.bohemiancoding.com/sketch/ns" xmlns:sodipodi="http://sodipodi.sourceforge.net/DTD/sodipodi-0.dtd" xmlns:svg="http://www.w3.org/2000/svg">
	
		<sodipodi:namedview  bordercolor="#666666" borderopacity="1" gridtolerance="10" guidetolerance="10" id="namedview3396" inkscape:current-layer="docker_whale" inkscape:cx="-41.840558" inkscape:cy="102.58106" inkscape:pageopacity="0" inkscape:pageshadow="2" inkscape:window-height="814" inkscape:window-maximized="1" inkscape:window-width="1536" inkscape:window-x="-8" inkscape:window-y="-8" inkscape:zoom="0.82007126" objecttolerance="10" pagecolor="#ffffff" showgrid="false">
		</sodipodi:namedview>
	<title  id="title3338">docker_wave_whale</title>
	<description>Created with Sketch (http://www.bohemiancoding.com/sketch)</description>
    
    
	<g>
		<rect x="-13.6" y="2.9" class="st3" width="5" height="5"/>
		<rect x="-13.6" y="7.9" class="st2" width="5" height="5"/>
		<rect x="-8.6" y="7.9" class="st3" width="5" height="5"/>
		<rect x="-8.6" y="2.9" class="st3" width="5" height="5"/>
		<rect x="-3.6" y="7.9" class="st3" width="5" height="5"/>
		<rect x="-13.6" y="12.9" class="st2" width="5" height="5"/>
		<rect x="-8.6" y="12.9" class="st2" width="5" height="5"/>
		<rect x="-3.6" y="12.9" class="st3" width="5" height="5"/>
		<rect x="1.4" y="12.9" class="st3" width="5" height="5"/>
		<rect x="6.4" y="12.9" class="st3" width="5" height="5"/>
		<rect x="-13.6" y="17.9" class="st4" width="5" height="5"/>
		<rect x="-8.6" y="17.9" class="st2" width="5" height="5"/>
		<rect x="-3.6" y="17.9" class="st2" width="5" height="5"/>
		<rect x="1.4" y="17.9" class="st2" width="5" height="5"/>
		<rect x="6.4" y="17.9" class="st2" width="5" height="5"/>
		<rect x="11.4" y="17.9" class="st3" width="5" height="5"/>
		<rect x="16.4" y="17.9" class="st2" width="5" height="5"/>
		<rect x="21.4" y="17.9" class="st2" width="5" height="5"/>
		<rect x="26.4" y="12.9" class="st2" width="5" height="5"/>
		<rect x="31.4" y="12.9" class="st2" width="5" height="5"/>
		<rect x="26.4" y="17.9" class="st2" width="5" height="5"/>
		<rect x="31.4" y="17.9" class="st2" width="5" height="5"/>
		<rect x="36.4" y="7.9" class="st3" width="5" height="5"/>
		<rect x="41.4" y="2.9" class="st3" width="5" height="5"/>
		<rect x="46.4" y="2.9" class="st3" width="5" height="5"/>
		<rect x="41.4" y="7.9" class="st3" width="5" height="5"/>
		<rect x="46.4" y="7.9" class="st3" width="5" height="5"/>
		<rect x="36.4" y="12.9" class="st3" width="5" height="5"/>
		<rect x="41.4" y="12.9" class="st3" width="5" height="5"/>
		<rect x="46.4" y="12.9" class="st2" width="5" height="5"/>
		<rect x="36.4" y="17.9" class="st4" width="5" height="5"/>
		<rect x="41.4" y="17.9" class="st4" width="5" height="5"/>
		<rect x="46.4" y="17.9" class="st4" width="5" height="5"/>
		<rect x="-13.6" y="22.9" class="st4" width="5" height="5"/>
		<rect x="-8.6" y="22.9" class="st4" width="5" height="5"/>
		<rect x="-3.6" y="22.9" class="st4" width="5" height="5"/>
		<rect x="1.4" y="22.9" class="st4" width="5" height="5"/>
		<rect x="6.4" y="22.9" class="st4" width="5" height="5"/>
		<rect x="11.4" y="22.9" class="st2" width="5" height="5"/>
		<rect x="16.4" y="22.9" class="st2" width="5" height="5"/>
		<rect x="21.4" y="22.9" class="st4" width="5" height="5"/>
		<rect x="26.4" y="22.9" class="st4" width="5" height="5"/>
		<rect x="31.4" y="22.9" class="st4" width="5" height="5"/>
		<rect x="36.4" y="22.9" class="st4" width="5" height="5"/>
		<rect x="41.4" y="22.9" class="st4" width="5" height="5"/>
		<rect x="46.4" y="22.9" class="st4" width="5" height="5"/>
	</g>
	<g>
		<rect x="51.4" y="2.9" class="st3" width="5" height="5"/>
		<rect x="51.4" y="7.9" class="st2" width="5" height="5"/>
		<rect x="56.4" y="7.9" class="st3" width="5" height="5"/>
		<rect x="56.4" y="2.9" class="st3" width="5" height="5"/>
		<rect x="61.4" y="7.9" class="st3" width="5" height="5"/>
		<rect x="51.4" y="12.9" class="st2" width="5" height="5"/>
		<rect x="56.4" y="12.9" class="st2" width="5" height="5"/>
		<rect x="61.4" y="12.9" class="st3" width="5" height="5"/>
		<rect x="66.4" y="12.9" class="st3" width="5" height="5"/>
		<rect x="71.4" y="12.9" class="st3" width="5" height="5"/>
		<rect x="51.4" y="17.9" class="st4" width="5" height="5"/>
		<rect x="56.4" y="17.9" class="st2" width="5" height="5"/>
		<rect x="61.4" y="17.9" class="st2" width="5" height="5"/>
		<rect x="66.4" y="17.9" class="st2" width="5" height="5"/>
		<rect x="71.4" y="17.9" class="st2" width="5" height="5"/>
		<rect x="76.4" y="17.9" class="st3" width="5" height="5"/>
		<rect x="81.4" y="17.9" class="st2" width="5" height="5"/>
		<rect x="86.4" y="17.9" class="st2" width="5" height="5"/>
		<rect x="91.4" y="12.9" class="st2" width="5" height="5"/>
		<rect x="96.4" y="12.9" class="st2" width="5" height="5"/>
		<rect x="91.4" y="17.9" class="st2" width="5" height="5"/>
		<rect x="96.4" y="17.9" class="st2" width="5" height="5"/>
		<rect x="101.4" y="7.9" class="st3" width="5" height="5"/>
		<rect x="106.4" y="2.9" class="st3" width="5" height="5"/>
		<rect x="111.4" y="2.9" class="st3" width="5" height="5"/>
		<rect x="106.4" y="7.9" class="st3" width="5" height="5"/>
		<rect x="111.4" y="7.9" class="st3" width="5" height="5"/>
		<rect x="101.4" y="12.9" class="st3" width="5" height="5"/>
		<rect x="106.4" y="12.9" class="st3" width="5" height="5"/>
		<rect x="111.4" y="12.9" class="st2" width="5" height="5"/>
		<rect x="101.4" y="17.9" class="st4" width="5" height="5"/>
		<rect x="106.4" y="17.9" class="st4" width="5" height="5"/>
		<rect x="111.4" y="17.9" class="st4" width="5" height="5"/>
		<rect x="51.4" y="22.9" class="st4" width="5" height="5"/>
		<rect x="56.4" y="22.9" class="st4" width="5" height="5"/>
		<rect x="61.4" y="22.9" class="st4" width="5" height="5"/>
		<rect x="66.4" y="22.9" class="st4" width="5" height="5"/>
		<rect x="71.4" y="22.9" class="st4" width="5" height="5"/>
		<rect x="76.4" y="22.9" class="st2" width="5" height="5"/>
		<rect x="81.4" y="22.9" class="st2" width="5" height="5"/>
		<rect x="86.4" y="22.9" class="st4" width="5" height="5"/>
		<rect x="91.4" y="22.9" class="st4" width="5" height="5"/>
		<rect x="96.4" y="22.9" class="st4" width="5" height="5"/>
		<rect x="101.4" y="22.9" class="st4" width="5" height="5"/>
		<rect x="106.4" y="22.9" class="st4" width="5" height="5"/>
		<rect x="111.4" y="22.9" class="st4" width="5" height="5"/>
	</g>
	<g>
		<rect x="116.4" y="2.9" class="st3" width="5" height="5"/>
		<rect x="116.4" y="7.9" class="st2" width="5" height="5"/>
		<rect x="121.4" y="7.9" class="st3" width="5" height="5"/>
		<rect x="121.4" y="2.9" class="st3" width="5" height="5"/>
		<rect x="126.4" y="7.9" class="st3" width="5" height="5"/>
		<rect x="116.4" y="12.9" class="st2" width="5" height="5"/>
		<rect x="121.4" y="12.9" class="st2" width="5" height="5"/>
		<rect x="126.4" y="12.9" class="st3" width="5" height="5"/>
		<rect x="131.4" y="12.9" class="st3" width="5" height="5"/>
		<rect x="136.4" y="12.9" class="st3" width="5" height="5"/>
		<rect x="116.4" y="17.9" class="st4" width="5" height="5"/>
		<rect x="121.4" y="17.9" class="st2" width="5" height="5"/>
		<rect x="126.4" y="17.9" class="st2" width="5" height="5"/>
		<rect x="131.4" y="17.9" class="st2" width="5" height="5"/>
		<rect x="136.4" y="17.9" class="st2" width="5" height="5"/>
		<rect x="141.4" y="17.9" class="st3" width="5" height="5"/>
		<rect x="146.4" y="17.9" class="st2" width="5" height="5"/>
		<rect x="151.4" y="17.9" class="st2" width="5" height="5"/>
		<rect x="156.4" y="12.9" class="st2" width="5" height="5"/>
		<rect x="161.4" y="12.9" class="st2" width="5" height="5"/>
		<rect x="156.4" y="17.9" class="st2" width="5" height="5"/>
		<rect x="161.4" y="17.9" class="st2" width="5" height="5"/>
		<rect x="166.4" y="7.9" class="st3" width="5" height="5"/>
		<rect x="171.4" y="2.9" class="st3" width="5" height="5"/>
		<rect x="176.4" y="2.9" class="st3" width="5" height="5"/>
		<rect x="171.4" y="7.9" class="st3" width="5" height="5"/>
		<rect x="176.4" y="7.9" class="st3" width="5" height="5"/>
		<rect x="166.4" y="12.9" class="st3" width="5" height="5"/>
		<rect x="171.4" y="12.9" class="st3" width="5" height="5"/>
		<rect x="176.4" y="12.9" class="st2" width="5" height="5"/>
		<rect x="166.4" y="17.9" class="st4" width="5" height="5"/>
		<rect x="171.4" y="17.9" class="st4" width="5" height="5"/>
		<rect x="176.4" y="17.9" class="st4" width="5" height="5"/>
		<rect x="116.4" y="22.9" class="st4" width="5" height="5"/>
		<rect x="121.4" y="22.9" class="st4" width="5" height="5"/>
		<rect x="126.4" y="22.9" class="st4" width="5" height="5"/>
		<rect x="131.4" y="22.9" class="st4" width="5" height="5"/>
		<rect x="136.4" y="22.9" class="st4" width="5" height="5"/>
		<rect x="141.4" y="22.9" class="st2" width="5" height="5"/>
		<rect x="146.4" y="22.9" class="st2" width="5" height="5"/>
		<rect x="151.4" y="22.9" class="st4" width="5" height="5"/>
		<rect x="156.4" y="22.9" class="st4" width="5" height="5"/>
		<rect x="161.4" y="22.9" class="st4" width="5" height="5"/>
		<rect x="166.4" y="22.9" class="st4" width="5" height="5"/>
		<rect x="171.4" y="22.9" class="st4" width="5" height="5"/>
		<rect x="176.4" y="22.9" class="st4" width="5" height="5"/>
	</g>
	<g>
		<rect x="181.4" y="2.9" class="st3" width="5" height="5"/>
		<rect x="181.4" y="7.9" class="st2" width="5" height="5"/>
		<rect x="186.4" y="7.9" class="st3" width="5" height="5"/>
		<rect x="186.4" y="2.9" class="st3" width="5" height="5"/>
		<rect x="191.4" y="7.9" class="st3" width="5" height="5"/>
		<rect x="181.4" y="12.9" class="st2" width="5" height="5"/>
		<rect x="186.4" y="12.9" class="st2" width="5" height="5"/>
		<rect x="191.4" y="12.9" class="st3" width="5" height="5"/>
		<rect x="196.4" y="12.9" class="st3" width="5" height="5"/>
		<rect x="201.4" y="12.9" class="st3" width="5" height="5"/>
		<rect x="181.4" y="17.9" class="st4" width="5" height="5"/>
		<rect x="186.4" y="17.9" class="st2" width="5" height="5"/>
		<rect x="191.4" y="17.9" class="st2" width="5" height="5"/>
		<rect x="196.4" y="17.9" class="st2" width="5" height="5"/>
		<rect x="201.4" y="17.9" class="st2" width="5" height="5"/>
		<rect x="206.4" y="17.9" class="st3" width="5" height="5"/>
		<rect x="211.4" y="17.9" class="st2" width="5" height="5"/>
		<rect x="216.4" y="17.9" class="st2" width="5" height="5"/>
		<rect x="221.4" y="12.9" class="st2" width="5" height="5"/>
		<rect x="226.4" y="12.9" class="st2" width="5" height="5"/>
		<rect x="221.4" y="17.9" class="st2" width="5" height="5"/>
		<rect x="226.4" y="17.9" class="st2" width="5" height="5"/>
		<rect x="231.4" y="7.9" class="st3" width="5" height="5"/>
		<rect x="236.4" y="2.9" class="st3" width="5" height="5"/>
		<rect x="241.4" y="2.9" class="st3" width="5" height="5"/>
		<rect x="236.4" y="7.9" class="st3" width="5" height="5"/>
		<rect x="241.4" y="7.9" class="st3" width="5" height="5"/>
		<rect x="231.4" y="12.9" class="st3" width="5" height="5"/>
		<rect x="236.4" y="12.9" class="st3" width="5" height="5"/>
		<rect x="241.4" y="12.9" class="st2" width="5" height="5"/>
		<rect x="231.4" y="17.9" class="st4" width="5" height="5"/>
		<rect x="236.4" y="17.9" class="st4" width="5" height="5"/>
		<rect x="241.4" y="17.9" class="st4" width="5" height="5"/>
		<rect x="181.4" y="22.9" class="st4" width="5" height="5"/>
		<rect x="186.4" y="22.9" class="st4" width="5" height="5"/>
		<rect x="191.4" y="22.9" class="st4" width="5" height="5"/>
		<rect x="196.4" y="22.9" class="st4" width="5" height="5"/>
		<rect x="201.4" y="22.9" class="st4" width="5" height="5"/>
		<rect x="206.4" y="22.9" class="st2" width="5" height="5"/>
		<rect x="211.4" y="22.9" class="st2" width="5" height="5"/>
		<rect x="216.4" y="22.9" class="st4" width="5" height="5"/>
		<rect x="221.4" y="22.9" class="st4" width="5" height="5"/>
		<rect x="226.4" y="22.9" class="st4" width="5" height="5"/>
		<rect x="231.4" y="22.9" class="st4" width="5" height="5"/>
		<rect x="236.4" y="22.9" class="st4" width="5" height="5"/>
		<rect x="241.4" y="22.9" class="st4" width="5" height="5"/>
	</g>
	<g>
		<rect x="246.4" y="2.9" class="st3" width="5" height="5"/>
		<rect x="246.4" y="7.9" class="st2" width="5" height="5"/>
		<rect x="251.4" y="7.9" class="st3" width="5" height="5"/>
		<rect x="251.4" y="2.9" class="st3" width="5" height="5"/>
		<rect x="256.4" y="7.9" class="st3" width="5" height="5"/>
		<rect x="246.4" y="12.9" class="st2" width="5" height="5"/>
		<rect x="251.4" y="12.9" class="st2" width="5" height="5"/>
		<rect x="256.4" y="12.9" class="st3" width="5" height="5"/>
		<rect x="261.4" y="12.9" class="st3" width="5" height="5"/>
		<rect x="266.4" y="12.9" class="st3" width="5" height="5"/>
		<rect x="246.4" y="17.9" class="st4" width="5" height="5"/>
		<rect x="251.4" y="17.9" class="st2" width="5" height="5"/>
		<rect x="256.4" y="17.9" class="st2" width="5" height="5"/>
		<rect x="261.4" y="17.9" class="st2" width="5" height="5"/>
		<rect x="266.4" y="17.9" class="st2" width="5" height="5"/>
		<rect x="271.4" y="17.9" class="st3" width="5" height="5"/>
		<rect x="276.4" y="17.9" class="st2" width="5" height="5"/>
		<rect x="281.4" y="17.9" class="st2" width="5" height="5"/>
		<rect x="286.4" y="12.9" class="st2" width="5" height="5"/>
		<rect x="291.4" y="12.9" class="st2" width="5" height="5"/>
		<rect x="286.4" y="17.9" class="st2" width="5" height="5"/>
		<rect x="291.4" y="17.9" class="st2" width="5" height="5"/>
		<rect x="296.4" y="7.9" class="st3" width="5" height="5"/>
		<rect x="301.4" y="2.9" class="st3" width="5" height="5"/>
		<rect x="306.4" y="2.9" class="st3" width="5" height="5"/>
		<rect x="301.4" y="7.9" class="st3" width="5" height="5"/>
		<rect x="306.4" y="7.9" class="st3" width="5" height="5"/>
		<rect x="296.4" y="12.9" class="st3" width="5" height="5"/>
		<rect x="301.4" y="12.9" class="st3" width="5" height="5"/>
		<rect x="306.4" y="12.9" class="st2" width="5" height="5"/>
		<rect x="296.4" y="17.9" class="st4" width="5" height="5"/>
		<rect x="301.4" y="17.9" class="st4" width="5" height="5"/>
		<rect x="306.4" y="17.9" class="st4" width="5" height="5"/>
		<rect x="246.4" y="22.9" class="st4" width="5" height="5"/>
		<rect x="251.4" y="22.9" class="st4" width="5" height="5"/>
		<rect x="256.4" y="22.9" class="st4" width="5" height="5"/>
		<rect x="261.4" y="22.9" class="st4" width="5" height="5"/>
		<rect x="266.4" y="22.9" class="st4" width="5" height="5"/>
		<rect x="271.4" y="22.9" class="st2" width="5" height="5"/>
		<rect x="276.4" y="22.9" class="st2" width="5" height="5"/>
		<rect x="281.4" y="22.9" class="st4" width="5" height="5"/>
		<rect x="286.4" y="22.9" class="st4" width="5" height="5"/>
		<rect x="291.4" y="22.9" class="st4" width="5" height="5"/>
		<rect x="296.4" y="22.9" class="st4" width="5" height="5"/>
		<rect x="301.4" y="22.9" class="st4" width="5" height="5"/>
		<rect x="306.4" y="22.9" class="st4" width="5" height="5"/>
	</g>
	<g>
		<rect x="311.4" y="2.9" class="st3" width="5" height="5"/>
		<rect x="311.4" y="7.9" class="st2" width="5" height="5"/>
		<rect x="316.4" y="7.9" class="st3" width="5" height="5"/>
		<rect x="316.4" y="2.9" class="st3" width="5" height="5"/>
		<rect x="321.4" y="7.9" class="st3" width="5" height="5"/>
		<rect x="311.4" y="12.9" class="st2" width="5" height="5"/>
		<rect x="316.4" y="12.9" class="st2" width="5" height="5"/>
		<rect x="321.4" y="12.9" class="st3" width="5" height="5"/>
		<rect x="326.4" y="12.9" class="st3" width="5" height="5"/>
		<rect x="331.4" y="12.9" class="st3" width="5" height="5"/>
		<rect x="311.4" y="17.9" class="st4" width="5" height="5"/>
		<rect x="316.4" y="17.9" class="st2" width="5" height="5"/>
		<rect x="321.4" y="17.9" class="st2" width="5" height="5"/>
		<rect x="326.4" y="17.9" class="st2" width="5" height="5"/>
		<rect x="331.4" y="17.9" class="st2" width="5" height="5"/>
		<rect x="336.4" y="17.9" class="st3" width="5" height="5"/>
		<rect x="341.4" y="17.9" class="st2" width="5" height="5"/>
		<rect x="346.4" y="17.9" class="st2" width="5" height="5"/>
		<rect x="351.4" y="12.9" class="st2" width="5" height="5"/>
		<rect x="356.4" y="12.9" class="st2" width="5" height="5"/>
		<rect x="351.4" y="17.9" class="st2" width="5" height="5"/>
		<rect x="356.4" y="17.9" class="st2" width="5" height="5"/>
		<rect x="361.4" y="7.9" class="st3" width="5" height="5"/>
		<rect x="366.4" y="2.9" class="st3" width="5" height="5"/>
		<rect x="371.4" y="2.9" class="st3" width="5" height="5"/>
		<rect x="366.4" y="7.9" class="st3" width="5" height="5"/>
		<rect x="371.4" y="7.9" class="st3" width="5" height="5"/>
		<rect x="361.4" y="12.9" class="st3" width="5" height="5"/>
		<rect x="366.4" y="12.9" class="st3" width="5" height="5"/>
		<rect x="371.4" y="12.9" class="st2" width="5" height="5"/>
		<rect x="361.4" y="17.9" class="st4" width="5" height="5"/>
		<rect x="366.4" y="17.9" class="st4" width="5" height="5"/>
		<rect x="371.4" y="17.9" class="st4" width="5" height="5"/>
		<rect x="311.4" y="22.9" class="st4" width="5" height="5"/>
		<rect x="316.4" y="22.9" class="st4" width="5" height="5"/>
		<rect x="321.4" y="22.9" class="st4" width="5" height="5"/>
		<rect x="326.4" y="22.9" class="st4" width="5" height="5"/>
		<rect x="331.4" y="22.9" class="st4" width="5" height="5"/>
		<rect x="336.4" y="22.9" class="st2" width="5" height="5"/>
		<rect x="341.4" y="22.9" class="st2" width="5" height="5"/>
		<rect x="346.4" y="22.9" class="st4" width="5" height="5"/>
		<rect x="351.4" y="22.9" class="st4" width="5" height="5"/>
		<rect x="356.4" y="22.9" class="st4" width="5" height="5"/>
		<rect x="361.4" y="22.9" class="st4" width="5" height="5"/>
		<rect x="366.4" y="22.9" class="st4" width="5" height="5"/>
		<rect x="371.4" y="22.9" class="st4" width="5" height="5"/>
	</g>
	<g>
		<rect x="376.4" y="2.9" class="st3" width="5" height="5"/>
		<rect x="376.4" y="7.9" class="st2" width="5" height="5"/>
		<rect x="381.4" y="7.9" class="st3" width="5" height="5"/>
		<rect x="381.4" y="2.9" class="st3" width="5" height="5"/>
		<rect x="386.4" y="7.9" class="st3" width="5" height="5"/>
		<rect x="376.4" y="12.9" class="st2" width="5" height="5"/>
		<rect x="381.4" y="12.9" class="st2" width="5" height="5"/>
		<rect x="386.4" y="12.9" class="st3" width="5" height="5"/>
		<rect x="391.4" y="12.9" class="st3" width="5" height="5"/>
		<rect x="396.4" y="12.9" class="st3" width="5" height="5"/>
		<rect x="376.4" y="17.9" class="st4" width="5" height="5"/>
		<rect x="381.4" y="17.9" class="st2" width="5" height="5"/>
		<rect x="386.4" y="17.9" class="st2" width="5" height="5"/>
		<rect x="391.4" y="17.9" class="st2" width="5" height="5"/>
		<rect x="396.4" y="17.9" class="st2" width="5" height="5"/>
		<rect x="401.4" y="17.9" class="st3" width="5" height="5"/>
		<rect x="406.4" y="17.9" class="st2" width="5" height="5"/>
		<rect x="411.4" y="17.9" class="st2" width="5" height="5"/>
		<rect x="416.4" y="12.9" class="st2" width="5" height="5"/>
		<rect x="421.4" y="12.9" class="st2" width="5" height="5"/>
		<rect x="416.4" y="17.9" class="st2" width="5" height="5"/>
		<rect x="421.4" y="17.9" class="st2" width="5" height="5"/>
		<rect x="426.4" y="7.9" class="st3" width="5" height="5"/>
		<rect x="431.4" y="2.9" class="st3" width="5" height="5"/>
		<rect x="436.4" y="2.9" class="st3" width="5" height="5"/>
		<rect x="431.4" y="7.9" class="st3" width="5" height="5"/>
		<rect x="436.4" y="7.9" class="st3" width="5" height="5"/>
		<rect x="426.4" y="12.9" class="st3" width="5" height="5"/>
		<rect x="431.4" y="12.9" class="st3" width="5" height="5"/>
		<rect x="436.4" y="12.9" class="st2" width="5" height="5"/>
		<rect x="426.4" y="17.9" class="st4" width="5" height="5"/>
		<rect x="431.4" y="17.9" class="st4" width="5" height="5"/>
		<rect x="436.4" y="17.9" class="st4" width="5" height="5"/>
		<rect x="376.4" y="22.9" class="st4" width="5" height="5"/>
		<rect x="381.4" y="22.9" class="st4" width="5" height="5"/>
		<rect x="386.4" y="22.9" class="st4" width="5" height="5"/>
		<rect x="391.4" y="22.9" class="st4" width="5" height="5"/>
		<rect x="396.4" y="22.9" class="st4" width="5" height="5"/>
		<rect x="401.4" y="22.9" class="st2" width="5" height="5"/>
		<rect x="406.4" y="22.9" class="st2" width="5" height="5"/>
		<rect x="411.4" y="22.9" class="st4" width="5" height="5"/>
		<rect x="416.4" y="22.9" class="st4" width="5" height="5"/>
		<rect x="421.4" y="22.9" class="st4" width="5" height="5"/>
		<rect x="426.4" y="22.9" class="st4" width="5" height="5"/>
		<rect x="431.4" y="22.9" class="st4" width="5" height="5"/>
		<rect x="436.4" y="22.9" class="st4" width="5" height="5"/>
	</g>
	<g>
		<rect x="441.4" y="2.9" class="st3" width="5" height="5"/>
		<rect x="441.4" y="7.9" class="st2" width="5" height="5"/>
		<rect x="446.4" y="7.9" class="st3" width="5" height="5"/>
		<rect x="446.4" y="2.9" class="st3" width="5" height="5"/>
		<rect x="451.4" y="7.9" class="st3" width="5" height="5"/>
		<rect x="441.4" y="12.9" class="st2" width="5" height="5"/>
		<rect x="446.4" y="12.9" class="st2" width="5" height="5"/>
		<rect x="451.4" y="12.9" class="st3" width="5" height="5"/>
		<rect x="456.4" y="12.9" class="st3" width="5" height="5"/>
		<rect x="461.4" y="12.9" class="st3" width="5" height="5"/>
		<rect x="441.4" y="17.9" class="st4" width="5" height="5"/>
		<rect x="446.4" y="17.9" class="st2" width="5" height="5"/>
		<rect x="451.4" y="17.9" class="st2" width="5" height="5"/>
		<rect x="456.4" y="17.9" class="st2" width="5" height="5"/>
		<rect x="461.4" y="17.9" class="st2" width="5" height="5"/>
		<rect x="466.4" y="17.9" class="st3" width="5" height="5"/>
		<rect x="471.4" y="17.9" class="st2" width="5" height="5"/>
		<rect x="476.4" y="17.9" class="st2" width="5" height="5"/>
		<rect x="481.4" y="12.9" class="st2" width="5" height="5"/>
		<rect x="486.4" y="12.9" class="st2" width="5" height="5"/>
		<rect x="481.4" y="17.9" class="st2" width="5" height="5"/>
		<rect x="486.4" y="17.9" class="st2" width="5" height="5"/>
		<rect x="491.4" y="7.9" class="st3" width="5" height="5"/>
		<rect x="496.4" y="2.9" class="st3" width="5" height="5"/>
		<rect x="501.4" y="2.9" class="st3" width="5" height="5"/>
		<rect x="496.4" y="7.9" class="st3" width="5" height="5"/>
		<rect x="501.4" y="7.9" class="st3" width="5" height="5"/>
		<rect x="491.4" y="12.9" class="st3" width="5" height="5"/>
		<rect x="496.4" y="12.9" class="st3" width="5" height="5"/>
		<rect x="501.4" y="12.9" class="st2" width="5" height="5"/>
		<rect x="491.4" y="17.9" class="st4" width="5" height="5"/>
		<rect x="496.4" y="17.9" class="st4" width="5" height="5"/>
		<rect x="501.4" y="17.9" class="st4" width="5" height="5"/>
		<rect x="441.4" y="22.9" class="st4" width="5" height="5"/>
		<rect x="446.4" y="22.9" class="st4" width="5" height="5"/>
		<rect x="451.4" y="22.9" class="st4" width="5" height="5"/>
		<rect x="456.4" y="22.9" class="st4" width="5" height="5"/>
		<rect x="461.4" y="22.9" class="st4" width="5" height="5"/>
		<rect x="466.4" y="22.9" class="st2" width="5" height="5"/>
		<rect x="471.4" y="22.9" class="st2" width="5" height="5"/>
		<rect x="476.4" y="22.9" class="st4" width="5" height="5"/>
		<rect x="481.4" y="22.9" class="st4" width="5" height="5"/>
		<rect x="486.4" y="22.9" class="st4" width="5" height="5"/>
		<rect x="491.4" y="22.9" class="st4" width="5" height="5"/>
		<rect x="496.4" y="22.9" class="st4" width="5" height="5"/>
		<rect x="501.4" y="22.9" class="st4" width="5" height="5"/>
	</g>
	<g>
		<rect x="506.4" y="2.9" class="st3" width="5" height="5"/>
		<rect x="506.4" y="7.9" class="st2" width="5" height="5"/>
		<rect x="511.4" y="7.9" class="st3" width="5" height="5"/>
		<rect x="511.4" y="2.9" class="st3" width="5" height="5"/>
		<rect x="516.4" y="7.9" class="st3" width="5" height="5"/>
		<rect x="506.4" y="12.9" class="st2" width="5" height="5"/>
		<rect x="511.4" y="12.9" class="st2" width="5" height="5"/>
		<rect x="516.4" y="12.9" class="st3" width="5" height="5"/>
		<rect x="521.4" y="12.9" class="st3" width="5" height="5"/>
		<rect x="526.4" y="12.9" class="st3" width="5" height="5"/>
		<rect x="506.4" y="17.9" class="st4" width="5" height="5"/>
		<rect x="511.4" y="17.9" class="st2" width="5" height="5"/>
		<rect x="516.4" y="17.9" class="st2" width="5" height="5"/>
		<rect x="521.4" y="17.9" class="st2" width="5" height="5"/>
		<rect x="526.4" y="17.9" class="st2" width="5" height="5"/>
		<rect x="531.4" y="17.9" class="st3" width="5" height="5"/>
		<rect x="536.4" y="17.9" class="st2" width="5" height="5"/>
		<rect x="541.4" y="17.9" class="st2" width="5" height="5"/>
		<rect x="546.4" y="12.9" class="st2" width="5" height="5"/>
		<rect x="551.4" y="12.9" class="st2" width="5" height="5"/>
		<rect x="546.4" y="17.9" class="st2" width="5" height="5"/>
		<rect x="551.4" y="17.9" class="st2" width="5" height="5"/>
		<rect x="556.4" y="7.9" class="st3" width="5" height="5"/>
		<rect x="561.4" y="2.9" class="st3" width="5" height="5"/>
		<rect x="566.4" y="2.9" class="st3" width="5" height="5"/>
		<rect x="561.4" y="7.9" class="st3" width="5" height="5"/>
		<rect x="566.4" y="7.9" class="st3" width="5" height="5"/>
		<rect x="556.4" y="12.9" class="st3" width="5" height="5"/>
		<rect x="561.4" y="12.9" class="st3" width="5" height="5"/>
		<rect x="566.4" y="12.9" class="st2" width="5" height="5"/>
		<rect x="556.4" y="17.9" class="st4" width="5" height="5"/>
		<rect x="561.4" y="17.9" class="st4" width="5" height="5"/>
		<rect x="566.4" y="17.9" class="st4" width="5" height="5"/>
		<rect x="506.4" y="22.9" class="st4" width="5" height="5"/>
		<rect x="511.4" y="22.9" class="st4" width="5" height="5"/>
		<rect x="516.4" y="22.9" class="st4" width="5" height="5"/>
		<rect x="521.4" y="22.9" class="st4" width="5" height="5"/>
		<rect x="526.4" y="22.9" class="st4" width="5" height="5"/>
		<rect x="531.4" y="22.9" class="st2" width="5" height="5"/>
		<rect x="536.4" y="22.9" class="st2" width="5" height="5"/>
		<rect x="541.4" y="22.9" class="st4" width="5" height="5"/>
		<rect x="546.4" y="22.9" class="st4" width="5" height="5"/>
		<rect x="551.4" y="22.9" class="st4" width="5" height="5"/>
		<rect x="556.4" y="22.9" class="st4" width="5" height="5"/>
		<rect x="561.4" y="22.9" class="st4" width="5" height="5"/>
		<rect x="566.4" y="22.9" class="st4" width="5" height="5"/>
	</g>
	<g>
		<rect x="571.4" y="2.9" class="st3" width="5" height="5"/>
		<rect x="571.4" y="7.9" class="st2" width="5" height="5"/>
		<rect x="576.4" y="7.9" class="st3" width="5" height="5"/>
		<rect x="576.4" y="2.9" class="st3" width="5" height="5"/>
		<rect x="581.4" y="7.9" class="st3" width="5" height="5"/>
		<rect x="571.4" y="12.9" class="st2" width="5" height="5"/>
		<rect x="576.4" y="12.9" class="st2" width="5" height="5"/>
		<rect x="581.4" y="12.9" class="st3" width="5" height="5"/>
		<rect x="586.4" y="12.9" class="st3" width="5" height="5"/>
		<rect x="591.4" y="12.9" class="st3" width="5" height="5"/>
		<rect x="571.4" y="17.9" class="st4" width="5" height="5"/>
		<rect x="576.4" y="17.9" class="st2" width="5" height="5"/>
		<rect x="581.4" y="17.9" class="st2" width="5" height="5"/>
		<rect x="586.4" y="17.9" class="st2" width="5" height="5"/>
		<rect x="591.4" y="17.9" class="st2" width="5" height="5"/>
		<rect x="596.4" y="17.9" class="st3" width="5" height="5"/>
		<rect x="601.4" y="17.9" class="st2" width="5" height="5"/>
		<rect x="606.4" y="17.9" class="st2" width="5" height="5"/>
		<rect x="611.4" y="12.9" class="st2" width="5" height="5"/>
		<rect x="616.4" y="12.9" class="st2" width="5" height="5"/>
		<rect x="611.4" y="17.9" class="st2" width="5" height="5"/>
		<rect x="616.4" y="17.9" class="st2" width="5" height="5"/>
		<rect x="621.4" y="7.9" class="st3" width="5" height="5"/>
		<rect x="626.4" y="2.9" class="st3" width="5" height="5"/>
		<rect x="631.4" y="2.9" class="st3" width="5" height="5"/>
		<rect x="626.4" y="7.9" class="st3" width="5" height="5"/>
		<rect x="631.4" y="7.9" class="st3" width="5" height="5"/>
		<rect x="621.4" y="12.9" class="st3" width="5" height="5"/>
		<rect x="626.4" y="12.9" class="st3" width="5" height="5"/>
		<rect x="631.4" y="12.9" class="st2" width="5" height="5"/>
		<rect x="621.4" y="17.9" class="st4" width="5" height="5"/>
		<rect x="626.4" y="17.9" class="st4" width="5" height="5"/>
		<rect x="631.4" y="17.9" class="st4" width="5" height="5"/>
		<rect x="571.4" y="22.9" class="st4" width="5" height="5"/>
		<rect x="576.4" y="22.9" class="st4" width="5" height="5"/>
		<rect x="581.4" y="22.9" class="st4" width="5" height="5"/>
		<rect x="586.4" y="22.9" class="st4" width="5" height="5"/>
		<rect x="591.4" y="22.9" class="st4" width="5" height="5"/>
		<rect x="596.4" y="22.9" class="st2" width="5" height="5"/>
		<rect x="601.4" y="22.9" class="st2" width="5" height="5"/>
		<rect x="606.4" y="22.9" class="st4" width="5" height="5"/>
		<rect x="611.4" y="22.9" class="st4" width="5" height="5"/>
		<rect x="616.4" y="22.9" class="st4" width="5" height="5"/>
		<rect x="621.4" y="22.9" class="st4" width="5" height="5"/>
		<rect x="626.4" y="22.9" class="st4" width="5" height="5"/>
		<rect x="631.4" y="22.9" class="st4" width="5" height="5"/>
	</g>
	<g>
		<rect x="636.4" y="2.9" class="st3" width="5" height="5"/>
		<rect x="636.4" y="7.9" class="st2" width="5" height="5"/>
		<rect x="641.4" y="7.9" class="st3" width="5" height="5"/>
		<rect x="641.4" y="2.9" class="st3" width="5" height="5"/>
		<rect x="646.4" y="7.9" class="st3" width="5" height="5"/>
		<rect x="636.4" y="12.9" class="st2" width="5" height="5"/>
		<rect x="641.4" y="12.9" class="st2" width="5" height="5"/>
		<rect x="646.4" y="12.9" class="st3" width="5" height="5"/>
		<rect x="651.4" y="12.9" class="st3" width="5" height="5"/>
		<rect x="656.4" y="12.9" class="st3" width="5" height="5"/>
		<rect x="636.4" y="17.9" class="st4" width="5" height="5"/>
		<rect x="641.4" y="17.9" class="st2" width="5" height="5"/>
		<rect x="646.4" y="17.9" class="st2" width="5" height="5"/>
		<rect x="651.4" y="17.9" class="st2" width="5" height="5"/>
		<rect x="656.4" y="17.9" class="st2" width="5" height="5"/>
		<rect x="661.4" y="17.9" class="st3" width="5" height="5"/>
		<rect x="666.4" y="17.9" class="st2" width="5" height="5"/>
		<rect x="671.4" y="17.9" class="st2" width="5" height="5"/>
		<rect x="676.4" y="12.9" class="st2" width="5" height="5"/>
		<rect x="681.4" y="12.9" class="st2" width="5" height="5"/>
		<rect x="676.4" y="17.9" class="st2" width="5" height="5"/>
		<rect x="681.4" y="17.9" class="st2" width="5" height="5"/>
		<rect x="686.4" y="7.9" class="st3" width="5" height="5"/>
		<rect x="691.4" y="2.9" class="st3" width="5" height="5"/>
		<rect x="696.4" y="2.9" class="st3" width="5" height="5"/>
		<rect x="691.4" y="7.9" class="st3" width="5" height="5"/>
		<rect x="696.4" y="7.9" class="st3" width="5" height="5"/>
		<rect x="686.4" y="12.9" class="st3" width="5" height="5"/>
		<rect x="691.4" y="12.9" class="st3" width="5" height="5"/>
		<rect x="696.4" y="12.9" class="st2" width="5" height="5"/>
		<rect x="686.4" y="17.9" class="st4" width="5" height="5"/>
		<rect x="691.4" y="17.9" class="st4" width="5" height="5"/>
		<rect x="696.4" y="17.9" class="st4" width="5" height="5"/>
		<rect x="636.4" y="22.9" class="st4" width="5" height="5"/>
		<rect x="641.4" y="22.9" class="st4" width="5" height="5"/>
		<rect x="646.4" y="22.9" class="st4" width="5" height="5"/>
		<rect x="651.4" y="22.9" class="st4" width="5" height="5"/>
		<rect x="656.4" y="22.9" class="st4" width="5" height="5"/>
		<rect x="661.4" y="22.9" class="st2" width="5" height="5"/>
		<rect x="666.4" y="22.9" class="st2" width="5" height="5"/>
		<rect x="671.4" y="22.9" class="st4" width="5" height="5"/>
		<rect x="676.4" y="22.9" class="st4" width="5" height="5"/>
		<rect x="681.4" y="22.9" class="st4" width="5" height="5"/>
		<rect x="686.4" y="22.9" class="st4" width="5" height="5"/>
		<rect x="691.4" y="22.9" class="st4" width="5" height="5"/>
		<rect x="696.4" y="22.9" class="st4" width="5" height="5"/>
	</g>
	<g>
		<rect x="701.4" y="2.9" class="st3" width="5" height="5"/>
		<rect x="701.4" y="7.9" class="st2" width="5" height="5"/>
		<rect x="706.4" y="7.9" class="st3" width="5" height="5"/>
		<rect x="706.4" y="2.9" class="st3" width="5" height="5"/>
		<rect x="711.4" y="7.9" class="st3" width="5" height="5"/>
		<rect x="701.4" y="12.9" class="st2" width="5" height="5"/>
		<rect x="706.4" y="12.9" class="st2" width="5" height="5"/>
		<rect x="711.4" y="12.9" class="st3" width="5" height="5"/>
		<rect x="716.4" y="12.9" class="st3" width="5" height="5"/>
		<rect x="721.4" y="12.9" class="st3" width="5" height="5"/>
		<rect x="701.4" y="17.9" class="st4" width="5" height="5"/>
		<rect x="706.4" y="17.9" class="st2" width="5" height="5"/>
		<rect x="711.4" y="17.9" class="st2" width="5" height="5"/>
		<rect x="716.4" y="17.9" class="st2" width="5" height="5"/>
		<rect x="721.4" y="17.9" class="st2" width="5" height="5"/>
		<rect x="726.4" y="17.9" class="st3" width="5" height="5"/>
		<rect x="731.4" y="17.9" class="st2" width="5" height="5"/>
		<rect x="736.4" y="17.9" class="st2" width="5" height="5"/>
		<rect x="741.4" y="12.9" class="st2" width="5" height="5"/>
		<rect x="746.4" y="12.9" class="st2" width="5" height="5"/>
		<rect x="741.4" y="17.9" class="st2" width="5" height="5"/>
		<rect x="746.4" y="17.9" class="st2" width="5" height="5"/>
		<rect x="751.4" y="7.9" class="st3" width="5" height="5"/>
		<rect x="756.4" y="2.9" class="st3" width="5" height="5"/>
		<rect x="761.4" y="2.9" class="st3" width="5" height="5"/>
		<rect x="756.4" y="7.9" class="st3" width="5" height="5"/>
		<rect x="761.4" y="7.9" class="st3" width="5" height="5"/>
		<rect x="751.4" y="12.9" class="st3" width="5" height="5"/>
		<rect x="756.4" y="12.9" class="st3" width="5" height="5"/>
		<rect x="761.4" y="12.9" class="st2" width="5" height="5"/>
		<rect x="751.4" y="17.9" class="st4" width="5" height="5"/>
		<rect x="756.4" y="17.9" class="st4" width="5" height="5"/>
		<rect x="761.4" y="17.9" class="st4" width="5" height="5"/>
		<rect x="701.4" y="22.9" class="st4" width="5" height="5"/>
		<rect x="706.4" y="22.9" class="st4" width="5" height="5"/>
		<rect x="711.4" y="22.9" class="st4" width="5" height="5"/>
		<rect x="716.4" y="22.9" class="st4" width="5" height="5"/>
		<rect x="721.4" y="22.9" class="st4" width="5" height="5"/>
		<rect x="726.4" y="22.9" class="st2" width="5" height="5"/>
		<rect x="731.4" y="22.9" class="st2" width="5" height="5"/>
		<rect x="736.4" y="22.9" class="st4" width="5" height="5"/>
		<rect x="741.4" y="22.9" class="st4" width="5" height="5"/>
		<rect x="746.4" y="22.9" class="st4" width="5" height="5"/>
		<rect x="751.4" y="22.9" class="st4" width="5" height="5"/>
		<rect x="756.4" y="22.9" class="st4" width="5" height="5"/>
		<rect x="761.4" y="22.9" class="st4" width="5" height="5"/>
	</g>
	<g>
		<rect x="766.4" y="2.9" class="st3" width="5" height="5"/>
		<rect x="766.4" y="7.9" class="st2" width="5" height="5"/>
		<rect x="771.4" y="7.9" class="st3" width="5" height="5"/>
		<rect x="771.4" y="2.9" class="st3" width="5" height="5"/>
		<rect x="776.4" y="7.9" class="st3" width="5" height="5"/>
		<rect x="766.4" y="12.9" class="st2" width="5" height="5"/>
		<rect x="771.4" y="12.9" class="st2" width="5" height="5"/>
		<rect x="776.4" y="12.9" class="st3" width="5" height="5"/>
		<rect x="781.4" y="12.9" class="st3" width="5" height="5"/>
		<rect x="786.4" y="12.9" class="st3" width="5" height="5"/>
		<rect x="766.4" y="17.9" class="st4" width="5" height="5"/>
		<rect x="771.4" y="17.9" class="st2" width="5" height="5"/>
		<rect x="776.4" y="17.9" class="st2" width="5" height="5"/>
		<rect x="781.4" y="17.9" class="st2" width="5" height="5"/>
		<rect x="786.4" y="17.9" class="st2" width="5" height="5"/>
		<rect x="791.4" y="17.9" class="st3" width="5" height="5"/>
		<rect x="796.4" y="17.9" class="st2" width="5" height="5"/>
		<rect x="801.4" y="17.9" class="st2" width="5" height="5"/>
		<rect x="806.4" y="12.9" class="st2" width="5" height="5"/>
		<rect x="811.4" y="12.9" class="st2" width="5" height="5"/>
		<rect x="806.4" y="17.9" class="st2" width="5" height="5"/>
		<rect x="811.4" y="17.9" class="st2" width="5" height="5"/>
		<rect x="816.4" y="7.9" class="st3" width="5" height="5"/>
		<rect x="821.4" y="2.9" class="st3" width="5" height="5"/>
		<rect x="826.4" y="2.9" class="st3" width="5" height="5"/>
		<rect x="821.4" y="7.9" class="st3" width="5" height="5"/>
		<rect x="826.4" y="7.9" class="st3" width="5" height="5"/>
		<rect x="816.4" y="12.9" class="st3" width="5" height="5"/>
		<rect x="821.4" y="12.9" class="st3" width="5" height="5"/>
		<rect x="826.4" y="12.9" class="st2" width="5" height="5"/>
		<rect x="816.4" y="17.9" class="st4" width="5" height="5"/>
		<rect x="821.4" y="17.9" class="st4" width="5" height="5"/>
		<rect x="826.4" y="17.9" class="st4" width="5" height="5"/>
		<rect x="766.4" y="22.9" class="st4" width="5" height="5"/>
		<rect x="771.4" y="22.9" class="st4" width="5" height="5"/>
		<rect x="776.4" y="22.9" class="st4" width="5" height="5"/>
		<rect x="781.4" y="22.9" class="st4" width="5" height="5"/>
		<rect x="786.4" y="22.9" class="st4" width="5" height="5"/>
		<rect x="791.4" y="22.9" class="st2" width="5" height="5"/>
		<rect x="796.4" y="22.9" class="st2" width="5" height="5"/>
		<rect x="801.4" y="22.9" class="st4" width="5" height="5"/>
		<rect x="806.4" y="22.9" class="st4" width="5" height="5"/>
		<rect x="811.4" y="22.9" class="st4" width="5" height="5"/>
		<rect x="816.4" y="22.9" class="st4" width="5" height="5"/>
		<rect x="821.4" y="22.9" class="st4" width="5" height="5"/>
		<rect x="826.4" y="22.9" class="st4" width="5" height="5"/>
	</g>
</g>
<g id="Layer_3" class="st0">
	<path class="st5" d="M-13.6,2.9c9.9,0,12.7,15,32.3,15s21.2-15,32.7-15"/>
</g>
</svg>
