<?xml version="1.0" encoding="utf-8"?>
<!-- Generator: Adobe Illustrator 20.1.0, SVG Export Plug-In . SVG Version: 6.00 Build 0)  -->
<svg version="1.1"
	 id="svg3336" inkscape:version="0.91 r13725" sodipodi:docname="waves2.svg" xmlns:cc="http://creativecommons.org/ns#" xmlns:dc="http://purl.org/dc/elements/1.1/" xmlns:inkscape="http://www.inkscape.org/namespaces/inkscape" xmlns:rdf="http://www.w3.org/1999/02/22-rdf-syntax-ns#" xmlns:sketch="http://www.bohemiancoding.com/sketch/ns" xmlns:sodipodi="http://sodipodi.sourceforge.net/DTD/sodipodi-0.dtd" xmlns:svg="http://www.w3.org/2000/svg"
	 xmlns="http://www.w3.org/2000/svg" xmlns:xlink="http://www.w3.org/1999/xlink" x="0px" y="0px" viewBox="0 0 800 10"
	 style="enable-background:new 0 0 800 10;" xml:space="preserve">
<style type="text/css">
	.st0{fill:#3A4E55;}
	.st1{fill:#2A393D;}
</style>
<sodipodi:namedview  bordercolor="#666666" borderopacity="1" gridtolerance="10" guidetolerance="10" id="namedview3396" inkscape:current-layer="docker_whale" inkscape:cx="422.74706" inkscape:cy="-28.378508" inkscape:pageopacity="0" inkscape:pageshadow="2" inkscape:window-height="814" inkscape:window-maximized="1" inkscape:window-width="1536" inkscape:window-x="-8" inkscape:window-y="-8" inkscape:zoom="1.1597559" objecttolerance="10" pagecolor="#ffffff" showgrid="false">
	</sodipodi:namedview>
<title  id="title3338">docker_wave_whale</title>
<description>Created with Sketch (http://www.bohemiancoding.com/sketch)</description>
<g>
	<g>
		<rect x="-299.5" y="-14.7" class="st0" width="7.7" height="7.7"/>
		<rect x="-299.5" y="-7" class="st0" width="7.7" height="7.7"/>
		<rect x="-291.8" y="-7" class="st0" width="7.7" height="7.7"/>
		<rect x="-291.8" y="-14.7" class="st0" width="7.7" height="7.7"/>
		<rect x="-284.1" y="-7" class="st0" width="7.7" height="7.7"/>
		<rect x="-299.5" y="0.7" class="st0" width="7.7" height="7.7"/>
		<rect x="-291.8" y="0.7" class="st0" width="7.7" height="7.7"/>
		<rect x="-284.1" y="0.7" class="st0" width="7.7" height="7.7"/>
		<rect x="-276.4" y="0.7" class="st0" width="7.7" height="7.7"/>
		<rect x="-268.7" y="0.7" class="st0" width="7.7" height="7.7"/>
		<rect x="-299.5" y="8.4" class="st1" width="7.7" height="7.7"/>
		<rect x="-291.8" y="8.4" class="st0" width="7.7" height="7.7"/>
		<rect x="-284.1" y="8.4" class="st0" width="7.7" height="7.7"/>
		<rect x="-276.4" y="8.4" class="st0" width="7.7" height="7.7"/>
		<rect x="-268.7" y="8.4" class="st0" width="7.7" height="7.7"/>
		<rect x="-261" y="8.4" class="st0" width="7.7" height="7.7"/>
		<rect x="-253.3" y="8.4" class="st0" width="7.7" height="7.7"/>
		<rect x="-245.7" y="8.4" class="st0" width="7.7" height="7.7"/>
		<rect x="-238" y="0.7" class="st0" width="7.7" height="7.7"/>
		<rect x="-230.3" y="0.7" class="st0" width="7.7" height="7.7"/>
		<rect x="-238" y="8.4" class="st0" width="7.7" height="7.7"/>
		<rect x="-230.3" y="8.4" class="st0" width="7.7" height="7.7"/>
		<rect x="-222.6" y="-7" class="st0" width="7.7" height="7.7"/>
		<rect x="-214.9" y="-14.7" class="st0" width="7.7" height="7.7"/>
		<rect x="-207.2" y="-14.7" class="st0" width="7.7" height="7.7"/>
		<rect x="-214.9" y="-7" class="st0" width="7.7" height="7.7"/>
		<rect x="-207.2" y="-7" class="st0" width="7.7" height="7.7"/>
		<rect x="-222.6" y="0.7" class="st0" width="7.7" height="7.7"/>
		<rect x="-214.9" y="0.7" class="st0" width="7.7" height="7.7"/>
		<rect x="-207.2" y="0.7" class="st0" width="7.7" height="7.7"/>
		<rect x="-222.6" y="8.4" class="st1" width="7.7" height="7.7"/>
		<rect x="-214.9" y="8.4" class="st1" width="7.7" height="7.7"/>
		<rect x="-207.2" y="8.4" class="st1" width="7.7" height="7.7"/>
		<rect x="-299.5" y="16.1" class="st1" width="7.7" height="7.7"/>
		<rect x="-291.8" y="16.1" class="st1" width="7.7" height="7.7"/>
		<rect x="-284.1" y="16.1" class="st1" width="7.7" height="7.7"/>
		<rect x="-276.4" y="16.1" class="st1" width="7.7" height="7.7"/>
		<rect x="-268.7" y="16.1" class="st1" width="7.7" height="7.7"/>
		<rect x="-261" y="16.1" class="st0" width="7.7" height="7.7"/>
		<rect x="-253.3" y="16.1" class="st0" width="7.7" height="7.7"/>
		<rect x="-245.7" y="16.1" class="st1" width="7.7" height="7.7"/>
		<rect x="-238" y="16.1" class="st1" width="7.7" height="7.7"/>
		<rect x="-230.3" y="16.1" class="st1" width="7.7" height="7.7"/>
		<rect x="-222.6" y="16.1" class="st1" width="7.7" height="7.7"/>
		<rect x="-214.9" y="16.1" class="st1" width="7.7" height="7.7"/>
		<rect x="-207.2" y="16.1" class="st1" width="7.7" height="7.7"/>
	</g>
	<g>
		<rect x="-199.5" y="-14.7" class="st0" width="7.7" height="7.7"/>
		<rect x="-199.5" y="-7" class="st0" width="7.7" height="7.7"/>
		<rect x="-191.8" y="-7" class="st0" width="7.7" height="7.7"/>
		<rect x="-191.8" y="-14.7" class="st0" width="7.7" height="7.7"/>
		<rect x="-184.1" y="-7" class="st0" width="7.7" height="7.7"/>
		<rect x="-199.5" y="0.7" class="st0" width="7.7" height="7.7"/>
		<rect x="-191.8" y="0.7" class="st0" width="7.7" height="7.7"/>
		<rect x="-184.1" y="0.7" class="st0" width="7.7" height="7.7"/>
		<rect x="-176.4" y="0.7" class="st0" width="7.7" height="7.7"/>
		<rect x="-168.8" y="0.7" class="st0" width="7.7" height="7.7"/>
		<rect x="-199.5" y="8.4" class="st1" width="7.7" height="7.7"/>
		<rect x="-191.8" y="8.4" class="st0" width="7.7" height="7.7"/>
		<rect x="-184.1" y="8.4" class="st0" width="7.7" height="7.7"/>
		<rect x="-176.4" y="8.4" class="st0" width="7.7" height="7.7"/>
		<rect x="-168.8" y="8.4" class="st0" width="7.7" height="7.7"/>
		<rect x="-161.1" y="8.4" class="st0" width="7.7" height="7.7"/>
		<rect x="-153.4" y="8.4" class="st0" width="7.7" height="7.7"/>
		<rect x="-145.7" y="8.4" class="st0" width="7.7" height="7.7"/>
		<rect x="-138" y="0.7" class="st0" width="7.7" height="7.7"/>
		<rect x="-130.3" y="0.7" class="st0" width="7.7" height="7.7"/>
		<rect x="-138" y="8.4" class="st0" width="7.7" height="7.7"/>
		<rect x="-130.3" y="8.4" class="st0" width="7.7" height="7.7"/>
		<rect x="-122.6" y="-7" class="st0" width="7.7" height="7.7"/>
		<rect x="-114.9" y="-14.7" class="st0" width="7.7" height="7.7"/>
		<rect x="-107.2" y="-14.7" class="st0" width="7.7" height="7.7"/>
		<rect x="-114.9" y="-7" class="st0" width="7.7" height="7.7"/>
		<rect x="-107.2" y="-7" class="st0" width="7.7" height="7.7"/>
		<rect x="-122.6" y="0.7" class="st0" width="7.7" height="7.7"/>
		<rect x="-114.9" y="0.7" class="st0" width="7.7" height="7.7"/>
		<rect x="-107.2" y="0.7" class="st0" width="7.7" height="7.7"/>
		<rect x="-122.6" y="8.4" class="st1" width="7.7" height="7.7"/>
		<rect x="-114.9" y="8.4" class="st1" width="7.7" height="7.7"/>
		<rect x="-107.2" y="8.4" class="st1" width="7.7" height="7.7"/>
		<rect x="-199.5" y="16.1" class="st1" width="7.7" height="7.7"/>
		<rect x="-191.8" y="16.1" class="st1" width="7.7" height="7.7"/>
		<rect x="-184.1" y="16.1" class="st1" width="7.7" height="7.7"/>
		<rect x="-176.4" y="16.1" class="st1" width="7.7" height="7.7"/>
		<rect x="-168.8" y="16.1" class="st1" width="7.7" height="7.7"/>
		<rect x="-161.1" y="16.1" class="st0" width="7.7" height="7.7"/>
		<rect x="-153.4" y="16.1" class="st0" width="7.7" height="7.7"/>
		<rect x="-145.7" y="16.1" class="st1" width="7.7" height="7.7"/>
		<rect x="-138" y="16.1" class="st1" width="7.7" height="7.7"/>
		<rect x="-130.3" y="16.1" class="st1" width="7.7" height="7.7"/>
		<rect x="-122.6" y="16.1" class="st1" width="7.7" height="7.7"/>
		<rect x="-114.9" y="16.1" class="st1" width="7.7" height="7.7"/>
		<rect x="-107.2" y="16.1" class="st1" width="7.7" height="7.7"/>
	</g>
	<g>
		<rect x="-99.6" y="-14.7" class="st0" width="7.7" height="7.7"/>
		<rect x="-99.6" y="-7" class="st0" width="7.7" height="7.7"/>
		<rect x="-91.9" y="-7" class="st0" width="7.7" height="7.7"/>
		<rect x="-91.9" y="-14.7" class="st0" width="7.7" height="7.7"/>
		<rect x="-84.2" y="-7" class="st0" width="7.7" height="7.7"/>
		<rect x="-99.6" y="0.7" class="st0" width="7.7" height="7.7"/>
		<rect x="-91.9" y="0.7" class="st0" width="7.7" height="7.7"/>
		<rect x="-84.2" y="0.7" class="st0" width="7.7" height="7.7"/>
		<rect x="-76.5" y="0.7" class="st0" width="7.7" height="7.7"/>
		<rect x="-68.8" y="0.7" class="st0" width="7.7" height="7.7"/>
		<rect x="-99.6" y="8.4" class="st1" width="7.7" height="7.7"/>
		<rect x="-91.9" y="8.4" class="st0" width="7.7" height="7.7"/>
		<rect x="-84.2" y="8.4" class="st0" width="7.7" height="7.7"/>
		<rect x="-76.5" y="8.4" class="st0" width="7.7" height="7.7"/>
		<rect x="-68.8" y="8.4" class="st0" width="7.7" height="7.7"/>
		<rect x="-61.1" y="8.4" class="st0" width="7.7" height="7.7"/>
		<rect x="-53.4" y="8.4" class="st0" width="7.7" height="7.7"/>
		<rect x="-45.7" y="8.4" class="st0" width="7.7" height="7.7"/>
		<rect x="-38" y="0.7" class="st0" width="7.7" height="7.7"/>
		<rect x="-30.4" y="0.7" class="st0" width="7.7" height="7.7"/>
		<rect x="-38" y="8.4" class="st0" width="7.7" height="7.7"/>
		<rect x="-30.4" y="8.4" class="st0" width="7.7" height="7.7"/>
		<rect x="-22.7" y="-7" class="st0" width="7.7" height="7.7"/>
		<rect x="-15" y="-14.7" class="st0" width="7.7" height="7.7"/>
		<rect x="-7.3" y="-14.7" class="st0" width="7.7" height="7.7"/>
		<rect x="-15" y="-7" class="st0" width="7.7" height="7.7"/>
		<rect x="-7.3" y="-7" class="st0" width="7.7" height="7.7"/>
		<rect x="-22.7" y="0.7" class="st0" width="7.7" height="7.7"/>
		<rect x="-15" y="0.7" class="st0" width="7.7" height="7.7"/>
		<rect x="-7.3" y="0.7" class="st0" width="7.7" height="7.7"/>
		<rect x="-22.7" y="8.4" class="st1" width="7.7" height="7.7"/>
		<rect x="-15" y="8.4" class="st1" width="7.7" height="7.7"/>
		<rect x="-7.3" y="8.4" class="st1" width="7.7" height="7.7"/>
		<rect x="-99.6" y="16.1" class="st1" width="7.7" height="7.7"/>
		<rect x="-91.9" y="16.1" class="st1" width="7.7" height="7.7"/>
		<rect x="-84.2" y="16.1" class="st1" width="7.7" height="7.7"/>
		<rect x="-76.5" y="16.1" class="st1" width="7.7" height="7.7"/>
		<rect x="-68.8" y="16.1" class="st1" width="7.7" height="7.7"/>
		<rect x="-61.1" y="16.1" class="st0" width="7.7" height="7.7"/>
		<rect x="-53.4" y="16.1" class="st0" width="7.7" height="7.7"/>
		<rect x="-45.7" y="16.1" class="st1" width="7.7" height="7.7"/>
		<rect x="-38" y="16.1" class="st1" width="7.7" height="7.7"/>
		<rect x="-30.4" y="16.1" class="st1" width="7.7" height="7.7"/>
		<rect x="-22.7" y="16.1" class="st1" width="7.7" height="7.7"/>
		<rect x="-15" y="16.1" class="st1" width="7.7" height="7.7"/>
		<rect x="-7.3" y="16.1" class="st1" width="7.7" height="7.7"/>
	</g>
	<g>
		<rect x="0.4" y="-14.7" class="st0" width="7.7" height="7.7"/>
		<rect x="0.4" y="-7" class="st0" width="7.7" height="7.7"/>
		<rect x="8.1" y="-7" class="st0" width="7.7" height="7.7"/>
		<rect x="8.1" y="-14.7" class="st0" width="7.7" height="7.7"/>
		<rect x="15.8" y="-7" class="st0" width="7.7" height="7.7"/>
		<rect x="0.4" y="0.7" class="st0" width="7.7" height="7.7"/>
		<rect x="8.1" y="0.7" class="st0" width="7.7" height="7.7"/>
		<rect x="15.8" y="0.7" class="st0" width="7.7" height="7.7"/>
		<rect x="23.5" y="0.7" class="st0" width="7.7" height="7.7"/>
		<rect x="31.2" y="0.7" class="st0" width="7.7" height="7.7"/>
		<rect x="0.4" y="8.4" class="st1" width="7.7" height="7.7"/>
		<rect x="8.1" y="8.4" class="st0" width="7.7" height="7.7"/>
		<rect x="15.8" y="8.4" class="st0" width="7.7" height="7.7"/>
		<rect x="23.5" y="8.4" class="st0" width="7.7" height="7.7"/>
		<rect x="31.2" y="8.4" class="st0" width="7.7" height="7.7"/>
		<rect x="38.9" y="8.4" class="st0" width="7.7" height="7.7"/>
		<rect x="46.5" y="8.4" class="st0" width="7.7" height="7.7"/>
		<rect x="54.2" y="8.4" class="st0" width="7.7" height="7.7"/>
		<rect x="61.9" y="0.7" class="st0" width="7.7" height="7.7"/>
		<rect x="69.6" y="0.7" class="st0" width="7.7" height="7.7"/>
		<rect x="61.9" y="8.4" class="st0" width="7.7" height="7.7"/>
		<rect x="69.6" y="8.4" class="st0" width="7.7" height="7.7"/>
		<rect x="77.3" y="-7" class="st0" width="7.7" height="7.7"/>
		<rect x="85" y="-14.7" class="st0" width="7.7" height="7.7"/>
		<rect x="92.7" y="-14.7" class="st0" width="7.7" height="7.7"/>
		<rect x="85" y="-7" class="st0" width="7.7" height="7.7"/>
		<rect x="92.7" y="-7" class="st0" width="7.7" height="7.7"/>
		<rect x="77.3" y="0.7" class="st0" width="7.7" height="7.7"/>
		<rect x="85" y="0.7" class="st0" width="7.7" height="7.7"/>
		<rect x="92.7" y="0.7" class="st0" width="7.7" height="7.7"/>
		<rect x="77.3" y="8.4" class="st1" width="7.7" height="7.7"/>
		<rect x="85" y="8.4" class="st1" width="7.7" height="7.7"/>
		<rect x="92.7" y="8.4" class="st1" width="7.7" height="7.7"/>
		<rect x="0.4" y="16.1" class="st1" width="7.7" height="7.7"/>
		<rect x="8.1" y="16.1" class="st1" width="7.7" height="7.7"/>
		<rect x="15.8" y="16.1" class="st1" width="7.7" height="7.7"/>
		<rect x="23.5" y="16.1" class="st1" width="7.7" height="7.7"/>
		<rect x="31.2" y="16.1" class="st1" width="7.7" height="7.7"/>
		<rect x="38.9" y="16.1" class="st0" width="7.7" height="7.7"/>
		<rect x="46.5" y="16.1" class="st0" width="7.7" height="7.7"/>
		<rect x="54.2" y="16.1" class="st1" width="7.7" height="7.7"/>
		<rect x="61.9" y="16.1" class="st1" width="7.7" height="7.7"/>
		<rect x="69.6" y="16.1" class="st1" width="7.7" height="7.7"/>
		<rect x="77.3" y="16.1" class="st1" width="7.7" height="7.7"/>
		<rect x="85" y="16.1" class="st1" width="7.7" height="7.7"/>
		<rect x="92.7" y="16.1" class="st1" width="7.7" height="7.7"/>
	</g>
	<g>
		<rect x="100.4" y="-14.7" class="st0" width="7.7" height="7.7"/>
		<rect x="100.4" y="-7" class="st0" width="7.7" height="7.7"/>
		<rect x="108.1" y="-7" class="st0" width="7.7" height="7.7"/>
		<rect x="108.1" y="-14.7" class="st0" width="7.7" height="7.7"/>
		<rect x="115.7" y="-7" class="st0" width="7.7" height="7.7"/>
		<rect x="100.4" y="0.7" class="st0" width="7.7" height="7.7"/>
		<rect x="108.1" y="0.7" class="st0" width="7.7" height="7.7"/>
		<rect x="115.7" y="0.7" class="st0" width="7.7" height="7.7"/>
		<rect x="123.4" y="0.7" class="st0" width="7.7" height="7.7"/>
		<rect x="131.1" y="0.7" class="st0" width="7.7" height="7.7"/>
		<rect x="100.4" y="8.4" class="st1" width="7.7" height="7.7"/>
		<rect x="108.1" y="8.4" class="st0" width="7.7" height="7.7"/>
		<rect x="115.7" y="8.4" class="st0" width="7.7" height="7.7"/>
		<rect x="123.4" y="8.4" class="st0" width="7.7" height="7.7"/>
		<rect x="131.1" y="8.4" class="st0" width="7.7" height="7.7"/>
		<rect x="138.8" y="8.4" class="st0" width="7.7" height="7.7"/>
		<rect x="146.5" y="8.4" class="st0" width="7.7" height="7.7"/>
		<rect x="154.2" y="8.4" class="st0" width="7.7" height="7.7"/>
		<rect x="161.9" y="0.7" class="st0" width="7.7" height="7.7"/>
		<rect x="169.6" y="0.7" class="st0" width="7.7" height="7.7"/>
		<rect x="161.9" y="8.4" class="st0" width="7.7" height="7.7"/>
		<rect x="169.6" y="8.4" class="st0" width="7.7" height="7.7"/>
		<rect x="177.3" y="-7" class="st0" width="7.7" height="7.7"/>
		<rect x="185" y="-14.7" class="st0" width="7.7" height="7.7"/>
		<rect x="192.6" y="-14.7" class="st0" width="7.7" height="7.7"/>
		<rect x="185" y="-7" class="st0" width="7.7" height="7.7"/>
		<rect x="192.6" y="-7" class="st0" width="7.7" height="7.7"/>
		<rect x="177.3" y="0.7" class="st0" width="7.7" height="7.7"/>
		<rect x="185" y="0.7" class="st0" width="7.7" height="7.7"/>
		<rect x="192.6" y="0.7" class="st0" width="7.7" height="7.7"/>
		<rect x="177.3" y="8.4" class="st1" width="7.7" height="7.7"/>
		<rect x="185" y="8.4" class="st1" width="7.7" height="7.7"/>
		<rect x="192.6" y="8.4" class="st1" width="7.7" height="7.7"/>
		<rect x="100.4" y="16.1" class="st1" width="7.7" height="7.7"/>
		<rect x="108.1" y="16.1" class="st1" width="7.7" height="7.7"/>
		<rect x="115.7" y="16.1" class="st1" width="7.7" height="7.7"/>
		<rect x="123.4" y="16.1" class="st1" width="7.7" height="7.7"/>
		<rect x="131.1" y="16.1" class="st1" width="7.7" height="7.7"/>
		<rect x="138.8" y="16.1" class="st0" width="7.7" height="7.7"/>
		<rect x="146.5" y="16.1" class="st0" width="7.7" height="7.7"/>
		<rect x="154.2" y="16.1" class="st1" width="7.7" height="7.7"/>
		<rect x="161.9" y="16.1" class="st1" width="7.7" height="7.7"/>
		<rect x="169.6" y="16.1" class="st1" width="7.7" height="7.7"/>
		<rect x="177.3" y="16.1" class="st1" width="7.7" height="7.7"/>
		<rect x="185" y="16.1" class="st1" width="7.7" height="7.7"/>
		<rect x="192.6" y="16.1" class="st1" width="7.7" height="7.7"/>
	</g>
	<g>
		<rect x="200.3" y="-14.7" class="st0" width="7.7" height="7.7"/>
		<rect x="200.3" y="-7" class="st0" width="7.7" height="7.7"/>
		<rect x="208" y="-7" class="st0" width="7.7" height="7.7"/>
		<rect x="208" y="-14.7" class="st0" width="7.7" height="7.7"/>
		<rect x="215.7" y="-7" class="st0" width="7.7" height="7.7"/>
		<rect x="200.3" y="0.7" class="st0" width="7.7" height="7.7"/>
		<rect x="208" y="0.7" class="st0" width="7.7" height="7.7"/>
		<rect x="215.7" y="0.7" class="st0" width="7.7" height="7.7"/>
		<rect x="223.4" y="0.7" class="st0" width="7.7" height="7.7"/>
		<rect x="231.1" y="0.7" class="st0" width="7.7" height="7.7"/>
		<rect x="200.3" y="8.4" class="st1" width="7.7" height="7.7"/>
		<rect x="208" y="8.4" class="st0" width="7.7" height="7.7"/>
		<rect x="215.7" y="8.4" class="st0" width="7.7" height="7.7"/>
		<rect x="223.4" y="8.4" class="st0" width="7.7" height="7.7"/>
		<rect x="231.1" y="8.4" class="st0" width="7.7" height="7.7"/>
		<rect x="238.8" y="8.4" class="st0" width="7.7" height="7.7"/>
		<rect x="246.5" y="8.4" class="st0" width="7.7" height="7.7"/>
		<rect x="254.2" y="8.4" class="st0" width="7.7" height="7.7"/>
		<rect x="261.8" y="0.7" class="st0" width="7.7" height="7.7"/>
		<rect x="269.5" y="0.7" class="st0" width="7.7" height="7.7"/>
		<rect x="261.8" y="8.4" class="st0" width="7.7" height="7.7"/>
		<rect x="269.5" y="8.4" class="st0" width="7.7" height="7.7"/>
		<rect x="277.2" y="-7" class="st0" width="7.7" height="7.7"/>
		<rect x="284.9" y="-14.7" class="st0" width="7.7" height="7.7"/>
		<rect x="292.6" y="-14.7" class="st0" width="7.7" height="7.7"/>
		<rect x="284.9" y="-7" class="st0" width="7.7" height="7.7"/>
		<rect x="292.6" y="-7" class="st0" width="7.7" height="7.7"/>
		<rect x="277.2" y="0.7" class="st0" width="7.7" height="7.7"/>
		<rect x="284.9" y="0.7" class="st0" width="7.7" height="7.7"/>
		<rect x="292.6" y="0.7" class="st0" width="7.7" height="7.7"/>
		<rect x="277.2" y="8.4" class="st1" width="7.7" height="7.7"/>
		<rect x="284.9" y="8.4" class="st1" width="7.7" height="7.7"/>
		<rect x="292.6" y="8.4" class="st1" width="7.7" height="7.7"/>
		<rect x="200.3" y="16.1" class="st1" width="7.7" height="7.7"/>
		<rect x="208" y="16.1" class="st1" width="7.7" height="7.7"/>
		<rect x="215.7" y="16.1" class="st1" width="7.7" height="7.7"/>
		<rect x="223.4" y="16.1" class="st1" width="7.7" height="7.7"/>
		<rect x="231.1" y="16.1" class="st1" width="7.7" height="7.7"/>
		<rect x="238.8" y="16.1" class="st0" width="7.7" height="7.7"/>
		<rect x="246.5" y="16.1" class="st0" width="7.7" height="7.7"/>
		<rect x="254.2" y="16.1" class="st1" width="7.7" height="7.7"/>
		<rect x="261.8" y="16.1" class="st1" width="7.7" height="7.7"/>
		<rect x="269.5" y="16.1" class="st1" width="7.7" height="7.7"/>
		<rect x="277.2" y="16.1" class="st1" width="7.7" height="7.7"/>
		<rect x="284.9" y="16.1" class="st1" width="7.7" height="7.7"/>
		<rect x="292.6" y="16.1" class="st1" width="7.7" height="7.7"/>
	</g>
	<g>
		<rect x="300.3" y="-14.7" class="st0" width="7.7" height="7.7"/>
		<rect x="300.3" y="-7" class="st0" width="7.7" height="7.7"/>
		<rect x="308" y="-7" class="st0" width="7.7" height="7.7"/>
		<rect x="308" y="-14.7" class="st0" width="7.7" height="7.7"/>
		<rect x="315.7" y="-7" class="st0" width="7.7" height="7.7"/>
		<rect x="300.3" y="0.7" class="st0" width="7.7" height="7.7"/>
		<rect x="308" y="0.7" class="st0" width="7.7" height="7.7"/>
		<rect x="315.7" y="0.7" class="st0" width="7.7" height="7.7"/>
		<rect x="323.4" y="0.7" class="st0" width="7.7" height="7.7"/>
		<rect x="331" y="0.7" class="st0" width="7.7" height="7.7"/>
		<rect x="300.3" y="8.4" class="st1" width="7.7" height="7.7"/>
		<rect x="308" y="8.4" class="st0" width="7.7" height="7.7"/>
		<rect x="315.7" y="8.4" class="st0" width="7.7" height="7.7"/>
		<rect x="323.4" y="8.4" class="st0" width="7.7" height="7.7"/>
		<rect x="331" y="8.4" class="st0" width="7.7" height="7.7"/>
		<rect x="338.7" y="8.4" class="st0" width="7.7" height="7.7"/>
		<rect x="346.4" y="8.4" class="st0" width="7.7" height="7.7"/>
		<rect x="354.1" y="8.4" class="st0" width="7.7" height="7.7"/>
		<rect x="361.8" y="0.7" class="st0" width="7.7" height="7.7"/>
		<rect x="369.5" y="0.7" class="st0" width="7.7" height="7.7"/>
		<rect x="361.8" y="8.4" class="st0" width="7.7" height="7.7"/>
		<rect x="369.5" y="8.4" class="st0" width="7.7" height="7.7"/>
		<rect x="377.2" y="-7" class="st0" width="7.7" height="7.7"/>
		<rect x="384.9" y="-14.7" class="st0" width="7.7" height="7.7"/>
		<rect x="392.6" y="-14.7" class="st0" width="7.7" height="7.7"/>
		<rect x="384.9" y="-7" class="st0" width="7.7" height="7.7"/>
		<rect x="392.6" y="-7" class="st0" width="7.7" height="7.7"/>
		<rect x="377.2" y="0.7" class="st0" width="7.7" height="7.7"/>
		<rect x="384.9" y="0.7" class="st0" width="7.7" height="7.7"/>
		<rect x="392.6" y="0.7" class="st0" width="7.7" height="7.7"/>
		<rect x="377.2" y="8.4" class="st1" width="7.7" height="7.7"/>
		<rect x="384.9" y="8.4" class="st1" width="7.7" height="7.7"/>
		<rect x="392.6" y="8.4" class="st1" width="7.7" height="7.7"/>
		<rect x="300.3" y="16.1" class="st1" width="7.7" height="7.7"/>
		<rect x="308" y="16.1" class="st1" width="7.7" height="7.7"/>
		<rect x="315.7" y="16.1" class="st1" width="7.7" height="7.7"/>
		<rect x="323.4" y="16.1" class="st1" width="7.7" height="7.7"/>
		<rect x="331" y="16.1" class="st1" width="7.7" height="7.7"/>
		<rect x="338.7" y="16.1" class="st0" width="7.7" height="7.7"/>
		<rect x="346.4" y="16.1" class="st0" width="7.7" height="7.7"/>
		<rect x="354.1" y="16.1" class="st1" width="7.7" height="7.7"/>
		<rect x="361.8" y="16.1" class="st1" width="7.7" height="7.7"/>
		<rect x="369.5" y="16.1" class="st1" width="7.7" height="7.7"/>
		<rect x="377.2" y="16.1" class="st1" width="7.7" height="7.7"/>
		<rect x="384.9" y="16.1" class="st1" width="7.7" height="7.7"/>
		<rect x="392.6" y="16.1" class="st1" width="7.7" height="7.7"/>
	</g>
	<g>
		<rect x="400.3" y="-14.7" class="st0" width="7.7" height="7.7"/>
		<rect x="400.3" y="-7" class="st0" width="7.7" height="7.7"/>
		<rect x="407.9" y="-7" class="st0" width="7.7" height="7.7"/>
		<rect x="407.9" y="-14.7" class="st0" width="7.7" height="7.7"/>
		<rect x="415.6" y="-7" class="st0" width="7.7" height="7.7"/>
		<rect x="400.3" y="0.7" class="st0" width="7.7" height="7.7"/>
		<rect x="407.9" y="0.7" class="st0" width="7.7" height="7.7"/>
		<rect x="415.6" y="0.7" class="st0" width="7.7" height="7.7"/>
		<rect x="423.3" y="0.7" class="st0" width="7.7" height="7.7"/>
		<rect x="431" y="0.7" class="st0" width="7.7" height="7.7"/>
		<rect x="400.3" y="8.4" class="st1" width="7.7" height="7.7"/>
		<rect x="407.9" y="8.4" class="st0" width="7.7" height="7.7"/>
		<rect x="415.6" y="8.4" class="st0" width="7.7" height="7.7"/>
		<rect x="423.3" y="8.4" class="st0" width="7.7" height="7.7"/>
		<rect x="431" y="8.4" class="st0" width="7.7" height="7.7"/>
		<rect x="438.7" y="8.4" class="st0" width="7.7" height="7.7"/>
		<rect x="446.4" y="8.4" class="st0" width="7.7" height="7.7"/>
		<rect x="454.1" y="8.4" class="st0" width="7.7" height="7.7"/>
		<rect x="461.8" y="0.7" class="st0" width="7.7" height="7.7"/>
		<rect x="469.5" y="0.7" class="st0" width="7.7" height="7.7"/>
		<rect x="461.8" y="8.4" class="st0" width="7.7" height="7.7"/>
		<rect x="469.5" y="8.4" class="st0" width="7.7" height="7.7"/>
		<rect x="477.1" y="-7" class="st0" width="7.7" height="7.7"/>
		<rect x="484.8" y="-14.7" class="st0" width="7.7" height="7.7"/>
		<rect x="492.5" y="-14.7" class="st0" width="7.7" height="7.7"/>
		<rect x="484.8" y="-7" class="st0" width="7.7" height="7.7"/>
		<rect x="492.5" y="-7" class="st0" width="7.7" height="7.7"/>
		<rect x="477.1" y="0.7" class="st0" width="7.7" height="7.7"/>
		<rect x="484.8" y="0.7" class="st0" width="7.7" height="7.7"/>
		<rect x="492.5" y="0.7" class="st0" width="7.7" height="7.7"/>
		<rect x="477.1" y="8.4" class="st1" width="7.7" height="7.7"/>
		<rect x="484.8" y="8.4" class="st1" width="7.7" height="7.7"/>
		<rect x="492.5" y="8.4" class="st1" width="7.7" height="7.7"/>
		<rect x="400.3" y="16.1" class="st1" width="7.7" height="7.7"/>
		<rect x="407.9" y="16.1" class="st1" width="7.7" height="7.7"/>
		<rect x="415.6" y="16.1" class="st1" width="7.7" height="7.7"/>
		<rect x="423.3" y="16.1" class="st1" width="7.7" height="7.7"/>
		<rect x="431" y="16.1" class="st1" width="7.7" height="7.7"/>
		<rect x="438.7" y="16.1" class="st0" width="7.7" height="7.7"/>
		<rect x="446.4" y="16.1" class="st0" width="7.7" height="7.7"/>
		<rect x="454.1" y="16.1" class="st1" width="7.7" height="7.7"/>
		<rect x="461.8" y="16.1" class="st1" width="7.7" height="7.7"/>
		<rect x="469.5" y="16.1" class="st1" width="7.7" height="7.7"/>
		<rect x="477.1" y="16.1" class="st1" width="7.7" height="7.7"/>
		<rect x="484.8" y="16.1" class="st1" width="7.7" height="7.7"/>
		<rect x="492.5" y="16.1" class="st1" width="7.7" height="7.7"/>
	</g>
	<g>
		<rect x="500.2" y="-14.7" class="st0" width="7.7" height="7.7"/>
		<rect x="500.2" y="-7" class="st0" width="7.7" height="7.7"/>
		<rect x="507.9" y="-7" class="st0" width="7.7" height="7.7"/>
		<rect x="507.9" y="-14.7" class="st0" width="7.7" height="7.7"/>
		<rect x="515.6" y="-7" class="st0" width="7.7" height="7.7"/>
		<rect x="500.2" y="0.7" class="st0" width="7.7" height="7.7"/>
		<rect x="507.9" y="0.7" class="st0" width="7.7" height="7.7"/>
		<rect x="515.6" y="0.7" class="st0" width="7.7" height="7.7"/>
		<rect x="523.3" y="0.7" class="st0" width="7.7" height="7.7"/>
		<rect x="531" y="0.7" class="st0" width="7.7" height="7.7"/>
		<rect x="500.2" y="8.4" class="st1" width="7.7" height="7.7"/>
		<rect x="507.9" y="8.4" class="st0" width="7.7" height="7.7"/>
		<rect x="515.6" y="8.4" class="st0" width="7.7" height="7.7"/>
		<rect x="523.3" y="8.4" class="st0" width="7.7" height="7.7"/>
		<rect x="531" y="8.4" class="st0" width="7.7" height="7.7"/>
		<rect x="538.7" y="8.4" class="st0" width="7.7" height="7.7"/>
		<rect x="546.3" y="8.4" class="st0" width="7.7" height="7.7"/>
		<rect x="554" y="8.4" class="st0" width="7.7" height="7.7"/>
		<rect x="561.7" y="0.7" class="st0" width="7.7" height="7.7"/>
		<rect x="569.4" y="0.7" class="st0" width="7.7" height="7.7"/>
		<rect x="561.7" y="8.4" class="st0" width="7.7" height="7.7"/>
		<rect x="569.4" y="8.4" class="st0" width="7.7" height="7.7"/>
		<rect x="577.1" y="-7" class="st0" width="7.7" height="7.7"/>
		<rect x="584.8" y="-14.7" class="st0" width="7.7" height="7.7"/>
		<rect x="592.5" y="-14.7" class="st0" width="7.7" height="7.7"/>
		<rect x="584.8" y="-7" class="st0" width="7.7" height="7.7"/>
		<rect x="592.5" y="-7" class="st0" width="7.7" height="7.7"/>
		<rect x="577.1" y="0.7" class="st0" width="7.7" height="7.7"/>
		<rect x="584.8" y="0.7" class="st0" width="7.7" height="7.7"/>
		<rect x="592.5" y="0.7" class="st0" width="7.7" height="7.7"/>
		<rect x="577.1" y="8.4" class="st1" width="7.7" height="7.7"/>
		<rect x="584.8" y="8.4" class="st1" width="7.7" height="7.7"/>
		<rect x="592.5" y="8.4" class="st1" width="7.7" height="7.7"/>
		<rect x="500.2" y="16.1" class="st1" width="7.7" height="7.7"/>
		<rect x="507.9" y="16.1" class="st1" width="7.7" height="7.7"/>
		<rect x="515.6" y="16.1" class="st1" width="7.7" height="7.7"/>
		<rect x="523.3" y="16.1" class="st1" width="7.7" height="7.7"/>
		<rect x="531" y="16.1" class="st1" width="7.7" height="7.7"/>
		<rect x="538.7" y="16.1" class="st0" width="7.7" height="7.7"/>
		<rect x="546.3" y="16.1" class="st0" width="7.7" height="7.7"/>
		<rect x="554" y="16.1" class="st1" width="7.7" height="7.7"/>
		<rect x="561.7" y="16.1" class="st1" width="7.7" height="7.7"/>
		<rect x="569.4" y="16.1" class="st1" width="7.7" height="7.7"/>
		<rect x="577.1" y="16.1" class="st1" width="7.7" height="7.7"/>
		<rect x="584.8" y="16.1" class="st1" width="7.7" height="7.7"/>
		<rect x="592.5" y="16.1" class="st1" width="7.7" height="7.7"/>
	</g>
	<g>
		<rect x="600.2" y="-14.7" class="st0" width="7.7" height="7.7"/>
		<rect x="600.2" y="-7" class="st0" width="7.7" height="7.7"/>
		<rect x="607.9" y="-7" class="st0" width="7.7" height="7.7"/>
		<rect x="607.9" y="-14.7" class="st0" width="7.7" height="7.7"/>
		<rect x="615.6" y="-7" class="st0" width="7.7" height="7.7"/>
		<rect x="600.2" y="0.7" class="st0" width="7.7" height="7.7"/>
		<rect x="607.9" y="0.7" class="st0" width="7.7" height="7.7"/>
		<rect x="615.6" y="0.7" class="st0" width="7.7" height="7.7"/>
		<rect x="623.2" y="0.7" class="st0" width="7.7" height="7.7"/>
		<rect x="630.9" y="0.7" class="st0" width="7.7" height="7.7"/>
		<rect x="600.2" y="8.4" class="st1" width="7.7" height="7.7"/>
		<rect x="607.9" y="8.4" class="st0" width="7.7" height="7.7"/>
		<rect x="615.6" y="8.4" class="st0" width="7.7" height="7.7"/>
		<rect x="623.2" y="8.4" class="st0" width="7.7" height="7.7"/>
		<rect x="630.9" y="8.4" class="st0" width="7.7" height="7.7"/>
		<rect x="638.6" y="8.4" class="st0" width="7.7" height="7.7"/>
		<rect x="646.3" y="8.4" class="st0" width="7.7" height="7.7"/>
		<rect x="654" y="8.4" class="st0" width="7.7" height="7.7"/>
		<rect x="661.7" y="0.7" class="st0" width="7.7" height="7.7"/>
		<rect x="669.4" y="0.7" class="st0" width="7.7" height="7.7"/>
		<rect x="661.7" y="8.4" class="st0" width="7.7" height="7.7"/>
		<rect x="669.4" y="8.4" class="st0" width="7.7" height="7.7"/>
		<rect x="677.1" y="-7" class="st0" width="7.7" height="7.7"/>
		<rect x="684.8" y="-14.7" class="st0" width="7.7" height="7.7"/>
		<rect x="692.4" y="-14.7" class="st0" width="7.7" height="7.7"/>
		<rect x="684.8" y="-7" class="st0" width="7.7" height="7.7"/>
		<rect x="692.4" y="-7" class="st0" width="7.7" height="7.7"/>
		<rect x="677.1" y="0.7" class="st0" width="7.7" height="7.7"/>
		<rect x="684.8" y="0.7" class="st0" width="7.7" height="7.7"/>
		<rect x="692.4" y="0.7" class="st0" width="7.7" height="7.7"/>
		<rect x="677.1" y="8.4" class="st1" width="7.7" height="7.7"/>
		<rect x="684.8" y="8.4" class="st1" width="7.7" height="7.7"/>
		<rect x="692.4" y="8.4" class="st1" width="7.7" height="7.7"/>
		<rect x="600.2" y="16.1" class="st1" width="7.7" height="7.7"/>
		<rect x="607.9" y="16.1" class="st1" width="7.7" height="7.7"/>
		<rect x="615.6" y="16.1" class="st1" width="7.7" height="7.7"/>
		<rect x="623.2" y="16.1" class="st1" width="7.7" height="7.7"/>
		<rect x="630.9" y="16.1" class="st1" width="7.7" height="7.7"/>
		<rect x="638.6" y="16.1" class="st0" width="7.7" height="7.7"/>
		<rect x="646.3" y="16.1" class="st0" width="7.7" height="7.7"/>
		<rect x="654" y="16.1" class="st1" width="7.7" height="7.7"/>
		<rect x="661.7" y="16.1" class="st1" width="7.7" height="7.7"/>
		<rect x="669.4" y="16.1" class="st1" width="7.7" height="7.7"/>
		<rect x="677.1" y="16.1" class="st1" width="7.7" height="7.7"/>
		<rect x="684.8" y="16.1" class="st1" width="7.7" height="7.7"/>
		<rect x="692.4" y="16.1" class="st1" width="7.7" height="7.7"/>
	</g>
	<g>
		<rect x="700.1" y="-14.7" class="st0" width="7.7" height="7.7"/>
		<rect x="700.1" y="-7" class="st0" width="7.7" height="7.7"/>
		<rect x="707.8" y="-7" class="st0" width="7.7" height="7.7"/>
		<rect x="707.8" y="-14.7" class="st0" width="7.7" height="7.7"/>
		<rect x="715.5" y="-7" class="st0" width="7.7" height="7.7"/>
		<rect x="700.1" y="0.7" class="st0" width="7.7" height="7.7"/>
		<rect x="707.8" y="0.7" class="st0" width="7.7" height="7.7"/>
		<rect x="715.5" y="0.7" class="st0" width="7.7" height="7.7"/>
		<rect x="723.2" y="0.7" class="st0" width="7.7" height="7.7"/>
		<rect x="730.9" y="0.7" class="st0" width="7.7" height="7.7"/>
		<rect x="700.1" y="8.4" class="st1" width="7.7" height="7.7"/>
		<rect x="707.8" y="8.4" class="st0" width="7.7" height="7.7"/>
		<rect x="715.5" y="8.4" class="st0" width="7.7" height="7.7"/>
		<rect x="723.2" y="8.4" class="st0" width="7.7" height="7.7"/>
		<rect x="730.9" y="8.4" class="st0" width="7.7" height="7.7"/>
		<rect x="738.6" y="8.4" class="st0" width="7.7" height="7.7"/>
		<rect x="746.3" y="8.4" class="st0" width="7.7" height="7.7"/>
		<rect x="754" y="8.4" class="st0" width="7.7" height="7.7"/>
		<rect x="761.7" y="0.7" class="st0" width="7.7" height="7.7"/>
		<rect x="769.3" y="0.7" class="st0" width="7.7" height="7.7"/>
		<rect x="761.7" y="8.4" class="st0" width="7.7" height="7.7"/>
		<rect x="769.3" y="8.4" class="st0" width="7.7" height="7.7"/>
		<rect x="777" y="-7" class="st0" width="7.7" height="7.7"/>
		<rect x="784.7" y="-14.7" class="st0" width="7.7" height="7.7"/>
		<rect x="792.4" y="-14.7" class="st0" width="7.7" height="7.7"/>
		<rect x="784.7" y="-7" class="st0" width="7.7" height="7.7"/>
		<rect x="792.4" y="-7" class="st0" width="7.7" height="7.7"/>
		<rect x="777" y="0.7" class="st0" width="7.7" height="7.7"/>
		<rect x="784.7" y="0.7" class="st0" width="7.7" height="7.7"/>
		<rect x="792.4" y="0.7" class="st0" width="7.7" height="7.7"/>
		<rect x="777" y="8.4" class="st1" width="7.7" height="7.7"/>
		<rect x="784.7" y="8.4" class="st1" width="7.7" height="7.7"/>
		<rect x="792.4" y="8.4" class="st1" width="7.7" height="7.7"/>
		<rect x="700.1" y="16.1" class="st1" width="7.7" height="7.7"/>
		<rect x="707.8" y="16.1" class="st1" width="7.7" height="7.7"/>
		<rect x="715.5" y="16.1" class="st1" width="7.7" height="7.7"/>
		<rect x="723.2" y="16.1" class="st1" width="7.7" height="7.7"/>
		<rect x="730.9" y="16.1" class="st1" width="7.7" height="7.7"/>
		<rect x="738.6" y="16.1" class="st0" width="7.7" height="7.7"/>
		<rect x="746.3" y="16.1" class="st0" width="7.7" height="7.7"/>
		<rect x="754" y="16.1" class="st1" width="7.7" height="7.7"/>
		<rect x="761.7" y="16.1" class="st1" width="7.7" height="7.7"/>
		<rect x="769.3" y="16.1" class="st1" width="7.7" height="7.7"/>
		<rect x="777" y="16.1" class="st1" width="7.7" height="7.7"/>
		<rect x="784.7" y="16.1" class="st1" width="7.7" height="7.7"/>
		<rect x="792.4" y="16.1" class="st1" width="7.7" height="7.7"/>
	</g>
	<g>
		<rect x="800.1" y="-14.7" class="st0" width="7.7" height="7.7"/>
		<rect x="800.1" y="-7" class="st0" width="7.7" height="7.7"/>
		<rect x="807.8" y="-7" class="st0" width="7.7" height="7.7"/>
		<rect x="807.8" y="-14.7" class="st0" width="7.7" height="7.7"/>
		<rect x="815.5" y="-7" class="st0" width="7.7" height="7.7"/>
		<rect x="800.1" y="0.7" class="st0" width="7.7" height="7.7"/>
		<rect x="807.8" y="0.7" class="st0" width="7.7" height="7.7"/>
		<rect x="815.5" y="0.7" class="st0" width="7.7" height="7.7"/>
		<rect x="823.2" y="0.7" class="st0" width="7.7" height="7.7"/>
		<rect x="830.9" y="0.7" class="st0" width="7.7" height="7.7"/>
		<rect x="800.1" y="8.4" class="st1" width="7.7" height="7.7"/>
		<rect x="807.8" y="8.4" class="st0" width="7.7" height="7.7"/>
		<rect x="815.5" y="8.4" class="st0" width="7.7" height="7.7"/>
		<rect x="823.2" y="8.4" class="st0" width="7.7" height="7.7"/>
		<rect x="830.9" y="8.4" class="st0" width="7.7" height="7.7"/>
		<rect x="838.5" y="8.4" class="st0" width="7.7" height="7.7"/>
		<rect x="846.2" y="8.4" class="st0" width="7.7" height="7.7"/>
		<rect x="853.9" y="8.4" class="st0" width="7.7" height="7.7"/>
		<rect x="861.6" y="0.7" class="st0" width="7.7" height="7.7"/>
		<rect x="869.3" y="0.7" class="st0" width="7.7" height="7.7"/>
		<rect x="861.6" y="8.4" class="st0" width="7.7" height="7.7"/>
		<rect x="869.3" y="8.4" class="st0" width="7.7" height="7.7"/>
		<rect x="877" y="-7" class="st0" width="7.7" height="7.7"/>
		<rect x="884.7" y="-14.7" class="st0" width="7.7" height="7.7"/>
		<rect x="892.4" y="-14.7" class="st0" width="7.7" height="7.7"/>
		<rect x="884.7" y="-7" class="st0" width="7.7" height="7.7"/>
		<rect x="892.4" y="-7" class="st0" width="7.7" height="7.7"/>
		<rect x="877" y="0.7" class="st0" width="7.7" height="7.7"/>
		<rect x="884.7" y="0.7" class="st0" width="7.7" height="7.7"/>
		<rect x="892.4" y="0.7" class="st0" width="7.7" height="7.7"/>
		<rect x="877" y="8.4" class="st1" width="7.7" height="7.7"/>
		<rect x="884.7" y="8.4" class="st1" width="7.7" height="7.7"/>
		<rect x="892.4" y="8.4" class="st1" width="7.7" height="7.7"/>
		<rect x="800.1" y="16.1" class="st1" width="7.7" height="7.7"/>
		<rect x="807.8" y="16.1" class="st1" width="7.7" height="7.7"/>
		<rect x="815.5" y="16.1" class="st1" width="7.7" height="7.7"/>
		<rect x="823.2" y="16.1" class="st1" width="7.7" height="7.7"/>
		<rect x="830.9" y="16.1" class="st1" width="7.7" height="7.7"/>
		<rect x="838.5" y="16.1" class="st0" width="7.7" height="7.7"/>
		<rect x="846.2" y="16.1" class="st0" width="7.7" height="7.7"/>
		<rect x="853.9" y="16.1" class="st1" width="7.7" height="7.7"/>
		<rect x="861.6" y="16.1" class="st1" width="7.7" height="7.7"/>
		<rect x="869.3" y="16.1" class="st1" width="7.7" height="7.7"/>
		<rect x="877" y="16.1" class="st1" width="7.7" height="7.7"/>
		<rect x="884.7" y="16.1" class="st1" width="7.7" height="7.7"/>
		<rect x="892.4" y="16.1" class="st1" width="7.7" height="7.7"/>
	</g>
	<g>
		<rect x="900.1" y="-14.7" class="st0" width="7.7" height="7.7"/>
		<rect x="900.1" y="-7" class="st0" width="7.7" height="7.7"/>
		<rect x="907.7" y="-7" class="st0" width="7.7" height="7.7"/>
		<rect x="907.7" y="-14.7" class="st0" width="7.7" height="7.7"/>
		<rect x="915.4" y="-7" class="st0" width="7.7" height="7.7"/>
		<rect x="900.1" y="0.7" class="st0" width="7.7" height="7.7"/>
		<rect x="907.7" y="0.7" class="st0" width="7.7" height="7.7"/>
		<rect x="915.4" y="0.7" class="st0" width="7.7" height="7.7"/>
		<rect x="923.1" y="0.7" class="st0" width="7.7" height="7.7"/>
		<rect x="930.8" y="0.7" class="st0" width="7.7" height="7.7"/>
		<rect x="900.1" y="8.4" class="st1" width="7.7" height="7.7"/>
		<rect x="907.7" y="8.4" class="st0" width="7.7" height="7.7"/>
		<rect x="915.4" y="8.4" class="st0" width="7.7" height="7.7"/>
		<rect x="923.1" y="8.4" class="st0" width="7.7" height="7.7"/>
		<rect x="930.8" y="8.4" class="st0" width="7.7" height="7.7"/>
		<rect x="938.5" y="8.4" class="st0" width="7.7" height="7.7"/>
		<rect x="946.2" y="8.4" class="st0" width="7.7" height="7.7"/>
		<rect x="953.9" y="8.4" class="st0" width="7.7" height="7.7"/>
		<rect x="961.6" y="0.7" class="st0" width="7.7" height="7.7"/>
		<rect x="969.3" y="0.7" class="st0" width="7.7" height="7.7"/>
		<rect x="961.6" y="8.4" class="st0" width="7.7" height="7.7"/>
		<rect x="969.3" y="8.4" class="st0" width="7.7" height="7.7"/>
		<rect x="977" y="-7" class="st0" width="7.7" height="7.7"/>
		<rect x="984.6" y="-14.7" class="st0" width="7.7" height="7.7"/>
		<rect x="992.3" y="-14.7" class="st0" width="7.7" height="7.7"/>
		<rect x="984.6" y="-7" class="st0" width="7.7" height="7.7"/>
		<rect x="992.3" y="-7" class="st0" width="7.7" height="7.7"/>
		<rect x="977" y="0.7" class="st0" width="7.7" height="7.7"/>
		<rect x="984.6" y="0.7" class="st0" width="7.7" height="7.7"/>
		<rect x="992.3" y="0.7" class="st0" width="7.7" height="7.7"/>
		<rect x="977" y="8.4" class="st1" width="7.7" height="7.7"/>
		<rect x="984.6" y="8.4" class="st1" width="7.7" height="7.7"/>
		<rect x="992.3" y="8.4" class="st1" width="7.7" height="7.7"/>
		<rect x="900.1" y="16.1" class="st1" width="7.7" height="7.7"/>
		<rect x="907.7" y="16.1" class="st1" width="7.7" height="7.7"/>
		<rect x="915.4" y="16.1" class="st1" width="7.7" height="7.7"/>
		<rect x="923.1" y="16.1" class="st1" width="7.7" height="7.7"/>
		<rect x="930.8" y="16.1" class="st1" width="7.7" height="7.7"/>
		<rect x="938.5" y="16.1" class="st0" width="7.7" height="7.7"/>
		<rect x="946.2" y="16.1" class="st0" width="7.7" height="7.7"/>
		<rect x="953.9" y="16.1" class="st1" width="7.7" height="7.7"/>
		<rect x="961.6" y="16.1" class="st1" width="7.7" height="7.7"/>
		<rect x="969.3" y="16.1" class="st1" width="7.7" height="7.7"/>
		<rect x="977" y="16.1" class="st1" width="7.7" height="7.7"/>
		<rect x="984.6" y="16.1" class="st1" width="7.7" height="7.7"/>
		<rect x="992.3" y="16.1" class="st1" width="7.7" height="7.7"/>
	</g>
	<g>
		<rect x="1000" y="-14.7" class="st0" width="7.7" height="7.7"/>
		<rect x="1000" y="-7" class="st0" width="7.7" height="7.7"/>
		<rect x="1007.7" y="-7" class="st0" width="7.7" height="7.7"/>
		<rect x="1007.7" y="-14.7" class="st0" width="7.7" height="7.7"/>
		<rect x="1015.4" y="-7" class="st0" width="7.7" height="7.7"/>
		<rect x="1000" y="0.7" class="st0" width="7.7" height="7.7"/>
		<rect x="1007.7" y="0.7" class="st0" width="7.7" height="7.7"/>
		<rect x="1015.4" y="0.7" class="st0" width="7.7" height="7.7"/>
		<rect x="1023.1" y="0.7" class="st0" width="7.7" height="7.7"/>
		<rect x="1030.8" y="0.7" class="st0" width="7.7" height="7.7"/>
		<rect x="1000" y="8.4" class="st1" width="7.7" height="7.7"/>
		<rect x="1007.7" y="8.4" class="st0" width="7.7" height="7.7"/>
		<rect x="1015.4" y="8.4" class="st0" width="7.7" height="7.7"/>
		<rect x="1023.1" y="8.4" class="st0" width="7.7" height="7.7"/>
		<rect x="1030.8" y="8.4" class="st0" width="7.7" height="7.7"/>
		<rect x="1038.5" y="8.4" class="st0" width="7.7" height="7.7"/>
		<rect x="1046.2" y="8.4" class="st0" width="7.7" height="7.7"/>
		<rect x="1053.8" y="8.4" class="st0" width="7.7" height="7.7"/>
		<rect x="1061.5" y="0.7" class="st0" width="7.7" height="7.7"/>
		<rect x="1069.2" y="0.7" class="st0" width="7.7" height="7.7"/>
		<rect x="1061.5" y="8.4" class="st0" width="7.7" height="7.7"/>
		<rect x="1069.2" y="8.4" class="st0" width="7.7" height="7.7"/>
		<rect x="1076.9" y="-7" class="st0" width="7.7" height="7.7"/>
		<rect x="1084.6" y="-14.7" class="st0" width="7.7" height="7.7"/>
		<rect x="1092.3" y="-14.7" class="st0" width="7.7" height="7.7"/>
		<rect x="1084.6" y="-7" class="st0" width="7.7" height="7.7"/>
		<rect x="1092.3" y="-7" class="st0" width="7.7" height="7.7"/>
		<rect x="1076.9" y="0.7" class="st0" width="7.7" height="7.7"/>
		<rect x="1084.6" y="0.7" class="st0" width="7.7" height="7.7"/>
		<rect x="1092.3" y="0.7" class="st0" width="7.7" height="7.7"/>
		<rect x="1076.9" y="8.4" class="st1" width="7.7" height="7.7"/>
		<rect x="1084.6" y="8.4" class="st1" width="7.7" height="7.7"/>
		<rect x="1092.3" y="8.4" class="st1" width="7.7" height="7.7"/>
		<rect x="1000" y="16.1" class="st1" width="7.7" height="7.7"/>
		<rect x="1007.7" y="16.1" class="st1" width="7.7" height="7.7"/>
		<rect x="1015.4" y="16.1" class="st1" width="7.7" height="7.7"/>
		<rect x="1023.1" y="16.1" class="st1" width="7.7" height="7.7"/>
		<rect x="1030.8" y="16.1" class="st1" width="7.7" height="7.7"/>
		<rect x="1038.5" y="16.1" class="st0" width="7.7" height="7.7"/>
		<rect x="1046.2" y="16.1" class="st0" width="7.7" height="7.7"/>
		<rect x="1053.8" y="16.1" class="st1" width="7.7" height="7.7"/>
		<rect x="1061.5" y="16.1" class="st1" width="7.7" height="7.7"/>
		<rect x="1069.2" y="16.1" class="st1" width="7.7" height="7.7"/>
		<rect x="1076.9" y="16.1" class="st1" width="7.7" height="7.7"/>
		<rect x="1084.6" y="16.1" class="st1" width="7.7" height="7.7"/>
		<rect x="1092.3" y="16.1" class="st1" width="7.7" height="7.7"/>
	</g>
</g>
</svg>
